%TF.GenerationSoftware,KiCad,Pcbnew,7.0.7+dfsg-1*%
%TF.CreationDate,2024-03-22T17:08:38+01:00*%
%TF.ProjectId,led_display,6c65645f-6469-4737-906c-61792e6b6963,rev?*%
%TF.SameCoordinates,Original*%
%TF.FileFunction,Soldermask,Top*%
%TF.FilePolarity,Negative*%
%FSLAX46Y46*%
G04 Gerber Fmt 4.6, Leading zero omitted, Abs format (unit mm)*
G04 Created by KiCad (PCBNEW 7.0.7+dfsg-1) date 2024-03-22 17:08:38*
%MOMM*%
%LPD*%
G01*
G04 APERTURE LIST*
%ADD10R,2.000000X1.100000*%
G04 APERTURE END LIST*
D10*
%TO.C,D40*%
X172600000Y-58300000D03*
X172600000Y-60000000D03*
X172600000Y-61700000D03*
X177400000Y-61700000D03*
X177400000Y-60000000D03*
X177400000Y-58300000D03*
%TD*%
%TO.C,D55*%
X122600000Y-78300000D03*
X122600000Y-80000000D03*
X122600000Y-81700000D03*
X127400000Y-81700000D03*
X127400000Y-80000000D03*
X127400000Y-78300000D03*
%TD*%
%TO.C,D7*%
X142600000Y-28300000D03*
X142600000Y-30000000D03*
X142600000Y-31700000D03*
X147400000Y-31700000D03*
X147400000Y-30000000D03*
X147400000Y-28300000D03*
%TD*%
%TO.C,D16*%
X132600000Y-38300000D03*
X132600000Y-40000000D03*
X132600000Y-41700000D03*
X137400000Y-41700000D03*
X137400000Y-40000000D03*
X137400000Y-38300000D03*
%TD*%
%TO.C,D62*%
X92600000Y-88300000D03*
X92600000Y-90000000D03*
X92600000Y-91700000D03*
X97400000Y-91700000D03*
X97400000Y-90000000D03*
X97400000Y-88300000D03*
%TD*%
%TO.C,D69*%
X162600000Y-88300000D03*
X162600000Y-90000000D03*
X162600000Y-91700000D03*
X167400000Y-91700000D03*
X167400000Y-90000000D03*
X167400000Y-88300000D03*
%TD*%
%TO.C,D39*%
X162600000Y-58300000D03*
X162600000Y-60000000D03*
X162600000Y-61700000D03*
X167400000Y-61700000D03*
X167400000Y-60000000D03*
X167400000Y-58300000D03*
%TD*%
%TO.C,D11*%
X82600000Y-38300000D03*
X82600000Y-40000000D03*
X82600000Y-41700000D03*
X87400000Y-41700000D03*
X87400000Y-40000000D03*
X87400000Y-38300000D03*
%TD*%
%TO.C,D43*%
X102600000Y-68300000D03*
X102600000Y-70000000D03*
X102600000Y-71700000D03*
X107400000Y-71700000D03*
X107400000Y-70000000D03*
X107400000Y-68300000D03*
%TD*%
%TO.C,D90*%
X172600000Y-108300000D03*
X172600000Y-110000000D03*
X172600000Y-111700000D03*
X177400000Y-111700000D03*
X177400000Y-110000000D03*
X177400000Y-108300000D03*
%TD*%
%TO.C,D31*%
X82600000Y-58300000D03*
X82600000Y-60000000D03*
X82600000Y-61700000D03*
X87400000Y-61700000D03*
X87400000Y-60000000D03*
X87400000Y-58300000D03*
%TD*%
%TO.C,D57*%
X142600000Y-78300000D03*
X142600000Y-80000000D03*
X142600000Y-81700000D03*
X147400000Y-81700000D03*
X147400000Y-80000000D03*
X147400000Y-78300000D03*
%TD*%
%TO.C,D95*%
X122600000Y-118300000D03*
X122600000Y-120000000D03*
X122600000Y-121700000D03*
X127400000Y-121700000D03*
X127400000Y-120000000D03*
X127400000Y-118300000D03*
%TD*%
%TO.C,D73*%
X102600000Y-98300000D03*
X102600000Y-100000000D03*
X102600000Y-101700000D03*
X107400000Y-101700000D03*
X107400000Y-100000000D03*
X107400000Y-98300000D03*
%TD*%
%TO.C,D6*%
X132600000Y-28300000D03*
X132600000Y-30000000D03*
X132600000Y-31700000D03*
X137400000Y-31700000D03*
X137400000Y-30000000D03*
X137400000Y-28300000D03*
%TD*%
%TO.C,D46*%
X132600000Y-68300000D03*
X132600000Y-70000000D03*
X132600000Y-71700000D03*
X137400000Y-71700000D03*
X137400000Y-70000000D03*
X137400000Y-68300000D03*
%TD*%
%TO.C,D32*%
X92600000Y-58300000D03*
X92600000Y-60000000D03*
X92600000Y-61700000D03*
X97400000Y-61700000D03*
X97400000Y-60000000D03*
X97400000Y-58300000D03*
%TD*%
%TO.C,D17*%
X142600000Y-38300000D03*
X142600000Y-40000000D03*
X142600000Y-41700000D03*
X147400000Y-41700000D03*
X147400000Y-40000000D03*
X147400000Y-38300000D03*
%TD*%
%TO.C,D97*%
X142600000Y-118300000D03*
X142600000Y-120000000D03*
X142600000Y-121700000D03*
X147400000Y-121700000D03*
X147400000Y-120000000D03*
X147400000Y-118300000D03*
%TD*%
%TO.C,D72*%
X92600000Y-98300000D03*
X92600000Y-100000000D03*
X92600000Y-101700000D03*
X97400000Y-101700000D03*
X97400000Y-100000000D03*
X97400000Y-98300000D03*
%TD*%
%TO.C,D64*%
X112600000Y-88300000D03*
X112600000Y-90000000D03*
X112600000Y-91700000D03*
X117400000Y-91700000D03*
X117400000Y-90000000D03*
X117400000Y-88300000D03*
%TD*%
%TO.C,D51*%
X82600000Y-78300000D03*
X82600000Y-80000000D03*
X82600000Y-81700000D03*
X87400000Y-81700000D03*
X87400000Y-80000000D03*
X87400000Y-78300000D03*
%TD*%
%TO.C,D80*%
X172600000Y-98300000D03*
X172600000Y-100000000D03*
X172600000Y-101700000D03*
X177400000Y-101700000D03*
X177400000Y-100000000D03*
X177400000Y-98300000D03*
%TD*%
%TO.C,D92*%
X92600000Y-118300000D03*
X92600000Y-120000000D03*
X92600000Y-121700000D03*
X97400000Y-121700000D03*
X97400000Y-120000000D03*
X97400000Y-118300000D03*
%TD*%
%TO.C,D71*%
X82600000Y-98300000D03*
X82600000Y-100000000D03*
X82600000Y-101700000D03*
X87400000Y-101700000D03*
X87400000Y-100000000D03*
X87400000Y-98300000D03*
%TD*%
%TO.C,D96*%
X132600000Y-118300000D03*
X132600000Y-120000000D03*
X132600000Y-121700000D03*
X137400000Y-121700000D03*
X137400000Y-120000000D03*
X137400000Y-118300000D03*
%TD*%
%TO.C,D22*%
X92600000Y-48300000D03*
X92600000Y-50000000D03*
X92600000Y-51700000D03*
X97400000Y-51700000D03*
X97400000Y-50000000D03*
X97400000Y-48300000D03*
%TD*%
%TO.C,D76*%
X132600000Y-98300000D03*
X132600000Y-100000000D03*
X132600000Y-101700000D03*
X137400000Y-101700000D03*
X137400000Y-100000000D03*
X137400000Y-98300000D03*
%TD*%
%TO.C,D25*%
X122600000Y-48300000D03*
X122600000Y-50000000D03*
X122600000Y-51700000D03*
X127400000Y-51700000D03*
X127400000Y-50000000D03*
X127400000Y-48300000D03*
%TD*%
%TO.C,D1*%
X82600000Y-28300000D03*
X82600000Y-30000000D03*
X82600000Y-31700000D03*
X87400000Y-31700000D03*
X87400000Y-30000000D03*
X87400000Y-28300000D03*
%TD*%
%TO.C,D75*%
X122600000Y-98300000D03*
X122600000Y-100000000D03*
X122600000Y-101700000D03*
X127400000Y-101700000D03*
X127400000Y-100000000D03*
X127400000Y-98300000D03*
%TD*%
%TO.C,D61*%
X82600000Y-88300000D03*
X82600000Y-90000000D03*
X82600000Y-91700000D03*
X87400000Y-91700000D03*
X87400000Y-90000000D03*
X87400000Y-88300000D03*
%TD*%
%TO.C,D78*%
X152600000Y-98300000D03*
X152600000Y-100000000D03*
X152600000Y-101700000D03*
X157400000Y-101700000D03*
X157400000Y-100000000D03*
X157400000Y-98300000D03*
%TD*%
%TO.C,D23*%
X102600000Y-48300000D03*
X102600000Y-50000000D03*
X102600000Y-51700000D03*
X107400000Y-51700000D03*
X107400000Y-50000000D03*
X107400000Y-48300000D03*
%TD*%
%TO.C,D88*%
X152600000Y-108300000D03*
X152600000Y-110000000D03*
X152600000Y-111700000D03*
X157400000Y-111700000D03*
X157400000Y-110000000D03*
X157400000Y-108300000D03*
%TD*%
%TO.C,D58*%
X152600000Y-78300000D03*
X152600000Y-80000000D03*
X152600000Y-81700000D03*
X157400000Y-81700000D03*
X157400000Y-80000000D03*
X157400000Y-78300000D03*
%TD*%
%TO.C,D86*%
X132600000Y-108300000D03*
X132600000Y-110000000D03*
X132600000Y-111700000D03*
X137400000Y-111700000D03*
X137400000Y-110000000D03*
X137400000Y-108300000D03*
%TD*%
%TO.C,D60*%
X172600000Y-78300000D03*
X172600000Y-80000000D03*
X172600000Y-81700000D03*
X177400000Y-81700000D03*
X177400000Y-80000000D03*
X177400000Y-78300000D03*
%TD*%
%TO.C,D21*%
X82600000Y-48300000D03*
X82600000Y-50000000D03*
X82600000Y-51700000D03*
X87400000Y-51700000D03*
X87400000Y-50000000D03*
X87400000Y-48300000D03*
%TD*%
%TO.C,D33*%
X102600000Y-58300000D03*
X102600000Y-60000000D03*
X102600000Y-61700000D03*
X107400000Y-61700000D03*
X107400000Y-60000000D03*
X107400000Y-58300000D03*
%TD*%
%TO.C,D4*%
X112600000Y-28300000D03*
X112600000Y-30000000D03*
X112600000Y-31700000D03*
X117400000Y-31700000D03*
X117400000Y-30000000D03*
X117400000Y-28300000D03*
%TD*%
%TO.C,D68*%
X152600000Y-88300000D03*
X152600000Y-90000000D03*
X152600000Y-91700000D03*
X157400000Y-91700000D03*
X157400000Y-90000000D03*
X157400000Y-88300000D03*
%TD*%
%TO.C,D27*%
X142600000Y-48300000D03*
X142600000Y-50000000D03*
X142600000Y-51700000D03*
X147400000Y-51700000D03*
X147400000Y-50000000D03*
X147400000Y-48300000D03*
%TD*%
%TO.C,D50*%
X172600000Y-68300000D03*
X172600000Y-70000000D03*
X172600000Y-71700000D03*
X177400000Y-71700000D03*
X177400000Y-70000000D03*
X177400000Y-68300000D03*
%TD*%
%TO.C,D24*%
X112600000Y-48300000D03*
X112600000Y-50000000D03*
X112600000Y-51700000D03*
X117400000Y-51700000D03*
X117400000Y-50000000D03*
X117400000Y-48300000D03*
%TD*%
%TO.C,D100*%
X172600000Y-118300000D03*
X172600000Y-120000000D03*
X172600000Y-121700000D03*
X177400000Y-121700000D03*
X177400000Y-120000000D03*
X177400000Y-118300000D03*
%TD*%
%TO.C,D79*%
X162600000Y-98300000D03*
X162600000Y-100000000D03*
X162600000Y-101700000D03*
X167400000Y-101700000D03*
X167400000Y-100000000D03*
X167400000Y-98300000D03*
%TD*%
%TO.C,D54*%
X112600000Y-78300000D03*
X112600000Y-80000000D03*
X112600000Y-81700000D03*
X117400000Y-81700000D03*
X117400000Y-80000000D03*
X117400000Y-78300000D03*
%TD*%
%TO.C,D99*%
X162600000Y-118300000D03*
X162600000Y-120000000D03*
X162600000Y-121700000D03*
X167400000Y-121700000D03*
X167400000Y-120000000D03*
X167400000Y-118300000D03*
%TD*%
%TO.C,D20*%
X172600000Y-38300000D03*
X172600000Y-40000000D03*
X172600000Y-41700000D03*
X177400000Y-41700000D03*
X177400000Y-40000000D03*
X177400000Y-38300000D03*
%TD*%
%TO.C,D89*%
X162600000Y-108300000D03*
X162600000Y-110000000D03*
X162600000Y-111700000D03*
X167400000Y-111700000D03*
X167400000Y-110000000D03*
X167400000Y-108300000D03*
%TD*%
%TO.C,D12*%
X92600000Y-38300000D03*
X92600000Y-40000000D03*
X92600000Y-41700000D03*
X97400000Y-41700000D03*
X97400000Y-40000000D03*
X97400000Y-38300000D03*
%TD*%
%TO.C,D48*%
X152600000Y-68300000D03*
X152600000Y-70000000D03*
X152600000Y-71700000D03*
X157400000Y-71700000D03*
X157400000Y-70000000D03*
X157400000Y-68300000D03*
%TD*%
%TO.C,D93*%
X102600000Y-118300000D03*
X102600000Y-120000000D03*
X102600000Y-121700000D03*
X107400000Y-121700000D03*
X107400000Y-120000000D03*
X107400000Y-118300000D03*
%TD*%
%TO.C,D63*%
X102600000Y-88300000D03*
X102600000Y-90000000D03*
X102600000Y-91700000D03*
X107400000Y-91700000D03*
X107400000Y-90000000D03*
X107400000Y-88300000D03*
%TD*%
%TO.C,D91*%
X82600000Y-118300000D03*
X82600000Y-120000000D03*
X82600000Y-121700000D03*
X87400000Y-121700000D03*
X87400000Y-120000000D03*
X87400000Y-118300000D03*
%TD*%
%TO.C,D56*%
X132600000Y-78300000D03*
X132600000Y-80000000D03*
X132600000Y-81700000D03*
X137400000Y-81700000D03*
X137400000Y-80000000D03*
X137400000Y-78300000D03*
%TD*%
%TO.C,D28*%
X152600000Y-48300000D03*
X152600000Y-50000000D03*
X152600000Y-51700000D03*
X157400000Y-51700000D03*
X157400000Y-50000000D03*
X157400000Y-48300000D03*
%TD*%
%TO.C,D59*%
X162600000Y-78300000D03*
X162600000Y-80000000D03*
X162600000Y-81700000D03*
X167400000Y-81700000D03*
X167400000Y-80000000D03*
X167400000Y-78300000D03*
%TD*%
%TO.C,D37*%
X142600000Y-58300000D03*
X142600000Y-60000000D03*
X142600000Y-61700000D03*
X147400000Y-61700000D03*
X147400000Y-60000000D03*
X147400000Y-58300000D03*
%TD*%
%TO.C,D19*%
X162600000Y-38300000D03*
X162600000Y-40000000D03*
X162600000Y-41700000D03*
X167400000Y-41700000D03*
X167400000Y-40000000D03*
X167400000Y-38300000D03*
%TD*%
%TO.C,D44*%
X112600000Y-68300000D03*
X112600000Y-70000000D03*
X112600000Y-71700000D03*
X117400000Y-71700000D03*
X117400000Y-70000000D03*
X117400000Y-68300000D03*
%TD*%
%TO.C,D77*%
X142600000Y-98300000D03*
X142600000Y-100000000D03*
X142600000Y-101700000D03*
X147400000Y-101700000D03*
X147400000Y-100000000D03*
X147400000Y-98300000D03*
%TD*%
%TO.C,D74*%
X112600000Y-98300000D03*
X112600000Y-100000000D03*
X112600000Y-101700000D03*
X117400000Y-101700000D03*
X117400000Y-100000000D03*
X117400000Y-98300000D03*
%TD*%
%TO.C,D66*%
X132600000Y-88300000D03*
X132600000Y-90000000D03*
X132600000Y-91700000D03*
X137400000Y-91700000D03*
X137400000Y-90000000D03*
X137400000Y-88300000D03*
%TD*%
%TO.C,D94*%
X112600000Y-118300000D03*
X112600000Y-120000000D03*
X112600000Y-121700000D03*
X117400000Y-121700000D03*
X117400000Y-120000000D03*
X117400000Y-118300000D03*
%TD*%
%TO.C,D36*%
X132600000Y-58300000D03*
X132600000Y-60000000D03*
X132600000Y-61700000D03*
X137400000Y-61700000D03*
X137400000Y-60000000D03*
X137400000Y-58300000D03*
%TD*%
%TO.C,D29*%
X162600000Y-48300000D03*
X162600000Y-50000000D03*
X162600000Y-51700000D03*
X167400000Y-51700000D03*
X167400000Y-50000000D03*
X167400000Y-48300000D03*
%TD*%
%TO.C,D10*%
X172600000Y-28300000D03*
X172600000Y-30000000D03*
X172600000Y-31700000D03*
X177400000Y-31700000D03*
X177400000Y-30000000D03*
X177400000Y-28300000D03*
%TD*%
%TO.C,D47*%
X142600000Y-68300000D03*
X142600000Y-70000000D03*
X142600000Y-71700000D03*
X147400000Y-71700000D03*
X147400000Y-70000000D03*
X147400000Y-68300000D03*
%TD*%
%TO.C,D18*%
X152600000Y-38300000D03*
X152600000Y-40000000D03*
X152600000Y-41700000D03*
X157400000Y-41700000D03*
X157400000Y-40000000D03*
X157400000Y-38300000D03*
%TD*%
%TO.C,D49*%
X162600000Y-68300000D03*
X162600000Y-70000000D03*
X162600000Y-71700000D03*
X167400000Y-71700000D03*
X167400000Y-70000000D03*
X167400000Y-68300000D03*
%TD*%
%TO.C,D2*%
X92650000Y-28300000D03*
X92650000Y-30000000D03*
X92650000Y-31700000D03*
X97450000Y-31700000D03*
X97450000Y-30000000D03*
X97450000Y-28300000D03*
%TD*%
%TO.C,D13*%
X102600000Y-38300000D03*
X102600000Y-40000000D03*
X102600000Y-41700000D03*
X107400000Y-41700000D03*
X107400000Y-40000000D03*
X107400000Y-38300000D03*
%TD*%
%TO.C,D53*%
X102600000Y-78300000D03*
X102600000Y-80000000D03*
X102600000Y-81700000D03*
X107400000Y-81700000D03*
X107400000Y-80000000D03*
X107400000Y-78300000D03*
%TD*%
%TO.C,D9*%
X162600000Y-28300000D03*
X162600000Y-30000000D03*
X162600000Y-31700000D03*
X167400000Y-31700000D03*
X167400000Y-30000000D03*
X167400000Y-28300000D03*
%TD*%
%TO.C,D14*%
X112600000Y-38300000D03*
X112600000Y-40000000D03*
X112600000Y-41700000D03*
X117400000Y-41700000D03*
X117400000Y-40000000D03*
X117400000Y-38300000D03*
%TD*%
%TO.C,D52*%
X92600000Y-78300000D03*
X92600000Y-80000000D03*
X92600000Y-81700000D03*
X97400000Y-81700000D03*
X97400000Y-80000000D03*
X97400000Y-78300000D03*
%TD*%
%TO.C,D8*%
X152600000Y-28300000D03*
X152600000Y-30000000D03*
X152600000Y-31700000D03*
X157400000Y-31700000D03*
X157400000Y-30000000D03*
X157400000Y-28300000D03*
%TD*%
%TO.C,D87*%
X142600000Y-108300000D03*
X142600000Y-110000000D03*
X142600000Y-111700000D03*
X147400000Y-111700000D03*
X147400000Y-110000000D03*
X147400000Y-108300000D03*
%TD*%
%TO.C,D34*%
X112600000Y-58300000D03*
X112600000Y-60000000D03*
X112600000Y-61700000D03*
X117400000Y-61700000D03*
X117400000Y-60000000D03*
X117400000Y-58300000D03*
%TD*%
%TO.C,D81*%
X82600000Y-108300000D03*
X82600000Y-110000000D03*
X82600000Y-111700000D03*
X87400000Y-111700000D03*
X87400000Y-110000000D03*
X87400000Y-108300000D03*
%TD*%
%TO.C,D70*%
X172600000Y-88300000D03*
X172600000Y-90000000D03*
X172600000Y-91700000D03*
X177400000Y-91700000D03*
X177400000Y-90000000D03*
X177400000Y-88300000D03*
%TD*%
%TO.C,D30*%
X172600000Y-48300000D03*
X172600000Y-50000000D03*
X172600000Y-51700000D03*
X177400000Y-51700000D03*
X177400000Y-50000000D03*
X177400000Y-48300000D03*
%TD*%
%TO.C,D15*%
X122600000Y-38300000D03*
X122600000Y-40000000D03*
X122600000Y-41700000D03*
X127400000Y-41700000D03*
X127400000Y-40000000D03*
X127400000Y-38300000D03*
%TD*%
%TO.C,D26*%
X132600000Y-48300000D03*
X132600000Y-50000000D03*
X132600000Y-51700000D03*
X137400000Y-51700000D03*
X137400000Y-50000000D03*
X137400000Y-48300000D03*
%TD*%
%TO.C,D65*%
X122600000Y-88300000D03*
X122600000Y-90000000D03*
X122600000Y-91700000D03*
X127400000Y-91700000D03*
X127400000Y-90000000D03*
X127400000Y-88300000D03*
%TD*%
%TO.C,D84*%
X112600000Y-108300000D03*
X112600000Y-110000000D03*
X112600000Y-111700000D03*
X117400000Y-111700000D03*
X117400000Y-110000000D03*
X117400000Y-108300000D03*
%TD*%
%TO.C,D45*%
X122600000Y-68300000D03*
X122600000Y-70000000D03*
X122600000Y-71700000D03*
X127400000Y-71700000D03*
X127400000Y-70000000D03*
X127400000Y-68300000D03*
%TD*%
%TO.C,D3*%
X102600000Y-28300000D03*
X102600000Y-30000000D03*
X102600000Y-31700000D03*
X107400000Y-31700000D03*
X107400000Y-30000000D03*
X107400000Y-28300000D03*
%TD*%
%TO.C,D83*%
X102600000Y-108300000D03*
X102600000Y-110000000D03*
X102600000Y-111700000D03*
X107400000Y-111700000D03*
X107400000Y-110000000D03*
X107400000Y-108300000D03*
%TD*%
%TO.C,D42*%
X92600000Y-68300000D03*
X92600000Y-70000000D03*
X92600000Y-71700000D03*
X97400000Y-71700000D03*
X97400000Y-70000000D03*
X97400000Y-68300000D03*
%TD*%
%TO.C,D41*%
X82600000Y-68300000D03*
X82600000Y-70000000D03*
X82600000Y-71700000D03*
X87400000Y-71700000D03*
X87400000Y-70000000D03*
X87400000Y-68300000D03*
%TD*%
%TO.C,D5*%
X122600000Y-28300000D03*
X122600000Y-30000000D03*
X122600000Y-31700000D03*
X127400000Y-31700000D03*
X127400000Y-30000000D03*
X127400000Y-28300000D03*
%TD*%
%TO.C,D38*%
X152600000Y-58300000D03*
X152600000Y-60000000D03*
X152600000Y-61700000D03*
X157400000Y-61700000D03*
X157400000Y-60000000D03*
X157400000Y-58300000D03*
%TD*%
%TO.C,D67*%
X142600000Y-88300000D03*
X142600000Y-90000000D03*
X142600000Y-91700000D03*
X147400000Y-91700000D03*
X147400000Y-90000000D03*
X147400000Y-88300000D03*
%TD*%
%TO.C,D98*%
X152600000Y-118300000D03*
X152600000Y-120000000D03*
X152600000Y-121700000D03*
X157400000Y-121700000D03*
X157400000Y-120000000D03*
X157400000Y-118300000D03*
%TD*%
%TO.C,D85*%
X122600000Y-108300000D03*
X122600000Y-110000000D03*
X122600000Y-111700000D03*
X127400000Y-111700000D03*
X127400000Y-110000000D03*
X127400000Y-108300000D03*
%TD*%
%TO.C,D35*%
X122600000Y-58300000D03*
X122600000Y-60000000D03*
X122600000Y-61700000D03*
X127400000Y-61700000D03*
X127400000Y-60000000D03*
X127400000Y-58300000D03*
%TD*%
%TO.C,D82*%
X92600000Y-108300000D03*
X92600000Y-110000000D03*
X92600000Y-111700000D03*
X97400000Y-111700000D03*
X97400000Y-110000000D03*
X97400000Y-108300000D03*
%TD*%
M02*
