%TF.GenerationSoftware,KiCad,Pcbnew,7.0.7+dfsg-1*%
%TF.CreationDate,2024-03-22T17:08:38+01:00*%
%TF.ProjectId,led_display,6c65645f-6469-4737-906c-61792e6b6963,rev?*%
%TF.SameCoordinates,Original*%
%TF.FileFunction,Paste,Bot*%
%TF.FilePolarity,Positive*%
%FSLAX46Y46*%
G04 Gerber Fmt 4.6, Leading zero omitted, Abs format (unit mm)*
G04 Created by KiCad (PCBNEW 7.0.7+dfsg-1) date 2024-03-22 17:08:38*
%MOMM*%
%LPD*%
G01*
G04 APERTURE LIST*
G04 Aperture macros list*
%AMRoundRect*
0 Rectangle with rounded corners*
0 $1 Rounding radius*
0 $2 $3 $4 $5 $6 $7 $8 $9 X,Y pos of 4 corners*
0 Add a 4 corners polygon primitive as box body*
4,1,4,$2,$3,$4,$5,$6,$7,$8,$9,$2,$3,0*
0 Add four circle primitives for the rounded corners*
1,1,$1+$1,$2,$3*
1,1,$1+$1,$4,$5*
1,1,$1+$1,$6,$7*
1,1,$1+$1,$8,$9*
0 Add four rect primitives between the rounded corners*
20,1,$1+$1,$2,$3,$4,$5,0*
20,1,$1+$1,$4,$5,$6,$7,0*
20,1,$1+$1,$6,$7,$8,$9,0*
20,1,$1+$1,$8,$9,$2,$3,0*%
G04 Aperture macros list end*
%ADD10RoundRect,0.250000X0.325000X0.650000X-0.325000X0.650000X-0.325000X-0.650000X0.325000X-0.650000X0*%
%ADD11RoundRect,0.250000X-0.260000X0.315000X-0.260000X-0.315000X0.260000X-0.315000X0.260000X0.315000X0*%
%ADD12RoundRect,0.050000X-0.050000X0.362500X-0.050000X-0.362500X0.050000X-0.362500X0.050000X0.362500X0*%
%ADD13RoundRect,0.050000X-0.362500X0.050000X-0.362500X-0.050000X0.362500X-0.050000X0.362500X0.050000X0*%
%ADD14RoundRect,0.225000X-0.225000X-0.250000X0.225000X-0.250000X0.225000X0.250000X-0.225000X0.250000X0*%
%ADD15RoundRect,0.150000X-0.587500X-0.150000X0.587500X-0.150000X0.587500X0.150000X-0.587500X0.150000X0*%
%ADD16RoundRect,0.250000X0.650000X-0.325000X0.650000X0.325000X-0.650000X0.325000X-0.650000X-0.325000X0*%
%ADD17RoundRect,0.200000X-0.275000X0.200000X-0.275000X-0.200000X0.275000X-0.200000X0.275000X0.200000X0*%
%ADD18RoundRect,0.200000X0.200000X0.275000X-0.200000X0.275000X-0.200000X-0.275000X0.200000X-0.275000X0*%
%ADD19RoundRect,0.225000X0.225000X0.250000X-0.225000X0.250000X-0.225000X-0.250000X0.225000X-0.250000X0*%
%ADD20RoundRect,0.200000X-0.600000X0.200000X-0.600000X-0.200000X0.600000X-0.200000X0.600000X0.200000X0*%
%ADD21RoundRect,0.250001X-1.249999X0.799999X-1.249999X-0.799999X1.249999X-0.799999X1.249999X0.799999X0*%
%ADD22RoundRect,0.150000X0.587500X0.150000X-0.587500X0.150000X-0.587500X-0.150000X0.587500X-0.150000X0*%
%ADD23RoundRect,0.200000X0.275000X-0.200000X0.275000X0.200000X-0.275000X0.200000X-0.275000X-0.200000X0*%
%ADD24RoundRect,0.150000X0.512500X0.150000X-0.512500X0.150000X-0.512500X-0.150000X0.512500X-0.150000X0*%
%ADD25RoundRect,0.200000X-0.200000X-0.275000X0.200000X-0.275000X0.200000X0.275000X-0.200000X0.275000X0*%
%ADD26RoundRect,0.250000X-0.315000X-0.315000X0.315000X-0.315000X0.315000X0.315000X-0.315000X0.315000X0*%
%ADD27RoundRect,0.062500X-0.375000X-0.062500X0.375000X-0.062500X0.375000X0.062500X-0.375000X0.062500X0*%
%ADD28RoundRect,0.062500X-0.062500X-0.375000X0.062500X-0.375000X0.062500X0.375000X-0.062500X0.375000X0*%
%ADD29RoundRect,0.250000X-0.650000X0.325000X-0.650000X-0.325000X0.650000X-0.325000X0.650000X0.325000X0*%
%ADD30RoundRect,0.200000X0.200000X0.600000X-0.200000X0.600000X-0.200000X-0.600000X0.200000X-0.600000X0*%
%ADD31RoundRect,0.250001X0.799999X1.249999X-0.799999X1.249999X-0.799999X-1.249999X0.799999X-1.249999X0*%
%ADD32RoundRect,0.150000X0.650000X0.150000X-0.650000X0.150000X-0.650000X-0.150000X0.650000X-0.150000X0*%
%ADD33R,3.150000X1.000000*%
%ADD34RoundRect,0.200000X-0.200000X-0.600000X0.200000X-0.600000X0.200000X0.600000X-0.200000X0.600000X0*%
%ADD35RoundRect,0.250001X-0.799999X-1.249999X0.799999X-1.249999X0.799999X1.249999X-0.799999X1.249999X0*%
G04 APERTURE END LIST*
D10*
%TO.C,C8*%
X-86102620Y-118400000D03*
X-89052620Y-118400000D03*
%TD*%
D11*
%TO.C,U1*%
X164770000Y-70500000D03*
X163500000Y-70500000D03*
X162230000Y-70500000D03*
X164770000Y-71900000D03*
X163500000Y-71900000D03*
X162230000Y-71900000D03*
D12*
X161100000Y-68737500D03*
X161500000Y-68737500D03*
X161900000Y-68737500D03*
X162300000Y-68737500D03*
X162700000Y-68737500D03*
X163100000Y-68737500D03*
X163500000Y-68737500D03*
X163900000Y-68737500D03*
X164300000Y-68737500D03*
X164700000Y-68737500D03*
X165100000Y-68737500D03*
X165500000Y-68737500D03*
X165900000Y-68737500D03*
D13*
X166462500Y-69400000D03*
X166462500Y-69800000D03*
X166462500Y-70200000D03*
X166462500Y-70600000D03*
X166462500Y-71000000D03*
X166462500Y-71400000D03*
X166462500Y-71800000D03*
X166462500Y-72200000D03*
X166462500Y-72600000D03*
X166462500Y-73000000D03*
D12*
X165900000Y-73662500D03*
X165500000Y-73662500D03*
X165100000Y-73662500D03*
X164700000Y-73662500D03*
X164300000Y-73662500D03*
X163900000Y-73662500D03*
X163500000Y-73662500D03*
X163100000Y-73662500D03*
X162700000Y-73662500D03*
X162300000Y-73662500D03*
X161900000Y-73662500D03*
X161500000Y-73662500D03*
X161100000Y-73662500D03*
D13*
X160537500Y-73000000D03*
X160537500Y-72600000D03*
X160537500Y-72200000D03*
X160537500Y-71800000D03*
X160537500Y-71400000D03*
X160537500Y-71000000D03*
X160537500Y-70600000D03*
X160537500Y-70200000D03*
X160537500Y-69800000D03*
X160537500Y-69400000D03*
%TD*%
D14*
%TO.C,C6*%
X140225000Y-119500000D03*
X141775000Y-119500000D03*
%TD*%
D15*
%TO.C,Q20*%
X175000000Y-108400000D03*
X175000000Y-106500000D03*
X176875000Y-107450000D03*
%TD*%
%TO.C,Q15*%
X126000000Y-87400000D03*
X126000000Y-85500000D03*
X127875000Y-86450000D03*
%TD*%
%TO.C,Q18*%
X156000000Y-87400000D03*
X156000000Y-85500000D03*
X157875000Y-86450000D03*
%TD*%
D16*
%TO.C,C11*%
X75644000Y-152167000D03*
X75644000Y-149217000D03*
%TD*%
D17*
%TO.C,R9*%
X153937500Y-82125000D03*
X153937500Y-83775000D03*
%TD*%
D18*
%TO.C,R18*%
X-121702620Y-96230000D03*
X-123352620Y-96230000D03*
%TD*%
D19*
%TO.C,C14*%
X-104872620Y-113580000D03*
X-106422620Y-113580000D03*
%TD*%
D15*
%TO.C,Q8*%
X156000000Y-83900000D03*
X156000000Y-82000000D03*
X157875000Y-82950000D03*
%TD*%
D17*
%TO.C,R7*%
X133937500Y-82125000D03*
X133937500Y-83775000D03*
%TD*%
D15*
%TO.C,Q1*%
X86000000Y-83900000D03*
X86000000Y-82000000D03*
X87875000Y-82950000D03*
%TD*%
D18*
%TO.C,R19*%
X-134372620Y-81030000D03*
X-136022620Y-81030000D03*
%TD*%
%TO.C,R1*%
X-95972620Y-119230000D03*
X-97622620Y-119230000D03*
%TD*%
D20*
%TO.C,J3*%
X153100000Y-107125000D03*
X153100000Y-108375000D03*
X153100000Y-109625000D03*
X153100000Y-110875000D03*
X153100000Y-112125000D03*
X153100000Y-113375000D03*
X153100000Y-114625000D03*
X153100000Y-115875000D03*
D21*
X156000000Y-104575000D03*
X156000000Y-118425000D03*
%TD*%
D15*
%TO.C,Q3*%
X106000000Y-83900000D03*
X106000000Y-82000000D03*
X107875000Y-82950000D03*
%TD*%
D17*
%TO.C,R5*%
X113937500Y-82125000D03*
X113937500Y-83775000D03*
%TD*%
D18*
%TO.C,R12*%
X-90822620Y-125780000D03*
X-92472620Y-125780000D03*
%TD*%
D10*
%TO.C,C13*%
X-66702620Y-131500000D03*
X-69652620Y-131500000D03*
%TD*%
D19*
%TO.C,C5*%
X128775000Y-120000000D03*
X127225000Y-120000000D03*
%TD*%
D15*
%TO.C,Q16*%
X136000000Y-87400000D03*
X136000000Y-85500000D03*
X137875000Y-86450000D03*
%TD*%
%TO.C,Q13*%
X106000000Y-87400000D03*
X106000000Y-85500000D03*
X107875000Y-86450000D03*
%TD*%
%TO.C,Q2*%
X96000000Y-83900000D03*
X96000000Y-82000000D03*
X97875000Y-82950000D03*
%TD*%
D17*
%TO.C,R6*%
X123937500Y-82125000D03*
X123937500Y-83775000D03*
%TD*%
D10*
%TO.C,C12*%
X-112092620Y-92200000D03*
X-115042620Y-92200000D03*
%TD*%
D18*
%TO.C,R13*%
X-127352620Y-90930000D03*
X-129002620Y-90930000D03*
%TD*%
D10*
%TO.C,C2*%
X-94452620Y-111850000D03*
X-97402620Y-111850000D03*
%TD*%
D22*
%TO.C,Q9*%
X175062500Y-117100000D03*
X175062500Y-119000000D03*
X173187500Y-118050000D03*
%TD*%
D23*
%TO.C,R10*%
X177125000Y-118875000D03*
X177125000Y-117225000D03*
%TD*%
D24*
%TO.C,U4*%
X132775000Y-150000000D03*
X132775000Y-150950000D03*
X132775000Y-151900000D03*
X130500000Y-151900000D03*
X130500000Y-150000000D03*
%TD*%
D15*
%TO.C,Q17*%
X146000000Y-87400000D03*
X146000000Y-85500000D03*
X147875000Y-86450000D03*
%TD*%
D22*
%TO.C,Q19*%
X175062500Y-113600000D03*
X175062500Y-115500000D03*
X173187500Y-114550000D03*
%TD*%
D24*
%TO.C,U5*%
X-86190120Y-121350000D03*
X-86190120Y-122300000D03*
X-86190120Y-123250000D03*
X-88465120Y-123250000D03*
X-88465120Y-121350000D03*
%TD*%
%TO.C,U3*%
X77808500Y-150250000D03*
X77808500Y-152150000D03*
X80083500Y-152150000D03*
X80083500Y-151200000D03*
X80083500Y-150250000D03*
%TD*%
D25*
%TO.C,R16*%
X79899000Y-153740000D03*
X81549000Y-153740000D03*
%TD*%
D10*
%TO.C,C3*%
X126649000Y-58236000D03*
X123699000Y-58236000D03*
%TD*%
D15*
%TO.C,Q7*%
X146000000Y-83900000D03*
X146000000Y-82000000D03*
X147875000Y-82950000D03*
%TD*%
%TO.C,Q12*%
X96000000Y-87400000D03*
X96000000Y-85500000D03*
X97875000Y-86450000D03*
%TD*%
D17*
%TO.C,R4*%
X103937500Y-82125000D03*
X103937500Y-83775000D03*
%TD*%
D25*
%TO.C,R15*%
X78184000Y-153740000D03*
X76534000Y-153740000D03*
%TD*%
D17*
%TO.C,R3*%
X93937500Y-82125000D03*
X93937500Y-83775000D03*
%TD*%
D26*
%TO.C,U2*%
X133000000Y-117700000D03*
X133000000Y-119100000D03*
X133000000Y-120500000D03*
X133000000Y-121900000D03*
X134400000Y-117700000D03*
X134400000Y-119100000D03*
X134400000Y-120500000D03*
X134400000Y-121900000D03*
X135800000Y-117700000D03*
X135800000Y-119100000D03*
X135800000Y-120500000D03*
X135800000Y-121900000D03*
X137200000Y-117700000D03*
X137200000Y-119100000D03*
X137200000Y-120500000D03*
X137200000Y-121900000D03*
D27*
X131662500Y-122550000D03*
X131662500Y-122050000D03*
X131662500Y-121550000D03*
X131662500Y-121050000D03*
X131662500Y-120550000D03*
X131662500Y-120050000D03*
X131662500Y-119550000D03*
X131662500Y-119050000D03*
X131662500Y-118550000D03*
X131662500Y-118050000D03*
X131662500Y-117550000D03*
X131662500Y-117050000D03*
D28*
X132350000Y-116362500D03*
X132850000Y-116362500D03*
X133350000Y-116362500D03*
X133850000Y-116362500D03*
X134350000Y-116362500D03*
X134850000Y-116362500D03*
X135350000Y-116362500D03*
X135850000Y-116362500D03*
X136350000Y-116362500D03*
X136850000Y-116362500D03*
X137350000Y-116362500D03*
X137850000Y-116362500D03*
D27*
X138537500Y-117050000D03*
X138537500Y-117550000D03*
X138537500Y-118050000D03*
X138537500Y-118550000D03*
X138537500Y-119050000D03*
X138537500Y-119550000D03*
X138537500Y-120050000D03*
X138537500Y-120550000D03*
X138537500Y-121050000D03*
X138537500Y-121550000D03*
X138537500Y-122050000D03*
X138537500Y-122550000D03*
D28*
X137850000Y-123237500D03*
X137350000Y-123237500D03*
X136850000Y-123237500D03*
X136350000Y-123237500D03*
X135850000Y-123237500D03*
X135350000Y-123237500D03*
X134850000Y-123237500D03*
X134350000Y-123237500D03*
X133850000Y-123237500D03*
X133350000Y-123237500D03*
X132850000Y-123237500D03*
X132350000Y-123237500D03*
%TD*%
D29*
%TO.C,C7*%
X82248000Y-149217000D03*
X82248000Y-152167000D03*
%TD*%
D15*
%TO.C,Q14*%
X116000000Y-87400000D03*
X116000000Y-85500000D03*
X117875000Y-86450000D03*
%TD*%
D18*
%TO.C,R14*%
X-140882620Y-76580000D03*
X-142532620Y-76580000D03*
%TD*%
D30*
%TO.C,J2*%
X-60092620Y-63230000D03*
X-61342620Y-63230000D03*
X-62592620Y-63230000D03*
X-63842620Y-63230000D03*
X-65092620Y-63230000D03*
X-66342620Y-63230000D03*
X-67592620Y-63230000D03*
X-68842620Y-63230000D03*
D31*
X-57542620Y-66130000D03*
X-71392620Y-66130000D03*
%TD*%
D10*
%TO.C,C9*%
X-27652620Y-131940000D03*
X-30602620Y-131940000D03*
%TD*%
D15*
%TO.C,Q4*%
X116000000Y-83900000D03*
X116000000Y-82000000D03*
X117875000Y-82950000D03*
%TD*%
D32*
%TO.C,U6*%
X142700000Y-108230000D03*
X142700000Y-109500000D03*
X142700000Y-110770000D03*
X142700000Y-112040000D03*
X135500000Y-112040000D03*
X135500000Y-110770000D03*
X135500000Y-109500000D03*
X135500000Y-108230000D03*
%TD*%
D15*
%TO.C,Q11*%
X86000000Y-87400000D03*
X86000000Y-85500000D03*
X87875000Y-86450000D03*
%TD*%
%TO.C,Q6*%
X136000000Y-83900000D03*
X136000000Y-82000000D03*
X137875000Y-82950000D03*
%TD*%
D18*
%TO.C,R20*%
X-59032620Y-78680000D03*
X-60682620Y-78680000D03*
%TD*%
D15*
%TO.C,Q10*%
X175000000Y-104900000D03*
X175000000Y-103000000D03*
X176875000Y-103950000D03*
%TD*%
D17*
%TO.C,R8*%
X143937500Y-82125000D03*
X143937500Y-83775000D03*
%TD*%
%TO.C,R2*%
X83937500Y-82125000D03*
X83937500Y-83775000D03*
%TD*%
D19*
%TO.C,C4*%
X-100032620Y-118390000D03*
X-101582620Y-118390000D03*
%TD*%
%TO.C,C1*%
X-115802620Y-100680000D03*
X-117352620Y-100680000D03*
%TD*%
D33*
%TO.C,J4*%
X127500000Y-112080000D03*
X132550000Y-112080000D03*
X127500000Y-109540000D03*
X132550000Y-109540000D03*
X127500000Y-107000000D03*
X132550000Y-107000000D03*
X127500000Y-104460000D03*
X132550000Y-104460000D03*
X127500000Y-101920000D03*
X132550000Y-101920000D03*
%TD*%
D17*
%TO.C,R11*%
X172937500Y-103125000D03*
X172937500Y-104775000D03*
%TD*%
D19*
%TO.C,C10*%
X-108512620Y-106620000D03*
X-110062620Y-106620000D03*
%TD*%
D15*
%TO.C,Q5*%
X126000000Y-83900000D03*
X126000000Y-82000000D03*
X127875000Y-82950000D03*
%TD*%
D18*
%TO.C,R17*%
X-90822620Y-128290000D03*
X-92472620Y-128290000D03*
%TD*%
D34*
%TO.C,J1*%
X124422000Y-55294000D03*
X125672000Y-55294000D03*
D35*
X121872000Y-52394000D03*
X128222000Y-52394000D03*
%TD*%
M02*
