%TF.GenerationSoftware,KiCad,Pcbnew,7.0.7+dfsg-1*%
%TF.CreationDate,2024-03-22T17:08:38+01:00*%
%TF.ProjectId,led_display,6c65645f-6469-4737-906c-61792e6b6963,rev?*%
%TF.SameCoordinates,Original*%
%TF.FileFunction,Legend,Bot*%
%TF.FilePolarity,Positive*%
%FSLAX46Y46*%
G04 Gerber Fmt 4.6, Leading zero omitted, Abs format (unit mm)*
G04 Created by KiCad (PCBNEW 7.0.7+dfsg-1) date 2024-03-22 17:08:38*
%MOMM*%
%LPD*%
G01*
G04 APERTURE LIST*
%ADD10C,0.150000*%
%ADD11C,0.120000*%
G04 APERTURE END LIST*
D10*
X-87410953Y-116909580D02*
X-87363334Y-116957200D01*
X-87363334Y-116957200D02*
X-87220477Y-117004819D01*
X-87220477Y-117004819D02*
X-87125239Y-117004819D01*
X-87125239Y-117004819D02*
X-86982382Y-116957200D01*
X-86982382Y-116957200D02*
X-86887144Y-116861961D01*
X-86887144Y-116861961D02*
X-86839525Y-116766723D01*
X-86839525Y-116766723D02*
X-86791906Y-116576247D01*
X-86791906Y-116576247D02*
X-86791906Y-116433390D01*
X-86791906Y-116433390D02*
X-86839525Y-116242914D01*
X-86839525Y-116242914D02*
X-86887144Y-116147676D01*
X-86887144Y-116147676D02*
X-86982382Y-116052438D01*
X-86982382Y-116052438D02*
X-87125239Y-116004819D01*
X-87125239Y-116004819D02*
X-87220477Y-116004819D01*
X-87220477Y-116004819D02*
X-87363334Y-116052438D01*
X-87363334Y-116052438D02*
X-87410953Y-116100057D01*
X-87982382Y-116433390D02*
X-87887144Y-116385771D01*
X-87887144Y-116385771D02*
X-87839525Y-116338152D01*
X-87839525Y-116338152D02*
X-87791906Y-116242914D01*
X-87791906Y-116242914D02*
X-87791906Y-116195295D01*
X-87791906Y-116195295D02*
X-87839525Y-116100057D01*
X-87839525Y-116100057D02*
X-87887144Y-116052438D01*
X-87887144Y-116052438D02*
X-87982382Y-116004819D01*
X-87982382Y-116004819D02*
X-88172858Y-116004819D01*
X-88172858Y-116004819D02*
X-88268096Y-116052438D01*
X-88268096Y-116052438D02*
X-88315715Y-116100057D01*
X-88315715Y-116100057D02*
X-88363334Y-116195295D01*
X-88363334Y-116195295D02*
X-88363334Y-116242914D01*
X-88363334Y-116242914D02*
X-88315715Y-116338152D01*
X-88315715Y-116338152D02*
X-88268096Y-116385771D01*
X-88268096Y-116385771D02*
X-88172858Y-116433390D01*
X-88172858Y-116433390D02*
X-87982382Y-116433390D01*
X-87982382Y-116433390D02*
X-87887144Y-116481009D01*
X-87887144Y-116481009D02*
X-87839525Y-116528628D01*
X-87839525Y-116528628D02*
X-87791906Y-116623866D01*
X-87791906Y-116623866D02*
X-87791906Y-116814342D01*
X-87791906Y-116814342D02*
X-87839525Y-116909580D01*
X-87839525Y-116909580D02*
X-87887144Y-116957200D01*
X-87887144Y-116957200D02*
X-87982382Y-117004819D01*
X-87982382Y-117004819D02*
X-88172858Y-117004819D01*
X-88172858Y-117004819D02*
X-88268096Y-116957200D01*
X-88268096Y-116957200D02*
X-88315715Y-116909580D01*
X-88315715Y-116909580D02*
X-88363334Y-116814342D01*
X-88363334Y-116814342D02*
X-88363334Y-116623866D01*
X-88363334Y-116623866D02*
X-88315715Y-116528628D01*
X-88315715Y-116528628D02*
X-88268096Y-116481009D01*
X-88268096Y-116481009D02*
X-88172858Y-116433390D01*
X158634819Y-70438095D02*
X159444342Y-70438095D01*
X159444342Y-70438095D02*
X159539580Y-70485714D01*
X159539580Y-70485714D02*
X159587200Y-70533333D01*
X159587200Y-70533333D02*
X159634819Y-70628571D01*
X159634819Y-70628571D02*
X159634819Y-70819047D01*
X159634819Y-70819047D02*
X159587200Y-70914285D01*
X159587200Y-70914285D02*
X159539580Y-70961904D01*
X159539580Y-70961904D02*
X159444342Y-71009523D01*
X159444342Y-71009523D02*
X158634819Y-71009523D01*
X159634819Y-72009523D02*
X159634819Y-71438095D01*
X159634819Y-71723809D02*
X158634819Y-71723809D01*
X158634819Y-71723809D02*
X158777676Y-71628571D01*
X158777676Y-71628571D02*
X158872914Y-71533333D01*
X158872914Y-71533333D02*
X158920533Y-71438095D01*
X141166666Y-121289580D02*
X141214285Y-121337200D01*
X141214285Y-121337200D02*
X141357142Y-121384819D01*
X141357142Y-121384819D02*
X141452380Y-121384819D01*
X141452380Y-121384819D02*
X141595237Y-121337200D01*
X141595237Y-121337200D02*
X141690475Y-121241961D01*
X141690475Y-121241961D02*
X141738094Y-121146723D01*
X141738094Y-121146723D02*
X141785713Y-120956247D01*
X141785713Y-120956247D02*
X141785713Y-120813390D01*
X141785713Y-120813390D02*
X141738094Y-120622914D01*
X141738094Y-120622914D02*
X141690475Y-120527676D01*
X141690475Y-120527676D02*
X141595237Y-120432438D01*
X141595237Y-120432438D02*
X141452380Y-120384819D01*
X141452380Y-120384819D02*
X141357142Y-120384819D01*
X141357142Y-120384819D02*
X141214285Y-120432438D01*
X141214285Y-120432438D02*
X141166666Y-120480057D01*
X140309523Y-120384819D02*
X140499999Y-120384819D01*
X140499999Y-120384819D02*
X140595237Y-120432438D01*
X140595237Y-120432438D02*
X140642856Y-120480057D01*
X140642856Y-120480057D02*
X140738094Y-120622914D01*
X140738094Y-120622914D02*
X140785713Y-120813390D01*
X140785713Y-120813390D02*
X140785713Y-121194342D01*
X140785713Y-121194342D02*
X140738094Y-121289580D01*
X140738094Y-121289580D02*
X140690475Y-121337200D01*
X140690475Y-121337200D02*
X140595237Y-121384819D01*
X140595237Y-121384819D02*
X140404761Y-121384819D01*
X140404761Y-121384819D02*
X140309523Y-121337200D01*
X140309523Y-121337200D02*
X140261904Y-121289580D01*
X140261904Y-121289580D02*
X140214285Y-121194342D01*
X140214285Y-121194342D02*
X140214285Y-120956247D01*
X140214285Y-120956247D02*
X140261904Y-120861009D01*
X140261904Y-120861009D02*
X140309523Y-120813390D01*
X140309523Y-120813390D02*
X140404761Y-120765771D01*
X140404761Y-120765771D02*
X140595237Y-120765771D01*
X140595237Y-120765771D02*
X140690475Y-120813390D01*
X140690475Y-120813390D02*
X140738094Y-120861009D01*
X140738094Y-120861009D02*
X140785713Y-120956247D01*
X176508928Y-110400057D02*
X176604166Y-110352438D01*
X176604166Y-110352438D02*
X176699404Y-110257200D01*
X176699404Y-110257200D02*
X176842261Y-110114342D01*
X176842261Y-110114342D02*
X176937499Y-110066723D01*
X176937499Y-110066723D02*
X177032737Y-110066723D01*
X176985118Y-110304819D02*
X177080356Y-110257200D01*
X177080356Y-110257200D02*
X177175594Y-110161961D01*
X177175594Y-110161961D02*
X177223213Y-109971485D01*
X177223213Y-109971485D02*
X177223213Y-109638152D01*
X177223213Y-109638152D02*
X177175594Y-109447676D01*
X177175594Y-109447676D02*
X177080356Y-109352438D01*
X177080356Y-109352438D02*
X176985118Y-109304819D01*
X176985118Y-109304819D02*
X176794642Y-109304819D01*
X176794642Y-109304819D02*
X176699404Y-109352438D01*
X176699404Y-109352438D02*
X176604166Y-109447676D01*
X176604166Y-109447676D02*
X176556547Y-109638152D01*
X176556547Y-109638152D02*
X176556547Y-109971485D01*
X176556547Y-109971485D02*
X176604166Y-110161961D01*
X176604166Y-110161961D02*
X176699404Y-110257200D01*
X176699404Y-110257200D02*
X176794642Y-110304819D01*
X176794642Y-110304819D02*
X176985118Y-110304819D01*
X176175594Y-109400057D02*
X176127975Y-109352438D01*
X176127975Y-109352438D02*
X176032737Y-109304819D01*
X176032737Y-109304819D02*
X175794642Y-109304819D01*
X175794642Y-109304819D02*
X175699404Y-109352438D01*
X175699404Y-109352438D02*
X175651785Y-109400057D01*
X175651785Y-109400057D02*
X175604166Y-109495295D01*
X175604166Y-109495295D02*
X175604166Y-109590533D01*
X175604166Y-109590533D02*
X175651785Y-109733390D01*
X175651785Y-109733390D02*
X176223213Y-110304819D01*
X176223213Y-110304819D02*
X175604166Y-110304819D01*
X174985118Y-109304819D02*
X174889880Y-109304819D01*
X174889880Y-109304819D02*
X174794642Y-109352438D01*
X174794642Y-109352438D02*
X174747023Y-109400057D01*
X174747023Y-109400057D02*
X174699404Y-109495295D01*
X174699404Y-109495295D02*
X174651785Y-109685771D01*
X174651785Y-109685771D02*
X174651785Y-109923866D01*
X174651785Y-109923866D02*
X174699404Y-110114342D01*
X174699404Y-110114342D02*
X174747023Y-110209580D01*
X174747023Y-110209580D02*
X174794642Y-110257200D01*
X174794642Y-110257200D02*
X174889880Y-110304819D01*
X174889880Y-110304819D02*
X174985118Y-110304819D01*
X174985118Y-110304819D02*
X175080356Y-110257200D01*
X175080356Y-110257200D02*
X175127975Y-110209580D01*
X175127975Y-110209580D02*
X175175594Y-110114342D01*
X175175594Y-110114342D02*
X175223213Y-109923866D01*
X175223213Y-109923866D02*
X175223213Y-109685771D01*
X175223213Y-109685771D02*
X175175594Y-109495295D01*
X175175594Y-109495295D02*
X175127975Y-109400057D01*
X175127975Y-109400057D02*
X175080356Y-109352438D01*
X175080356Y-109352438D02*
X174985118Y-109304819D01*
X127508928Y-89400057D02*
X127604166Y-89352438D01*
X127604166Y-89352438D02*
X127699404Y-89257200D01*
X127699404Y-89257200D02*
X127842261Y-89114342D01*
X127842261Y-89114342D02*
X127937499Y-89066723D01*
X127937499Y-89066723D02*
X128032737Y-89066723D01*
X127985118Y-89304819D02*
X128080356Y-89257200D01*
X128080356Y-89257200D02*
X128175594Y-89161961D01*
X128175594Y-89161961D02*
X128223213Y-88971485D01*
X128223213Y-88971485D02*
X128223213Y-88638152D01*
X128223213Y-88638152D02*
X128175594Y-88447676D01*
X128175594Y-88447676D02*
X128080356Y-88352438D01*
X128080356Y-88352438D02*
X127985118Y-88304819D01*
X127985118Y-88304819D02*
X127794642Y-88304819D01*
X127794642Y-88304819D02*
X127699404Y-88352438D01*
X127699404Y-88352438D02*
X127604166Y-88447676D01*
X127604166Y-88447676D02*
X127556547Y-88638152D01*
X127556547Y-88638152D02*
X127556547Y-88971485D01*
X127556547Y-88971485D02*
X127604166Y-89161961D01*
X127604166Y-89161961D02*
X127699404Y-89257200D01*
X127699404Y-89257200D02*
X127794642Y-89304819D01*
X127794642Y-89304819D02*
X127985118Y-89304819D01*
X126604166Y-89304819D02*
X127175594Y-89304819D01*
X126889880Y-89304819D02*
X126889880Y-88304819D01*
X126889880Y-88304819D02*
X126985118Y-88447676D01*
X126985118Y-88447676D02*
X127080356Y-88542914D01*
X127080356Y-88542914D02*
X127175594Y-88590533D01*
X125699404Y-88304819D02*
X126175594Y-88304819D01*
X126175594Y-88304819D02*
X126223213Y-88781009D01*
X126223213Y-88781009D02*
X126175594Y-88733390D01*
X126175594Y-88733390D02*
X126080356Y-88685771D01*
X126080356Y-88685771D02*
X125842261Y-88685771D01*
X125842261Y-88685771D02*
X125747023Y-88733390D01*
X125747023Y-88733390D02*
X125699404Y-88781009D01*
X125699404Y-88781009D02*
X125651785Y-88876247D01*
X125651785Y-88876247D02*
X125651785Y-89114342D01*
X125651785Y-89114342D02*
X125699404Y-89209580D01*
X125699404Y-89209580D02*
X125747023Y-89257200D01*
X125747023Y-89257200D02*
X125842261Y-89304819D01*
X125842261Y-89304819D02*
X126080356Y-89304819D01*
X126080356Y-89304819D02*
X126175594Y-89257200D01*
X126175594Y-89257200D02*
X126223213Y-89209580D01*
X157508928Y-89400057D02*
X157604166Y-89352438D01*
X157604166Y-89352438D02*
X157699404Y-89257200D01*
X157699404Y-89257200D02*
X157842261Y-89114342D01*
X157842261Y-89114342D02*
X157937499Y-89066723D01*
X157937499Y-89066723D02*
X158032737Y-89066723D01*
X157985118Y-89304819D02*
X158080356Y-89257200D01*
X158080356Y-89257200D02*
X158175594Y-89161961D01*
X158175594Y-89161961D02*
X158223213Y-88971485D01*
X158223213Y-88971485D02*
X158223213Y-88638152D01*
X158223213Y-88638152D02*
X158175594Y-88447676D01*
X158175594Y-88447676D02*
X158080356Y-88352438D01*
X158080356Y-88352438D02*
X157985118Y-88304819D01*
X157985118Y-88304819D02*
X157794642Y-88304819D01*
X157794642Y-88304819D02*
X157699404Y-88352438D01*
X157699404Y-88352438D02*
X157604166Y-88447676D01*
X157604166Y-88447676D02*
X157556547Y-88638152D01*
X157556547Y-88638152D02*
X157556547Y-88971485D01*
X157556547Y-88971485D02*
X157604166Y-89161961D01*
X157604166Y-89161961D02*
X157699404Y-89257200D01*
X157699404Y-89257200D02*
X157794642Y-89304819D01*
X157794642Y-89304819D02*
X157985118Y-89304819D01*
X156604166Y-89304819D02*
X157175594Y-89304819D01*
X156889880Y-89304819D02*
X156889880Y-88304819D01*
X156889880Y-88304819D02*
X156985118Y-88447676D01*
X156985118Y-88447676D02*
X157080356Y-88542914D01*
X157080356Y-88542914D02*
X157175594Y-88590533D01*
X156032737Y-88733390D02*
X156127975Y-88685771D01*
X156127975Y-88685771D02*
X156175594Y-88638152D01*
X156175594Y-88638152D02*
X156223213Y-88542914D01*
X156223213Y-88542914D02*
X156223213Y-88495295D01*
X156223213Y-88495295D02*
X156175594Y-88400057D01*
X156175594Y-88400057D02*
X156127975Y-88352438D01*
X156127975Y-88352438D02*
X156032737Y-88304819D01*
X156032737Y-88304819D02*
X155842261Y-88304819D01*
X155842261Y-88304819D02*
X155747023Y-88352438D01*
X155747023Y-88352438D02*
X155699404Y-88400057D01*
X155699404Y-88400057D02*
X155651785Y-88495295D01*
X155651785Y-88495295D02*
X155651785Y-88542914D01*
X155651785Y-88542914D02*
X155699404Y-88638152D01*
X155699404Y-88638152D02*
X155747023Y-88685771D01*
X155747023Y-88685771D02*
X155842261Y-88733390D01*
X155842261Y-88733390D02*
X156032737Y-88733390D01*
X156032737Y-88733390D02*
X156127975Y-88781009D01*
X156127975Y-88781009D02*
X156175594Y-88828628D01*
X156175594Y-88828628D02*
X156223213Y-88923866D01*
X156223213Y-88923866D02*
X156223213Y-89114342D01*
X156223213Y-89114342D02*
X156175594Y-89209580D01*
X156175594Y-89209580D02*
X156127975Y-89257200D01*
X156127975Y-89257200D02*
X156032737Y-89304819D01*
X156032737Y-89304819D02*
X155842261Y-89304819D01*
X155842261Y-89304819D02*
X155747023Y-89257200D01*
X155747023Y-89257200D02*
X155699404Y-89209580D01*
X155699404Y-89209580D02*
X155651785Y-89114342D01*
X155651785Y-89114342D02*
X155651785Y-88923866D01*
X155651785Y-88923866D02*
X155699404Y-88828628D01*
X155699404Y-88828628D02*
X155747023Y-88781009D01*
X155747023Y-88781009D02*
X155842261Y-88733390D01*
X77853580Y-150049142D02*
X77901200Y-150001523D01*
X77901200Y-150001523D02*
X77948819Y-149858666D01*
X77948819Y-149858666D02*
X77948819Y-149763428D01*
X77948819Y-149763428D02*
X77901200Y-149620571D01*
X77901200Y-149620571D02*
X77805961Y-149525333D01*
X77805961Y-149525333D02*
X77710723Y-149477714D01*
X77710723Y-149477714D02*
X77520247Y-149430095D01*
X77520247Y-149430095D02*
X77377390Y-149430095D01*
X77377390Y-149430095D02*
X77186914Y-149477714D01*
X77186914Y-149477714D02*
X77091676Y-149525333D01*
X77091676Y-149525333D02*
X76996438Y-149620571D01*
X76996438Y-149620571D02*
X76948819Y-149763428D01*
X76948819Y-149763428D02*
X76948819Y-149858666D01*
X76948819Y-149858666D02*
X76996438Y-150001523D01*
X76996438Y-150001523D02*
X77044057Y-150049142D01*
X77948819Y-151001523D02*
X77948819Y-150430095D01*
X77948819Y-150715809D02*
X76948819Y-150715809D01*
X76948819Y-150715809D02*
X77091676Y-150620571D01*
X77091676Y-150620571D02*
X77186914Y-150525333D01*
X77186914Y-150525333D02*
X77234533Y-150430095D01*
X77948819Y-151953904D02*
X77948819Y-151382476D01*
X77948819Y-151668190D02*
X76948819Y-151668190D01*
X76948819Y-151668190D02*
X77091676Y-151572952D01*
X77091676Y-151572952D02*
X77186914Y-151477714D01*
X77186914Y-151477714D02*
X77234533Y-151382476D01*
X152962319Y-82783333D02*
X152486128Y-82450000D01*
X152962319Y-82211905D02*
X151962319Y-82211905D01*
X151962319Y-82211905D02*
X151962319Y-82592857D01*
X151962319Y-82592857D02*
X152009938Y-82688095D01*
X152009938Y-82688095D02*
X152057557Y-82735714D01*
X152057557Y-82735714D02*
X152152795Y-82783333D01*
X152152795Y-82783333D02*
X152295652Y-82783333D01*
X152295652Y-82783333D02*
X152390890Y-82735714D01*
X152390890Y-82735714D02*
X152438509Y-82688095D01*
X152438509Y-82688095D02*
X152486128Y-82592857D01*
X152486128Y-82592857D02*
X152486128Y-82211905D01*
X152962319Y-83259524D02*
X152962319Y-83450000D01*
X152962319Y-83450000D02*
X152914700Y-83545238D01*
X152914700Y-83545238D02*
X152867080Y-83592857D01*
X152867080Y-83592857D02*
X152724223Y-83688095D01*
X152724223Y-83688095D02*
X152533747Y-83735714D01*
X152533747Y-83735714D02*
X152152795Y-83735714D01*
X152152795Y-83735714D02*
X152057557Y-83688095D01*
X152057557Y-83688095D02*
X152009938Y-83640476D01*
X152009938Y-83640476D02*
X151962319Y-83545238D01*
X151962319Y-83545238D02*
X151962319Y-83354762D01*
X151962319Y-83354762D02*
X152009938Y-83259524D01*
X152009938Y-83259524D02*
X152057557Y-83211905D01*
X152057557Y-83211905D02*
X152152795Y-83164286D01*
X152152795Y-83164286D02*
X152390890Y-83164286D01*
X152390890Y-83164286D02*
X152486128Y-83211905D01*
X152486128Y-83211905D02*
X152533747Y-83259524D01*
X152533747Y-83259524D02*
X152581366Y-83354762D01*
X152581366Y-83354762D02*
X152581366Y-83545238D01*
X152581366Y-83545238D02*
X152533747Y-83640476D01*
X152533747Y-83640476D02*
X152486128Y-83688095D01*
X152486128Y-83688095D02*
X152390890Y-83735714D01*
X-121884762Y-95254819D02*
X-121551429Y-94778628D01*
X-121313334Y-95254819D02*
X-121313334Y-94254819D01*
X-121313334Y-94254819D02*
X-121694286Y-94254819D01*
X-121694286Y-94254819D02*
X-121789524Y-94302438D01*
X-121789524Y-94302438D02*
X-121837143Y-94350057D01*
X-121837143Y-94350057D02*
X-121884762Y-94445295D01*
X-121884762Y-94445295D02*
X-121884762Y-94588152D01*
X-121884762Y-94588152D02*
X-121837143Y-94683390D01*
X-121837143Y-94683390D02*
X-121789524Y-94731009D01*
X-121789524Y-94731009D02*
X-121694286Y-94778628D01*
X-121694286Y-94778628D02*
X-121313334Y-94778628D01*
X-122837143Y-95254819D02*
X-122265715Y-95254819D01*
X-122551429Y-95254819D02*
X-122551429Y-94254819D01*
X-122551429Y-94254819D02*
X-122456191Y-94397676D01*
X-122456191Y-94397676D02*
X-122360953Y-94492914D01*
X-122360953Y-94492914D02*
X-122265715Y-94540533D01*
X-123408572Y-94683390D02*
X-123313334Y-94635771D01*
X-123313334Y-94635771D02*
X-123265715Y-94588152D01*
X-123265715Y-94588152D02*
X-123218096Y-94492914D01*
X-123218096Y-94492914D02*
X-123218096Y-94445295D01*
X-123218096Y-94445295D02*
X-123265715Y-94350057D01*
X-123265715Y-94350057D02*
X-123313334Y-94302438D01*
X-123313334Y-94302438D02*
X-123408572Y-94254819D01*
X-123408572Y-94254819D02*
X-123599048Y-94254819D01*
X-123599048Y-94254819D02*
X-123694286Y-94302438D01*
X-123694286Y-94302438D02*
X-123741905Y-94350057D01*
X-123741905Y-94350057D02*
X-123789524Y-94445295D01*
X-123789524Y-94445295D02*
X-123789524Y-94492914D01*
X-123789524Y-94492914D02*
X-123741905Y-94588152D01*
X-123741905Y-94588152D02*
X-123694286Y-94635771D01*
X-123694286Y-94635771D02*
X-123599048Y-94683390D01*
X-123599048Y-94683390D02*
X-123408572Y-94683390D01*
X-123408572Y-94683390D02*
X-123313334Y-94731009D01*
X-123313334Y-94731009D02*
X-123265715Y-94778628D01*
X-123265715Y-94778628D02*
X-123218096Y-94873866D01*
X-123218096Y-94873866D02*
X-123218096Y-95064342D01*
X-123218096Y-95064342D02*
X-123265715Y-95159580D01*
X-123265715Y-95159580D02*
X-123313334Y-95207200D01*
X-123313334Y-95207200D02*
X-123408572Y-95254819D01*
X-123408572Y-95254819D02*
X-123599048Y-95254819D01*
X-123599048Y-95254819D02*
X-123694286Y-95207200D01*
X-123694286Y-95207200D02*
X-123741905Y-95159580D01*
X-123741905Y-95159580D02*
X-123789524Y-95064342D01*
X-123789524Y-95064342D02*
X-123789524Y-94873866D01*
X-123789524Y-94873866D02*
X-123741905Y-94778628D01*
X-123741905Y-94778628D02*
X-123694286Y-94731009D01*
X-123694286Y-94731009D02*
X-123599048Y-94683390D01*
X-105004762Y-112509580D02*
X-104957143Y-112557200D01*
X-104957143Y-112557200D02*
X-104814286Y-112604819D01*
X-104814286Y-112604819D02*
X-104719048Y-112604819D01*
X-104719048Y-112604819D02*
X-104576191Y-112557200D01*
X-104576191Y-112557200D02*
X-104480953Y-112461961D01*
X-104480953Y-112461961D02*
X-104433334Y-112366723D01*
X-104433334Y-112366723D02*
X-104385715Y-112176247D01*
X-104385715Y-112176247D02*
X-104385715Y-112033390D01*
X-104385715Y-112033390D02*
X-104433334Y-111842914D01*
X-104433334Y-111842914D02*
X-104480953Y-111747676D01*
X-104480953Y-111747676D02*
X-104576191Y-111652438D01*
X-104576191Y-111652438D02*
X-104719048Y-111604819D01*
X-104719048Y-111604819D02*
X-104814286Y-111604819D01*
X-104814286Y-111604819D02*
X-104957143Y-111652438D01*
X-104957143Y-111652438D02*
X-105004762Y-111700057D01*
X-105957143Y-112604819D02*
X-105385715Y-112604819D01*
X-105671429Y-112604819D02*
X-105671429Y-111604819D01*
X-105671429Y-111604819D02*
X-105576191Y-111747676D01*
X-105576191Y-111747676D02*
X-105480953Y-111842914D01*
X-105480953Y-111842914D02*
X-105385715Y-111890533D01*
X-106814286Y-111938152D02*
X-106814286Y-112604819D01*
X-106576191Y-111557200D02*
X-106338096Y-112271485D01*
X-106338096Y-112271485D02*
X-106957143Y-112271485D01*
X157032738Y-85900057D02*
X157127976Y-85852438D01*
X157127976Y-85852438D02*
X157223214Y-85757200D01*
X157223214Y-85757200D02*
X157366071Y-85614342D01*
X157366071Y-85614342D02*
X157461309Y-85566723D01*
X157461309Y-85566723D02*
X157556547Y-85566723D01*
X157508928Y-85804819D02*
X157604166Y-85757200D01*
X157604166Y-85757200D02*
X157699404Y-85661961D01*
X157699404Y-85661961D02*
X157747023Y-85471485D01*
X157747023Y-85471485D02*
X157747023Y-85138152D01*
X157747023Y-85138152D02*
X157699404Y-84947676D01*
X157699404Y-84947676D02*
X157604166Y-84852438D01*
X157604166Y-84852438D02*
X157508928Y-84804819D01*
X157508928Y-84804819D02*
X157318452Y-84804819D01*
X157318452Y-84804819D02*
X157223214Y-84852438D01*
X157223214Y-84852438D02*
X157127976Y-84947676D01*
X157127976Y-84947676D02*
X157080357Y-85138152D01*
X157080357Y-85138152D02*
X157080357Y-85471485D01*
X157080357Y-85471485D02*
X157127976Y-85661961D01*
X157127976Y-85661961D02*
X157223214Y-85757200D01*
X157223214Y-85757200D02*
X157318452Y-85804819D01*
X157318452Y-85804819D02*
X157508928Y-85804819D01*
X156508928Y-85233390D02*
X156604166Y-85185771D01*
X156604166Y-85185771D02*
X156651785Y-85138152D01*
X156651785Y-85138152D02*
X156699404Y-85042914D01*
X156699404Y-85042914D02*
X156699404Y-84995295D01*
X156699404Y-84995295D02*
X156651785Y-84900057D01*
X156651785Y-84900057D02*
X156604166Y-84852438D01*
X156604166Y-84852438D02*
X156508928Y-84804819D01*
X156508928Y-84804819D02*
X156318452Y-84804819D01*
X156318452Y-84804819D02*
X156223214Y-84852438D01*
X156223214Y-84852438D02*
X156175595Y-84900057D01*
X156175595Y-84900057D02*
X156127976Y-84995295D01*
X156127976Y-84995295D02*
X156127976Y-85042914D01*
X156127976Y-85042914D02*
X156175595Y-85138152D01*
X156175595Y-85138152D02*
X156223214Y-85185771D01*
X156223214Y-85185771D02*
X156318452Y-85233390D01*
X156318452Y-85233390D02*
X156508928Y-85233390D01*
X156508928Y-85233390D02*
X156604166Y-85281009D01*
X156604166Y-85281009D02*
X156651785Y-85328628D01*
X156651785Y-85328628D02*
X156699404Y-85423866D01*
X156699404Y-85423866D02*
X156699404Y-85614342D01*
X156699404Y-85614342D02*
X156651785Y-85709580D01*
X156651785Y-85709580D02*
X156604166Y-85757200D01*
X156604166Y-85757200D02*
X156508928Y-85804819D01*
X156508928Y-85804819D02*
X156318452Y-85804819D01*
X156318452Y-85804819D02*
X156223214Y-85757200D01*
X156223214Y-85757200D02*
X156175595Y-85709580D01*
X156175595Y-85709580D02*
X156127976Y-85614342D01*
X156127976Y-85614342D02*
X156127976Y-85423866D01*
X156127976Y-85423866D02*
X156175595Y-85328628D01*
X156175595Y-85328628D02*
X156223214Y-85281009D01*
X156223214Y-85281009D02*
X156318452Y-85233390D01*
X132962319Y-82783333D02*
X132486128Y-82450000D01*
X132962319Y-82211905D02*
X131962319Y-82211905D01*
X131962319Y-82211905D02*
X131962319Y-82592857D01*
X131962319Y-82592857D02*
X132009938Y-82688095D01*
X132009938Y-82688095D02*
X132057557Y-82735714D01*
X132057557Y-82735714D02*
X132152795Y-82783333D01*
X132152795Y-82783333D02*
X132295652Y-82783333D01*
X132295652Y-82783333D02*
X132390890Y-82735714D01*
X132390890Y-82735714D02*
X132438509Y-82688095D01*
X132438509Y-82688095D02*
X132486128Y-82592857D01*
X132486128Y-82592857D02*
X132486128Y-82211905D01*
X131962319Y-83116667D02*
X131962319Y-83783333D01*
X131962319Y-83783333D02*
X132962319Y-83354762D01*
X87032738Y-85900057D02*
X87127976Y-85852438D01*
X87127976Y-85852438D02*
X87223214Y-85757200D01*
X87223214Y-85757200D02*
X87366071Y-85614342D01*
X87366071Y-85614342D02*
X87461309Y-85566723D01*
X87461309Y-85566723D02*
X87556547Y-85566723D01*
X87508928Y-85804819D02*
X87604166Y-85757200D01*
X87604166Y-85757200D02*
X87699404Y-85661961D01*
X87699404Y-85661961D02*
X87747023Y-85471485D01*
X87747023Y-85471485D02*
X87747023Y-85138152D01*
X87747023Y-85138152D02*
X87699404Y-84947676D01*
X87699404Y-84947676D02*
X87604166Y-84852438D01*
X87604166Y-84852438D02*
X87508928Y-84804819D01*
X87508928Y-84804819D02*
X87318452Y-84804819D01*
X87318452Y-84804819D02*
X87223214Y-84852438D01*
X87223214Y-84852438D02*
X87127976Y-84947676D01*
X87127976Y-84947676D02*
X87080357Y-85138152D01*
X87080357Y-85138152D02*
X87080357Y-85471485D01*
X87080357Y-85471485D02*
X87127976Y-85661961D01*
X87127976Y-85661961D02*
X87223214Y-85757200D01*
X87223214Y-85757200D02*
X87318452Y-85804819D01*
X87318452Y-85804819D02*
X87508928Y-85804819D01*
X86127976Y-85804819D02*
X86699404Y-85804819D01*
X86413690Y-85804819D02*
X86413690Y-84804819D01*
X86413690Y-84804819D02*
X86508928Y-84947676D01*
X86508928Y-84947676D02*
X86604166Y-85042914D01*
X86604166Y-85042914D02*
X86699404Y-85090533D01*
X-134554762Y-80054819D02*
X-134221429Y-79578628D01*
X-133983334Y-80054819D02*
X-133983334Y-79054819D01*
X-133983334Y-79054819D02*
X-134364286Y-79054819D01*
X-134364286Y-79054819D02*
X-134459524Y-79102438D01*
X-134459524Y-79102438D02*
X-134507143Y-79150057D01*
X-134507143Y-79150057D02*
X-134554762Y-79245295D01*
X-134554762Y-79245295D02*
X-134554762Y-79388152D01*
X-134554762Y-79388152D02*
X-134507143Y-79483390D01*
X-134507143Y-79483390D02*
X-134459524Y-79531009D01*
X-134459524Y-79531009D02*
X-134364286Y-79578628D01*
X-134364286Y-79578628D02*
X-133983334Y-79578628D01*
X-135507143Y-80054819D02*
X-134935715Y-80054819D01*
X-135221429Y-80054819D02*
X-135221429Y-79054819D01*
X-135221429Y-79054819D02*
X-135126191Y-79197676D01*
X-135126191Y-79197676D02*
X-135030953Y-79292914D01*
X-135030953Y-79292914D02*
X-134935715Y-79340533D01*
X-135983334Y-80054819D02*
X-136173810Y-80054819D01*
X-136173810Y-80054819D02*
X-136269048Y-80007200D01*
X-136269048Y-80007200D02*
X-136316667Y-79959580D01*
X-136316667Y-79959580D02*
X-136411905Y-79816723D01*
X-136411905Y-79816723D02*
X-136459524Y-79626247D01*
X-136459524Y-79626247D02*
X-136459524Y-79245295D01*
X-136459524Y-79245295D02*
X-136411905Y-79150057D01*
X-136411905Y-79150057D02*
X-136364286Y-79102438D01*
X-136364286Y-79102438D02*
X-136269048Y-79054819D01*
X-136269048Y-79054819D02*
X-136078572Y-79054819D01*
X-136078572Y-79054819D02*
X-135983334Y-79102438D01*
X-135983334Y-79102438D02*
X-135935715Y-79150057D01*
X-135935715Y-79150057D02*
X-135888096Y-79245295D01*
X-135888096Y-79245295D02*
X-135888096Y-79483390D01*
X-135888096Y-79483390D02*
X-135935715Y-79578628D01*
X-135935715Y-79578628D02*
X-135983334Y-79626247D01*
X-135983334Y-79626247D02*
X-136078572Y-79673866D01*
X-136078572Y-79673866D02*
X-136269048Y-79673866D01*
X-136269048Y-79673866D02*
X-136364286Y-79626247D01*
X-136364286Y-79626247D02*
X-136411905Y-79578628D01*
X-136411905Y-79578628D02*
X-136459524Y-79483390D01*
X-96630953Y-118254819D02*
X-96297620Y-117778628D01*
X-96059525Y-118254819D02*
X-96059525Y-117254819D01*
X-96059525Y-117254819D02*
X-96440477Y-117254819D01*
X-96440477Y-117254819D02*
X-96535715Y-117302438D01*
X-96535715Y-117302438D02*
X-96583334Y-117350057D01*
X-96583334Y-117350057D02*
X-96630953Y-117445295D01*
X-96630953Y-117445295D02*
X-96630953Y-117588152D01*
X-96630953Y-117588152D02*
X-96583334Y-117683390D01*
X-96583334Y-117683390D02*
X-96535715Y-117731009D01*
X-96535715Y-117731009D02*
X-96440477Y-117778628D01*
X-96440477Y-117778628D02*
X-96059525Y-117778628D01*
X-97583334Y-118254819D02*
X-97011906Y-118254819D01*
X-97297620Y-118254819D02*
X-97297620Y-117254819D01*
X-97297620Y-117254819D02*
X-97202382Y-117397676D01*
X-97202382Y-117397676D02*
X-97107144Y-117492914D01*
X-97107144Y-117492914D02*
X-97011906Y-117540533D01*
X150554819Y-111166666D02*
X151269104Y-111166666D01*
X151269104Y-111166666D02*
X151411961Y-111119047D01*
X151411961Y-111119047D02*
X151507200Y-111023809D01*
X151507200Y-111023809D02*
X151554819Y-110880952D01*
X151554819Y-110880952D02*
X151554819Y-110785714D01*
X150554819Y-111547619D02*
X150554819Y-112166666D01*
X150554819Y-112166666D02*
X150935771Y-111833333D01*
X150935771Y-111833333D02*
X150935771Y-111976190D01*
X150935771Y-111976190D02*
X150983390Y-112071428D01*
X150983390Y-112071428D02*
X151031009Y-112119047D01*
X151031009Y-112119047D02*
X151126247Y-112166666D01*
X151126247Y-112166666D02*
X151364342Y-112166666D01*
X151364342Y-112166666D02*
X151459580Y-112119047D01*
X151459580Y-112119047D02*
X151507200Y-112071428D01*
X151507200Y-112071428D02*
X151554819Y-111976190D01*
X151554819Y-111976190D02*
X151554819Y-111690476D01*
X151554819Y-111690476D02*
X151507200Y-111595238D01*
X151507200Y-111595238D02*
X151459580Y-111547619D01*
X107032738Y-85900057D02*
X107127976Y-85852438D01*
X107127976Y-85852438D02*
X107223214Y-85757200D01*
X107223214Y-85757200D02*
X107366071Y-85614342D01*
X107366071Y-85614342D02*
X107461309Y-85566723D01*
X107461309Y-85566723D02*
X107556547Y-85566723D01*
X107508928Y-85804819D02*
X107604166Y-85757200D01*
X107604166Y-85757200D02*
X107699404Y-85661961D01*
X107699404Y-85661961D02*
X107747023Y-85471485D01*
X107747023Y-85471485D02*
X107747023Y-85138152D01*
X107747023Y-85138152D02*
X107699404Y-84947676D01*
X107699404Y-84947676D02*
X107604166Y-84852438D01*
X107604166Y-84852438D02*
X107508928Y-84804819D01*
X107508928Y-84804819D02*
X107318452Y-84804819D01*
X107318452Y-84804819D02*
X107223214Y-84852438D01*
X107223214Y-84852438D02*
X107127976Y-84947676D01*
X107127976Y-84947676D02*
X107080357Y-85138152D01*
X107080357Y-85138152D02*
X107080357Y-85471485D01*
X107080357Y-85471485D02*
X107127976Y-85661961D01*
X107127976Y-85661961D02*
X107223214Y-85757200D01*
X107223214Y-85757200D02*
X107318452Y-85804819D01*
X107318452Y-85804819D02*
X107508928Y-85804819D01*
X106747023Y-84804819D02*
X106127976Y-84804819D01*
X106127976Y-84804819D02*
X106461309Y-85185771D01*
X106461309Y-85185771D02*
X106318452Y-85185771D01*
X106318452Y-85185771D02*
X106223214Y-85233390D01*
X106223214Y-85233390D02*
X106175595Y-85281009D01*
X106175595Y-85281009D02*
X106127976Y-85376247D01*
X106127976Y-85376247D02*
X106127976Y-85614342D01*
X106127976Y-85614342D02*
X106175595Y-85709580D01*
X106175595Y-85709580D02*
X106223214Y-85757200D01*
X106223214Y-85757200D02*
X106318452Y-85804819D01*
X106318452Y-85804819D02*
X106604166Y-85804819D01*
X106604166Y-85804819D02*
X106699404Y-85757200D01*
X106699404Y-85757200D02*
X106747023Y-85709580D01*
X112962319Y-82783333D02*
X112486128Y-82450000D01*
X112962319Y-82211905D02*
X111962319Y-82211905D01*
X111962319Y-82211905D02*
X111962319Y-82592857D01*
X111962319Y-82592857D02*
X112009938Y-82688095D01*
X112009938Y-82688095D02*
X112057557Y-82735714D01*
X112057557Y-82735714D02*
X112152795Y-82783333D01*
X112152795Y-82783333D02*
X112295652Y-82783333D01*
X112295652Y-82783333D02*
X112390890Y-82735714D01*
X112390890Y-82735714D02*
X112438509Y-82688095D01*
X112438509Y-82688095D02*
X112486128Y-82592857D01*
X112486128Y-82592857D02*
X112486128Y-82211905D01*
X111962319Y-83688095D02*
X111962319Y-83211905D01*
X111962319Y-83211905D02*
X112438509Y-83164286D01*
X112438509Y-83164286D02*
X112390890Y-83211905D01*
X112390890Y-83211905D02*
X112343271Y-83307143D01*
X112343271Y-83307143D02*
X112343271Y-83545238D01*
X112343271Y-83545238D02*
X112390890Y-83640476D01*
X112390890Y-83640476D02*
X112438509Y-83688095D01*
X112438509Y-83688095D02*
X112533747Y-83735714D01*
X112533747Y-83735714D02*
X112771842Y-83735714D01*
X112771842Y-83735714D02*
X112867080Y-83688095D01*
X112867080Y-83688095D02*
X112914700Y-83640476D01*
X112914700Y-83640476D02*
X112962319Y-83545238D01*
X112962319Y-83545238D02*
X112962319Y-83307143D01*
X112962319Y-83307143D02*
X112914700Y-83211905D01*
X112914700Y-83211905D02*
X112867080Y-83164286D01*
X-91004762Y-124804819D02*
X-90671429Y-124328628D01*
X-90433334Y-124804819D02*
X-90433334Y-123804819D01*
X-90433334Y-123804819D02*
X-90814286Y-123804819D01*
X-90814286Y-123804819D02*
X-90909524Y-123852438D01*
X-90909524Y-123852438D02*
X-90957143Y-123900057D01*
X-90957143Y-123900057D02*
X-91004762Y-123995295D01*
X-91004762Y-123995295D02*
X-91004762Y-124138152D01*
X-91004762Y-124138152D02*
X-90957143Y-124233390D01*
X-90957143Y-124233390D02*
X-90909524Y-124281009D01*
X-90909524Y-124281009D02*
X-90814286Y-124328628D01*
X-90814286Y-124328628D02*
X-90433334Y-124328628D01*
X-91957143Y-124804819D02*
X-91385715Y-124804819D01*
X-91671429Y-124804819D02*
X-91671429Y-123804819D01*
X-91671429Y-123804819D02*
X-91576191Y-123947676D01*
X-91576191Y-123947676D02*
X-91480953Y-124042914D01*
X-91480953Y-124042914D02*
X-91385715Y-124090533D01*
X-92338096Y-123900057D02*
X-92385715Y-123852438D01*
X-92385715Y-123852438D02*
X-92480953Y-123804819D01*
X-92480953Y-123804819D02*
X-92719048Y-123804819D01*
X-92719048Y-123804819D02*
X-92814286Y-123852438D01*
X-92814286Y-123852438D02*
X-92861905Y-123900057D01*
X-92861905Y-123900057D02*
X-92909524Y-123995295D01*
X-92909524Y-123995295D02*
X-92909524Y-124090533D01*
X-92909524Y-124090533D02*
X-92861905Y-124233390D01*
X-92861905Y-124233390D02*
X-92290477Y-124804819D01*
X-92290477Y-124804819D02*
X-92909524Y-124804819D01*
X-67534762Y-130009580D02*
X-67487143Y-130057200D01*
X-67487143Y-130057200D02*
X-67344286Y-130104819D01*
X-67344286Y-130104819D02*
X-67249048Y-130104819D01*
X-67249048Y-130104819D02*
X-67106191Y-130057200D01*
X-67106191Y-130057200D02*
X-67010953Y-129961961D01*
X-67010953Y-129961961D02*
X-66963334Y-129866723D01*
X-66963334Y-129866723D02*
X-66915715Y-129676247D01*
X-66915715Y-129676247D02*
X-66915715Y-129533390D01*
X-66915715Y-129533390D02*
X-66963334Y-129342914D01*
X-66963334Y-129342914D02*
X-67010953Y-129247676D01*
X-67010953Y-129247676D02*
X-67106191Y-129152438D01*
X-67106191Y-129152438D02*
X-67249048Y-129104819D01*
X-67249048Y-129104819D02*
X-67344286Y-129104819D01*
X-67344286Y-129104819D02*
X-67487143Y-129152438D01*
X-67487143Y-129152438D02*
X-67534762Y-129200057D01*
X-68487143Y-130104819D02*
X-67915715Y-130104819D01*
X-68201429Y-130104819D02*
X-68201429Y-129104819D01*
X-68201429Y-129104819D02*
X-68106191Y-129247676D01*
X-68106191Y-129247676D02*
X-68010953Y-129342914D01*
X-68010953Y-129342914D02*
X-67915715Y-129390533D01*
X-68820477Y-129104819D02*
X-69439524Y-129104819D01*
X-69439524Y-129104819D02*
X-69106191Y-129485771D01*
X-69106191Y-129485771D02*
X-69249048Y-129485771D01*
X-69249048Y-129485771D02*
X-69344286Y-129533390D01*
X-69344286Y-129533390D02*
X-69391905Y-129581009D01*
X-69391905Y-129581009D02*
X-69439524Y-129676247D01*
X-69439524Y-129676247D02*
X-69439524Y-129914342D01*
X-69439524Y-129914342D02*
X-69391905Y-130009580D01*
X-69391905Y-130009580D02*
X-69344286Y-130057200D01*
X-69344286Y-130057200D02*
X-69249048Y-130104819D01*
X-69249048Y-130104819D02*
X-68963334Y-130104819D01*
X-68963334Y-130104819D02*
X-68868096Y-130057200D01*
X-68868096Y-130057200D02*
X-68820477Y-130009580D01*
X128166666Y-118929580D02*
X128214285Y-118977200D01*
X128214285Y-118977200D02*
X128357142Y-119024819D01*
X128357142Y-119024819D02*
X128452380Y-119024819D01*
X128452380Y-119024819D02*
X128595237Y-118977200D01*
X128595237Y-118977200D02*
X128690475Y-118881961D01*
X128690475Y-118881961D02*
X128738094Y-118786723D01*
X128738094Y-118786723D02*
X128785713Y-118596247D01*
X128785713Y-118596247D02*
X128785713Y-118453390D01*
X128785713Y-118453390D02*
X128738094Y-118262914D01*
X128738094Y-118262914D02*
X128690475Y-118167676D01*
X128690475Y-118167676D02*
X128595237Y-118072438D01*
X128595237Y-118072438D02*
X128452380Y-118024819D01*
X128452380Y-118024819D02*
X128357142Y-118024819D01*
X128357142Y-118024819D02*
X128214285Y-118072438D01*
X128214285Y-118072438D02*
X128166666Y-118120057D01*
X127261904Y-118024819D02*
X127738094Y-118024819D01*
X127738094Y-118024819D02*
X127785713Y-118501009D01*
X127785713Y-118501009D02*
X127738094Y-118453390D01*
X127738094Y-118453390D02*
X127642856Y-118405771D01*
X127642856Y-118405771D02*
X127404761Y-118405771D01*
X127404761Y-118405771D02*
X127309523Y-118453390D01*
X127309523Y-118453390D02*
X127261904Y-118501009D01*
X127261904Y-118501009D02*
X127214285Y-118596247D01*
X127214285Y-118596247D02*
X127214285Y-118834342D01*
X127214285Y-118834342D02*
X127261904Y-118929580D01*
X127261904Y-118929580D02*
X127309523Y-118977200D01*
X127309523Y-118977200D02*
X127404761Y-119024819D01*
X127404761Y-119024819D02*
X127642856Y-119024819D01*
X127642856Y-119024819D02*
X127738094Y-118977200D01*
X127738094Y-118977200D02*
X127785713Y-118929580D01*
X137508928Y-89400057D02*
X137604166Y-89352438D01*
X137604166Y-89352438D02*
X137699404Y-89257200D01*
X137699404Y-89257200D02*
X137842261Y-89114342D01*
X137842261Y-89114342D02*
X137937499Y-89066723D01*
X137937499Y-89066723D02*
X138032737Y-89066723D01*
X137985118Y-89304819D02*
X138080356Y-89257200D01*
X138080356Y-89257200D02*
X138175594Y-89161961D01*
X138175594Y-89161961D02*
X138223213Y-88971485D01*
X138223213Y-88971485D02*
X138223213Y-88638152D01*
X138223213Y-88638152D02*
X138175594Y-88447676D01*
X138175594Y-88447676D02*
X138080356Y-88352438D01*
X138080356Y-88352438D02*
X137985118Y-88304819D01*
X137985118Y-88304819D02*
X137794642Y-88304819D01*
X137794642Y-88304819D02*
X137699404Y-88352438D01*
X137699404Y-88352438D02*
X137604166Y-88447676D01*
X137604166Y-88447676D02*
X137556547Y-88638152D01*
X137556547Y-88638152D02*
X137556547Y-88971485D01*
X137556547Y-88971485D02*
X137604166Y-89161961D01*
X137604166Y-89161961D02*
X137699404Y-89257200D01*
X137699404Y-89257200D02*
X137794642Y-89304819D01*
X137794642Y-89304819D02*
X137985118Y-89304819D01*
X136604166Y-89304819D02*
X137175594Y-89304819D01*
X136889880Y-89304819D02*
X136889880Y-88304819D01*
X136889880Y-88304819D02*
X136985118Y-88447676D01*
X136985118Y-88447676D02*
X137080356Y-88542914D01*
X137080356Y-88542914D02*
X137175594Y-88590533D01*
X135747023Y-88304819D02*
X135937499Y-88304819D01*
X135937499Y-88304819D02*
X136032737Y-88352438D01*
X136032737Y-88352438D02*
X136080356Y-88400057D01*
X136080356Y-88400057D02*
X136175594Y-88542914D01*
X136175594Y-88542914D02*
X136223213Y-88733390D01*
X136223213Y-88733390D02*
X136223213Y-89114342D01*
X136223213Y-89114342D02*
X136175594Y-89209580D01*
X136175594Y-89209580D02*
X136127975Y-89257200D01*
X136127975Y-89257200D02*
X136032737Y-89304819D01*
X136032737Y-89304819D02*
X135842261Y-89304819D01*
X135842261Y-89304819D02*
X135747023Y-89257200D01*
X135747023Y-89257200D02*
X135699404Y-89209580D01*
X135699404Y-89209580D02*
X135651785Y-89114342D01*
X135651785Y-89114342D02*
X135651785Y-88876247D01*
X135651785Y-88876247D02*
X135699404Y-88781009D01*
X135699404Y-88781009D02*
X135747023Y-88733390D01*
X135747023Y-88733390D02*
X135842261Y-88685771D01*
X135842261Y-88685771D02*
X136032737Y-88685771D01*
X136032737Y-88685771D02*
X136127975Y-88733390D01*
X136127975Y-88733390D02*
X136175594Y-88781009D01*
X136175594Y-88781009D02*
X136223213Y-88876247D01*
X107508928Y-89400057D02*
X107604166Y-89352438D01*
X107604166Y-89352438D02*
X107699404Y-89257200D01*
X107699404Y-89257200D02*
X107842261Y-89114342D01*
X107842261Y-89114342D02*
X107937499Y-89066723D01*
X107937499Y-89066723D02*
X108032737Y-89066723D01*
X107985118Y-89304819D02*
X108080356Y-89257200D01*
X108080356Y-89257200D02*
X108175594Y-89161961D01*
X108175594Y-89161961D02*
X108223213Y-88971485D01*
X108223213Y-88971485D02*
X108223213Y-88638152D01*
X108223213Y-88638152D02*
X108175594Y-88447676D01*
X108175594Y-88447676D02*
X108080356Y-88352438D01*
X108080356Y-88352438D02*
X107985118Y-88304819D01*
X107985118Y-88304819D02*
X107794642Y-88304819D01*
X107794642Y-88304819D02*
X107699404Y-88352438D01*
X107699404Y-88352438D02*
X107604166Y-88447676D01*
X107604166Y-88447676D02*
X107556547Y-88638152D01*
X107556547Y-88638152D02*
X107556547Y-88971485D01*
X107556547Y-88971485D02*
X107604166Y-89161961D01*
X107604166Y-89161961D02*
X107699404Y-89257200D01*
X107699404Y-89257200D02*
X107794642Y-89304819D01*
X107794642Y-89304819D02*
X107985118Y-89304819D01*
X106604166Y-89304819D02*
X107175594Y-89304819D01*
X106889880Y-89304819D02*
X106889880Y-88304819D01*
X106889880Y-88304819D02*
X106985118Y-88447676D01*
X106985118Y-88447676D02*
X107080356Y-88542914D01*
X107080356Y-88542914D02*
X107175594Y-88590533D01*
X106270832Y-88304819D02*
X105651785Y-88304819D01*
X105651785Y-88304819D02*
X105985118Y-88685771D01*
X105985118Y-88685771D02*
X105842261Y-88685771D01*
X105842261Y-88685771D02*
X105747023Y-88733390D01*
X105747023Y-88733390D02*
X105699404Y-88781009D01*
X105699404Y-88781009D02*
X105651785Y-88876247D01*
X105651785Y-88876247D02*
X105651785Y-89114342D01*
X105651785Y-89114342D02*
X105699404Y-89209580D01*
X105699404Y-89209580D02*
X105747023Y-89257200D01*
X105747023Y-89257200D02*
X105842261Y-89304819D01*
X105842261Y-89304819D02*
X106127975Y-89304819D01*
X106127975Y-89304819D02*
X106223213Y-89257200D01*
X106223213Y-89257200D02*
X106270832Y-89209580D01*
X97032738Y-85900057D02*
X97127976Y-85852438D01*
X97127976Y-85852438D02*
X97223214Y-85757200D01*
X97223214Y-85757200D02*
X97366071Y-85614342D01*
X97366071Y-85614342D02*
X97461309Y-85566723D01*
X97461309Y-85566723D02*
X97556547Y-85566723D01*
X97508928Y-85804819D02*
X97604166Y-85757200D01*
X97604166Y-85757200D02*
X97699404Y-85661961D01*
X97699404Y-85661961D02*
X97747023Y-85471485D01*
X97747023Y-85471485D02*
X97747023Y-85138152D01*
X97747023Y-85138152D02*
X97699404Y-84947676D01*
X97699404Y-84947676D02*
X97604166Y-84852438D01*
X97604166Y-84852438D02*
X97508928Y-84804819D01*
X97508928Y-84804819D02*
X97318452Y-84804819D01*
X97318452Y-84804819D02*
X97223214Y-84852438D01*
X97223214Y-84852438D02*
X97127976Y-84947676D01*
X97127976Y-84947676D02*
X97080357Y-85138152D01*
X97080357Y-85138152D02*
X97080357Y-85471485D01*
X97080357Y-85471485D02*
X97127976Y-85661961D01*
X97127976Y-85661961D02*
X97223214Y-85757200D01*
X97223214Y-85757200D02*
X97318452Y-85804819D01*
X97318452Y-85804819D02*
X97508928Y-85804819D01*
X96699404Y-84900057D02*
X96651785Y-84852438D01*
X96651785Y-84852438D02*
X96556547Y-84804819D01*
X96556547Y-84804819D02*
X96318452Y-84804819D01*
X96318452Y-84804819D02*
X96223214Y-84852438D01*
X96223214Y-84852438D02*
X96175595Y-84900057D01*
X96175595Y-84900057D02*
X96127976Y-84995295D01*
X96127976Y-84995295D02*
X96127976Y-85090533D01*
X96127976Y-85090533D02*
X96175595Y-85233390D01*
X96175595Y-85233390D02*
X96747023Y-85804819D01*
X96747023Y-85804819D02*
X96127976Y-85804819D01*
X122962319Y-82783333D02*
X122486128Y-82450000D01*
X122962319Y-82211905D02*
X121962319Y-82211905D01*
X121962319Y-82211905D02*
X121962319Y-82592857D01*
X121962319Y-82592857D02*
X122009938Y-82688095D01*
X122009938Y-82688095D02*
X122057557Y-82735714D01*
X122057557Y-82735714D02*
X122152795Y-82783333D01*
X122152795Y-82783333D02*
X122295652Y-82783333D01*
X122295652Y-82783333D02*
X122390890Y-82735714D01*
X122390890Y-82735714D02*
X122438509Y-82688095D01*
X122438509Y-82688095D02*
X122486128Y-82592857D01*
X122486128Y-82592857D02*
X122486128Y-82211905D01*
X121962319Y-83640476D02*
X121962319Y-83450000D01*
X121962319Y-83450000D02*
X122009938Y-83354762D01*
X122009938Y-83354762D02*
X122057557Y-83307143D01*
X122057557Y-83307143D02*
X122200414Y-83211905D01*
X122200414Y-83211905D02*
X122390890Y-83164286D01*
X122390890Y-83164286D02*
X122771842Y-83164286D01*
X122771842Y-83164286D02*
X122867080Y-83211905D01*
X122867080Y-83211905D02*
X122914700Y-83259524D01*
X122914700Y-83259524D02*
X122962319Y-83354762D01*
X122962319Y-83354762D02*
X122962319Y-83545238D01*
X122962319Y-83545238D02*
X122914700Y-83640476D01*
X122914700Y-83640476D02*
X122867080Y-83688095D01*
X122867080Y-83688095D02*
X122771842Y-83735714D01*
X122771842Y-83735714D02*
X122533747Y-83735714D01*
X122533747Y-83735714D02*
X122438509Y-83688095D01*
X122438509Y-83688095D02*
X122390890Y-83640476D01*
X122390890Y-83640476D02*
X122343271Y-83545238D01*
X122343271Y-83545238D02*
X122343271Y-83354762D01*
X122343271Y-83354762D02*
X122390890Y-83259524D01*
X122390890Y-83259524D02*
X122438509Y-83211905D01*
X122438509Y-83211905D02*
X122533747Y-83164286D01*
X-112924762Y-90709580D02*
X-112877143Y-90757200D01*
X-112877143Y-90757200D02*
X-112734286Y-90804819D01*
X-112734286Y-90804819D02*
X-112639048Y-90804819D01*
X-112639048Y-90804819D02*
X-112496191Y-90757200D01*
X-112496191Y-90757200D02*
X-112400953Y-90661961D01*
X-112400953Y-90661961D02*
X-112353334Y-90566723D01*
X-112353334Y-90566723D02*
X-112305715Y-90376247D01*
X-112305715Y-90376247D02*
X-112305715Y-90233390D01*
X-112305715Y-90233390D02*
X-112353334Y-90042914D01*
X-112353334Y-90042914D02*
X-112400953Y-89947676D01*
X-112400953Y-89947676D02*
X-112496191Y-89852438D01*
X-112496191Y-89852438D02*
X-112639048Y-89804819D01*
X-112639048Y-89804819D02*
X-112734286Y-89804819D01*
X-112734286Y-89804819D02*
X-112877143Y-89852438D01*
X-112877143Y-89852438D02*
X-112924762Y-89900057D01*
X-113877143Y-90804819D02*
X-113305715Y-90804819D01*
X-113591429Y-90804819D02*
X-113591429Y-89804819D01*
X-113591429Y-89804819D02*
X-113496191Y-89947676D01*
X-113496191Y-89947676D02*
X-113400953Y-90042914D01*
X-113400953Y-90042914D02*
X-113305715Y-90090533D01*
X-114258096Y-89900057D02*
X-114305715Y-89852438D01*
X-114305715Y-89852438D02*
X-114400953Y-89804819D01*
X-114400953Y-89804819D02*
X-114639048Y-89804819D01*
X-114639048Y-89804819D02*
X-114734286Y-89852438D01*
X-114734286Y-89852438D02*
X-114781905Y-89900057D01*
X-114781905Y-89900057D02*
X-114829524Y-89995295D01*
X-114829524Y-89995295D02*
X-114829524Y-90090533D01*
X-114829524Y-90090533D02*
X-114781905Y-90233390D01*
X-114781905Y-90233390D02*
X-114210477Y-90804819D01*
X-114210477Y-90804819D02*
X-114829524Y-90804819D01*
X-127534762Y-89954819D02*
X-127201429Y-89478628D01*
X-126963334Y-89954819D02*
X-126963334Y-88954819D01*
X-126963334Y-88954819D02*
X-127344286Y-88954819D01*
X-127344286Y-88954819D02*
X-127439524Y-89002438D01*
X-127439524Y-89002438D02*
X-127487143Y-89050057D01*
X-127487143Y-89050057D02*
X-127534762Y-89145295D01*
X-127534762Y-89145295D02*
X-127534762Y-89288152D01*
X-127534762Y-89288152D02*
X-127487143Y-89383390D01*
X-127487143Y-89383390D02*
X-127439524Y-89431009D01*
X-127439524Y-89431009D02*
X-127344286Y-89478628D01*
X-127344286Y-89478628D02*
X-126963334Y-89478628D01*
X-128487143Y-89954819D02*
X-127915715Y-89954819D01*
X-128201429Y-89954819D02*
X-128201429Y-88954819D01*
X-128201429Y-88954819D02*
X-128106191Y-89097676D01*
X-128106191Y-89097676D02*
X-128010953Y-89192914D01*
X-128010953Y-89192914D02*
X-127915715Y-89240533D01*
X-128820477Y-88954819D02*
X-129439524Y-88954819D01*
X-129439524Y-88954819D02*
X-129106191Y-89335771D01*
X-129106191Y-89335771D02*
X-129249048Y-89335771D01*
X-129249048Y-89335771D02*
X-129344286Y-89383390D01*
X-129344286Y-89383390D02*
X-129391905Y-89431009D01*
X-129391905Y-89431009D02*
X-129439524Y-89526247D01*
X-129439524Y-89526247D02*
X-129439524Y-89764342D01*
X-129439524Y-89764342D02*
X-129391905Y-89859580D01*
X-129391905Y-89859580D02*
X-129344286Y-89907200D01*
X-129344286Y-89907200D02*
X-129249048Y-89954819D01*
X-129249048Y-89954819D02*
X-128963334Y-89954819D01*
X-128963334Y-89954819D02*
X-128868096Y-89907200D01*
X-128868096Y-89907200D02*
X-128820477Y-89859580D01*
X-95760953Y-110359580D02*
X-95713334Y-110407200D01*
X-95713334Y-110407200D02*
X-95570477Y-110454819D01*
X-95570477Y-110454819D02*
X-95475239Y-110454819D01*
X-95475239Y-110454819D02*
X-95332382Y-110407200D01*
X-95332382Y-110407200D02*
X-95237144Y-110311961D01*
X-95237144Y-110311961D02*
X-95189525Y-110216723D01*
X-95189525Y-110216723D02*
X-95141906Y-110026247D01*
X-95141906Y-110026247D02*
X-95141906Y-109883390D01*
X-95141906Y-109883390D02*
X-95189525Y-109692914D01*
X-95189525Y-109692914D02*
X-95237144Y-109597676D01*
X-95237144Y-109597676D02*
X-95332382Y-109502438D01*
X-95332382Y-109502438D02*
X-95475239Y-109454819D01*
X-95475239Y-109454819D02*
X-95570477Y-109454819D01*
X-95570477Y-109454819D02*
X-95713334Y-109502438D01*
X-95713334Y-109502438D02*
X-95760953Y-109550057D01*
X-96141906Y-109550057D02*
X-96189525Y-109502438D01*
X-96189525Y-109502438D02*
X-96284763Y-109454819D01*
X-96284763Y-109454819D02*
X-96522858Y-109454819D01*
X-96522858Y-109454819D02*
X-96618096Y-109502438D01*
X-96618096Y-109502438D02*
X-96665715Y-109550057D01*
X-96665715Y-109550057D02*
X-96713334Y-109645295D01*
X-96713334Y-109645295D02*
X-96713334Y-109740533D01*
X-96713334Y-109740533D02*
X-96665715Y-109883390D01*
X-96665715Y-109883390D02*
X-96094287Y-110454819D01*
X-96094287Y-110454819D02*
X-96713334Y-110454819D01*
X174220238Y-116200057D02*
X174315476Y-116152438D01*
X174315476Y-116152438D02*
X174410714Y-116057200D01*
X174410714Y-116057200D02*
X174553571Y-115914342D01*
X174553571Y-115914342D02*
X174648809Y-115866723D01*
X174648809Y-115866723D02*
X174744047Y-115866723D01*
X174696428Y-116104819D02*
X174791666Y-116057200D01*
X174791666Y-116057200D02*
X174886904Y-115961961D01*
X174886904Y-115961961D02*
X174934523Y-115771485D01*
X174934523Y-115771485D02*
X174934523Y-115438152D01*
X174934523Y-115438152D02*
X174886904Y-115247676D01*
X174886904Y-115247676D02*
X174791666Y-115152438D01*
X174791666Y-115152438D02*
X174696428Y-115104819D01*
X174696428Y-115104819D02*
X174505952Y-115104819D01*
X174505952Y-115104819D02*
X174410714Y-115152438D01*
X174410714Y-115152438D02*
X174315476Y-115247676D01*
X174315476Y-115247676D02*
X174267857Y-115438152D01*
X174267857Y-115438152D02*
X174267857Y-115771485D01*
X174267857Y-115771485D02*
X174315476Y-115961961D01*
X174315476Y-115961961D02*
X174410714Y-116057200D01*
X174410714Y-116057200D02*
X174505952Y-116104819D01*
X174505952Y-116104819D02*
X174696428Y-116104819D01*
X173791666Y-116104819D02*
X173601190Y-116104819D01*
X173601190Y-116104819D02*
X173505952Y-116057200D01*
X173505952Y-116057200D02*
X173458333Y-116009580D01*
X173458333Y-116009580D02*
X173363095Y-115866723D01*
X173363095Y-115866723D02*
X173315476Y-115676247D01*
X173315476Y-115676247D02*
X173315476Y-115295295D01*
X173315476Y-115295295D02*
X173363095Y-115200057D01*
X173363095Y-115200057D02*
X173410714Y-115152438D01*
X173410714Y-115152438D02*
X173505952Y-115104819D01*
X173505952Y-115104819D02*
X173696428Y-115104819D01*
X173696428Y-115104819D02*
X173791666Y-115152438D01*
X173791666Y-115152438D02*
X173839285Y-115200057D01*
X173839285Y-115200057D02*
X173886904Y-115295295D01*
X173886904Y-115295295D02*
X173886904Y-115533390D01*
X173886904Y-115533390D02*
X173839285Y-115628628D01*
X173839285Y-115628628D02*
X173791666Y-115676247D01*
X173791666Y-115676247D02*
X173696428Y-115723866D01*
X173696428Y-115723866D02*
X173505952Y-115723866D01*
X173505952Y-115723866D02*
X173410714Y-115676247D01*
X173410714Y-115676247D02*
X173363095Y-115628628D01*
X173363095Y-115628628D02*
X173315476Y-115533390D01*
X179009819Y-117407142D02*
X178533628Y-117073809D01*
X179009819Y-116835714D02*
X178009819Y-116835714D01*
X178009819Y-116835714D02*
X178009819Y-117216666D01*
X178009819Y-117216666D02*
X178057438Y-117311904D01*
X178057438Y-117311904D02*
X178105057Y-117359523D01*
X178105057Y-117359523D02*
X178200295Y-117407142D01*
X178200295Y-117407142D02*
X178343152Y-117407142D01*
X178343152Y-117407142D02*
X178438390Y-117359523D01*
X178438390Y-117359523D02*
X178486009Y-117311904D01*
X178486009Y-117311904D02*
X178533628Y-117216666D01*
X178533628Y-117216666D02*
X178533628Y-116835714D01*
X179009819Y-118359523D02*
X179009819Y-117788095D01*
X179009819Y-118073809D02*
X178009819Y-118073809D01*
X178009819Y-118073809D02*
X178152676Y-117978571D01*
X178152676Y-117978571D02*
X178247914Y-117883333D01*
X178247914Y-117883333D02*
X178295533Y-117788095D01*
X178009819Y-118978571D02*
X178009819Y-119073809D01*
X178009819Y-119073809D02*
X178057438Y-119169047D01*
X178057438Y-119169047D02*
X178105057Y-119216666D01*
X178105057Y-119216666D02*
X178200295Y-119264285D01*
X178200295Y-119264285D02*
X178390771Y-119311904D01*
X178390771Y-119311904D02*
X178628866Y-119311904D01*
X178628866Y-119311904D02*
X178819342Y-119264285D01*
X178819342Y-119264285D02*
X178914580Y-119216666D01*
X178914580Y-119216666D02*
X178962200Y-119169047D01*
X178962200Y-119169047D02*
X179009819Y-119073809D01*
X179009819Y-119073809D02*
X179009819Y-118978571D01*
X179009819Y-118978571D02*
X178962200Y-118883333D01*
X178962200Y-118883333D02*
X178914580Y-118835714D01*
X178914580Y-118835714D02*
X178819342Y-118788095D01*
X178819342Y-118788095D02*
X178628866Y-118740476D01*
X178628866Y-118740476D02*
X178390771Y-118740476D01*
X178390771Y-118740476D02*
X178200295Y-118788095D01*
X178200295Y-118788095D02*
X178105057Y-118835714D01*
X178105057Y-118835714D02*
X178057438Y-118883333D01*
X178057438Y-118883333D02*
X178009819Y-118978571D01*
X132399404Y-148004819D02*
X132399404Y-148814342D01*
X132399404Y-148814342D02*
X132351785Y-148909580D01*
X132351785Y-148909580D02*
X132304166Y-148957200D01*
X132304166Y-148957200D02*
X132208928Y-149004819D01*
X132208928Y-149004819D02*
X132018452Y-149004819D01*
X132018452Y-149004819D02*
X131923214Y-148957200D01*
X131923214Y-148957200D02*
X131875595Y-148909580D01*
X131875595Y-148909580D02*
X131827976Y-148814342D01*
X131827976Y-148814342D02*
X131827976Y-148004819D01*
X130923214Y-148338152D02*
X130923214Y-149004819D01*
X131161309Y-147957200D02*
X131399404Y-148671485D01*
X131399404Y-148671485D02*
X130780357Y-148671485D01*
X147508928Y-89400057D02*
X147604166Y-89352438D01*
X147604166Y-89352438D02*
X147699404Y-89257200D01*
X147699404Y-89257200D02*
X147842261Y-89114342D01*
X147842261Y-89114342D02*
X147937499Y-89066723D01*
X147937499Y-89066723D02*
X148032737Y-89066723D01*
X147985118Y-89304819D02*
X148080356Y-89257200D01*
X148080356Y-89257200D02*
X148175594Y-89161961D01*
X148175594Y-89161961D02*
X148223213Y-88971485D01*
X148223213Y-88971485D02*
X148223213Y-88638152D01*
X148223213Y-88638152D02*
X148175594Y-88447676D01*
X148175594Y-88447676D02*
X148080356Y-88352438D01*
X148080356Y-88352438D02*
X147985118Y-88304819D01*
X147985118Y-88304819D02*
X147794642Y-88304819D01*
X147794642Y-88304819D02*
X147699404Y-88352438D01*
X147699404Y-88352438D02*
X147604166Y-88447676D01*
X147604166Y-88447676D02*
X147556547Y-88638152D01*
X147556547Y-88638152D02*
X147556547Y-88971485D01*
X147556547Y-88971485D02*
X147604166Y-89161961D01*
X147604166Y-89161961D02*
X147699404Y-89257200D01*
X147699404Y-89257200D02*
X147794642Y-89304819D01*
X147794642Y-89304819D02*
X147985118Y-89304819D01*
X146604166Y-89304819D02*
X147175594Y-89304819D01*
X146889880Y-89304819D02*
X146889880Y-88304819D01*
X146889880Y-88304819D02*
X146985118Y-88447676D01*
X146985118Y-88447676D02*
X147080356Y-88542914D01*
X147080356Y-88542914D02*
X147175594Y-88590533D01*
X146270832Y-88304819D02*
X145604166Y-88304819D01*
X145604166Y-88304819D02*
X146032737Y-89304819D01*
X174696428Y-112700057D02*
X174791666Y-112652438D01*
X174791666Y-112652438D02*
X174886904Y-112557200D01*
X174886904Y-112557200D02*
X175029761Y-112414342D01*
X175029761Y-112414342D02*
X175124999Y-112366723D01*
X175124999Y-112366723D02*
X175220237Y-112366723D01*
X175172618Y-112604819D02*
X175267856Y-112557200D01*
X175267856Y-112557200D02*
X175363094Y-112461961D01*
X175363094Y-112461961D02*
X175410713Y-112271485D01*
X175410713Y-112271485D02*
X175410713Y-111938152D01*
X175410713Y-111938152D02*
X175363094Y-111747676D01*
X175363094Y-111747676D02*
X175267856Y-111652438D01*
X175267856Y-111652438D02*
X175172618Y-111604819D01*
X175172618Y-111604819D02*
X174982142Y-111604819D01*
X174982142Y-111604819D02*
X174886904Y-111652438D01*
X174886904Y-111652438D02*
X174791666Y-111747676D01*
X174791666Y-111747676D02*
X174744047Y-111938152D01*
X174744047Y-111938152D02*
X174744047Y-112271485D01*
X174744047Y-112271485D02*
X174791666Y-112461961D01*
X174791666Y-112461961D02*
X174886904Y-112557200D01*
X174886904Y-112557200D02*
X174982142Y-112604819D01*
X174982142Y-112604819D02*
X175172618Y-112604819D01*
X173791666Y-112604819D02*
X174363094Y-112604819D01*
X174077380Y-112604819D02*
X174077380Y-111604819D01*
X174077380Y-111604819D02*
X174172618Y-111747676D01*
X174172618Y-111747676D02*
X174267856Y-111842914D01*
X174267856Y-111842914D02*
X174363094Y-111890533D01*
X173315475Y-112604819D02*
X173124999Y-112604819D01*
X173124999Y-112604819D02*
X173029761Y-112557200D01*
X173029761Y-112557200D02*
X172982142Y-112509580D01*
X172982142Y-112509580D02*
X172886904Y-112366723D01*
X172886904Y-112366723D02*
X172839285Y-112176247D01*
X172839285Y-112176247D02*
X172839285Y-111795295D01*
X172839285Y-111795295D02*
X172886904Y-111700057D01*
X172886904Y-111700057D02*
X172934523Y-111652438D01*
X172934523Y-111652438D02*
X173029761Y-111604819D01*
X173029761Y-111604819D02*
X173220237Y-111604819D01*
X173220237Y-111604819D02*
X173315475Y-111652438D01*
X173315475Y-111652438D02*
X173363094Y-111700057D01*
X173363094Y-111700057D02*
X173410713Y-111795295D01*
X173410713Y-111795295D02*
X173410713Y-112033390D01*
X173410713Y-112033390D02*
X173363094Y-112128628D01*
X173363094Y-112128628D02*
X173315475Y-112176247D01*
X173315475Y-112176247D02*
X173220237Y-112223866D01*
X173220237Y-112223866D02*
X173029761Y-112223866D01*
X173029761Y-112223866D02*
X172934523Y-112176247D01*
X172934523Y-112176247D02*
X172886904Y-112128628D01*
X172886904Y-112128628D02*
X172839285Y-112033390D01*
X-86565715Y-119354819D02*
X-86565715Y-120164342D01*
X-86565715Y-120164342D02*
X-86613334Y-120259580D01*
X-86613334Y-120259580D02*
X-86660953Y-120307200D01*
X-86660953Y-120307200D02*
X-86756191Y-120354819D01*
X-86756191Y-120354819D02*
X-86946667Y-120354819D01*
X-86946667Y-120354819D02*
X-87041905Y-120307200D01*
X-87041905Y-120307200D02*
X-87089524Y-120259580D01*
X-87089524Y-120259580D02*
X-87137143Y-120164342D01*
X-87137143Y-120164342D02*
X-87137143Y-119354819D01*
X-88089524Y-119354819D02*
X-87613334Y-119354819D01*
X-87613334Y-119354819D02*
X-87565715Y-119831009D01*
X-87565715Y-119831009D02*
X-87613334Y-119783390D01*
X-87613334Y-119783390D02*
X-87708572Y-119735771D01*
X-87708572Y-119735771D02*
X-87946667Y-119735771D01*
X-87946667Y-119735771D02*
X-88041905Y-119783390D01*
X-88041905Y-119783390D02*
X-88089524Y-119831009D01*
X-88089524Y-119831009D02*
X-88137143Y-119926247D01*
X-88137143Y-119926247D02*
X-88137143Y-120164342D01*
X-88137143Y-120164342D02*
X-88089524Y-120259580D01*
X-88089524Y-120259580D02*
X-88041905Y-120307200D01*
X-88041905Y-120307200D02*
X-87946667Y-120354819D01*
X-87946667Y-120354819D02*
X-87708572Y-120354819D01*
X-87708572Y-120354819D02*
X-87613334Y-120307200D01*
X-87613334Y-120307200D02*
X-87565715Y-120259580D01*
X79707904Y-148254819D02*
X79707904Y-149064342D01*
X79707904Y-149064342D02*
X79660285Y-149159580D01*
X79660285Y-149159580D02*
X79612666Y-149207200D01*
X79612666Y-149207200D02*
X79517428Y-149254819D01*
X79517428Y-149254819D02*
X79326952Y-149254819D01*
X79326952Y-149254819D02*
X79231714Y-149207200D01*
X79231714Y-149207200D02*
X79184095Y-149159580D01*
X79184095Y-149159580D02*
X79136476Y-149064342D01*
X79136476Y-149064342D02*
X79136476Y-148254819D01*
X78755523Y-148254819D02*
X78136476Y-148254819D01*
X78136476Y-148254819D02*
X78469809Y-148635771D01*
X78469809Y-148635771D02*
X78326952Y-148635771D01*
X78326952Y-148635771D02*
X78231714Y-148683390D01*
X78231714Y-148683390D02*
X78184095Y-148731009D01*
X78184095Y-148731009D02*
X78136476Y-148826247D01*
X78136476Y-148826247D02*
X78136476Y-149064342D01*
X78136476Y-149064342D02*
X78184095Y-149159580D01*
X78184095Y-149159580D02*
X78231714Y-149207200D01*
X78231714Y-149207200D02*
X78326952Y-149254819D01*
X78326952Y-149254819D02*
X78612666Y-149254819D01*
X78612666Y-149254819D02*
X78707904Y-149207200D01*
X78707904Y-149207200D02*
X78755523Y-149159580D01*
X81366857Y-155624819D02*
X81700190Y-155148628D01*
X81938285Y-155624819D02*
X81938285Y-154624819D01*
X81938285Y-154624819D02*
X81557333Y-154624819D01*
X81557333Y-154624819D02*
X81462095Y-154672438D01*
X81462095Y-154672438D02*
X81414476Y-154720057D01*
X81414476Y-154720057D02*
X81366857Y-154815295D01*
X81366857Y-154815295D02*
X81366857Y-154958152D01*
X81366857Y-154958152D02*
X81414476Y-155053390D01*
X81414476Y-155053390D02*
X81462095Y-155101009D01*
X81462095Y-155101009D02*
X81557333Y-155148628D01*
X81557333Y-155148628D02*
X81938285Y-155148628D01*
X80414476Y-155624819D02*
X80985904Y-155624819D01*
X80700190Y-155624819D02*
X80700190Y-154624819D01*
X80700190Y-154624819D02*
X80795428Y-154767676D01*
X80795428Y-154767676D02*
X80890666Y-154862914D01*
X80890666Y-154862914D02*
X80985904Y-154910533D01*
X79557333Y-154624819D02*
X79747809Y-154624819D01*
X79747809Y-154624819D02*
X79843047Y-154672438D01*
X79843047Y-154672438D02*
X79890666Y-154720057D01*
X79890666Y-154720057D02*
X79985904Y-154862914D01*
X79985904Y-154862914D02*
X80033523Y-155053390D01*
X80033523Y-155053390D02*
X80033523Y-155434342D01*
X80033523Y-155434342D02*
X79985904Y-155529580D01*
X79985904Y-155529580D02*
X79938285Y-155577200D01*
X79938285Y-155577200D02*
X79843047Y-155624819D01*
X79843047Y-155624819D02*
X79652571Y-155624819D01*
X79652571Y-155624819D02*
X79557333Y-155577200D01*
X79557333Y-155577200D02*
X79509714Y-155529580D01*
X79509714Y-155529580D02*
X79462095Y-155434342D01*
X79462095Y-155434342D02*
X79462095Y-155196247D01*
X79462095Y-155196247D02*
X79509714Y-155101009D01*
X79509714Y-155101009D02*
X79557333Y-155053390D01*
X79557333Y-155053390D02*
X79652571Y-155005771D01*
X79652571Y-155005771D02*
X79843047Y-155005771D01*
X79843047Y-155005771D02*
X79938285Y-155053390D01*
X79938285Y-155053390D02*
X79985904Y-155101009D01*
X79985904Y-155101009D02*
X80033523Y-155196247D01*
X125340666Y-56745580D02*
X125388285Y-56793200D01*
X125388285Y-56793200D02*
X125531142Y-56840819D01*
X125531142Y-56840819D02*
X125626380Y-56840819D01*
X125626380Y-56840819D02*
X125769237Y-56793200D01*
X125769237Y-56793200D02*
X125864475Y-56697961D01*
X125864475Y-56697961D02*
X125912094Y-56602723D01*
X125912094Y-56602723D02*
X125959713Y-56412247D01*
X125959713Y-56412247D02*
X125959713Y-56269390D01*
X125959713Y-56269390D02*
X125912094Y-56078914D01*
X125912094Y-56078914D02*
X125864475Y-55983676D01*
X125864475Y-55983676D02*
X125769237Y-55888438D01*
X125769237Y-55888438D02*
X125626380Y-55840819D01*
X125626380Y-55840819D02*
X125531142Y-55840819D01*
X125531142Y-55840819D02*
X125388285Y-55888438D01*
X125388285Y-55888438D02*
X125340666Y-55936057D01*
X125007332Y-55840819D02*
X124388285Y-55840819D01*
X124388285Y-55840819D02*
X124721618Y-56221771D01*
X124721618Y-56221771D02*
X124578761Y-56221771D01*
X124578761Y-56221771D02*
X124483523Y-56269390D01*
X124483523Y-56269390D02*
X124435904Y-56317009D01*
X124435904Y-56317009D02*
X124388285Y-56412247D01*
X124388285Y-56412247D02*
X124388285Y-56650342D01*
X124388285Y-56650342D02*
X124435904Y-56745580D01*
X124435904Y-56745580D02*
X124483523Y-56793200D01*
X124483523Y-56793200D02*
X124578761Y-56840819D01*
X124578761Y-56840819D02*
X124864475Y-56840819D01*
X124864475Y-56840819D02*
X124959713Y-56793200D01*
X124959713Y-56793200D02*
X125007332Y-56745580D01*
X147032738Y-85900057D02*
X147127976Y-85852438D01*
X147127976Y-85852438D02*
X147223214Y-85757200D01*
X147223214Y-85757200D02*
X147366071Y-85614342D01*
X147366071Y-85614342D02*
X147461309Y-85566723D01*
X147461309Y-85566723D02*
X147556547Y-85566723D01*
X147508928Y-85804819D02*
X147604166Y-85757200D01*
X147604166Y-85757200D02*
X147699404Y-85661961D01*
X147699404Y-85661961D02*
X147747023Y-85471485D01*
X147747023Y-85471485D02*
X147747023Y-85138152D01*
X147747023Y-85138152D02*
X147699404Y-84947676D01*
X147699404Y-84947676D02*
X147604166Y-84852438D01*
X147604166Y-84852438D02*
X147508928Y-84804819D01*
X147508928Y-84804819D02*
X147318452Y-84804819D01*
X147318452Y-84804819D02*
X147223214Y-84852438D01*
X147223214Y-84852438D02*
X147127976Y-84947676D01*
X147127976Y-84947676D02*
X147080357Y-85138152D01*
X147080357Y-85138152D02*
X147080357Y-85471485D01*
X147080357Y-85471485D02*
X147127976Y-85661961D01*
X147127976Y-85661961D02*
X147223214Y-85757200D01*
X147223214Y-85757200D02*
X147318452Y-85804819D01*
X147318452Y-85804819D02*
X147508928Y-85804819D01*
X146747023Y-84804819D02*
X146080357Y-84804819D01*
X146080357Y-84804819D02*
X146508928Y-85804819D01*
X97508928Y-89400057D02*
X97604166Y-89352438D01*
X97604166Y-89352438D02*
X97699404Y-89257200D01*
X97699404Y-89257200D02*
X97842261Y-89114342D01*
X97842261Y-89114342D02*
X97937499Y-89066723D01*
X97937499Y-89066723D02*
X98032737Y-89066723D01*
X97985118Y-89304819D02*
X98080356Y-89257200D01*
X98080356Y-89257200D02*
X98175594Y-89161961D01*
X98175594Y-89161961D02*
X98223213Y-88971485D01*
X98223213Y-88971485D02*
X98223213Y-88638152D01*
X98223213Y-88638152D02*
X98175594Y-88447676D01*
X98175594Y-88447676D02*
X98080356Y-88352438D01*
X98080356Y-88352438D02*
X97985118Y-88304819D01*
X97985118Y-88304819D02*
X97794642Y-88304819D01*
X97794642Y-88304819D02*
X97699404Y-88352438D01*
X97699404Y-88352438D02*
X97604166Y-88447676D01*
X97604166Y-88447676D02*
X97556547Y-88638152D01*
X97556547Y-88638152D02*
X97556547Y-88971485D01*
X97556547Y-88971485D02*
X97604166Y-89161961D01*
X97604166Y-89161961D02*
X97699404Y-89257200D01*
X97699404Y-89257200D02*
X97794642Y-89304819D01*
X97794642Y-89304819D02*
X97985118Y-89304819D01*
X96604166Y-89304819D02*
X97175594Y-89304819D01*
X96889880Y-89304819D02*
X96889880Y-88304819D01*
X96889880Y-88304819D02*
X96985118Y-88447676D01*
X96985118Y-88447676D02*
X97080356Y-88542914D01*
X97080356Y-88542914D02*
X97175594Y-88590533D01*
X96223213Y-88400057D02*
X96175594Y-88352438D01*
X96175594Y-88352438D02*
X96080356Y-88304819D01*
X96080356Y-88304819D02*
X95842261Y-88304819D01*
X95842261Y-88304819D02*
X95747023Y-88352438D01*
X95747023Y-88352438D02*
X95699404Y-88400057D01*
X95699404Y-88400057D02*
X95651785Y-88495295D01*
X95651785Y-88495295D02*
X95651785Y-88590533D01*
X95651785Y-88590533D02*
X95699404Y-88733390D01*
X95699404Y-88733390D02*
X96270832Y-89304819D01*
X96270832Y-89304819D02*
X95651785Y-89304819D01*
X102962319Y-82783333D02*
X102486128Y-82450000D01*
X102962319Y-82211905D02*
X101962319Y-82211905D01*
X101962319Y-82211905D02*
X101962319Y-82592857D01*
X101962319Y-82592857D02*
X102009938Y-82688095D01*
X102009938Y-82688095D02*
X102057557Y-82735714D01*
X102057557Y-82735714D02*
X102152795Y-82783333D01*
X102152795Y-82783333D02*
X102295652Y-82783333D01*
X102295652Y-82783333D02*
X102390890Y-82735714D01*
X102390890Y-82735714D02*
X102438509Y-82688095D01*
X102438509Y-82688095D02*
X102486128Y-82592857D01*
X102486128Y-82592857D02*
X102486128Y-82211905D01*
X102295652Y-83640476D02*
X102962319Y-83640476D01*
X101914700Y-83402381D02*
X102628985Y-83164286D01*
X102628985Y-83164286D02*
X102628985Y-83783333D01*
X78001857Y-155624819D02*
X78335190Y-155148628D01*
X78573285Y-155624819D02*
X78573285Y-154624819D01*
X78573285Y-154624819D02*
X78192333Y-154624819D01*
X78192333Y-154624819D02*
X78097095Y-154672438D01*
X78097095Y-154672438D02*
X78049476Y-154720057D01*
X78049476Y-154720057D02*
X78001857Y-154815295D01*
X78001857Y-154815295D02*
X78001857Y-154958152D01*
X78001857Y-154958152D02*
X78049476Y-155053390D01*
X78049476Y-155053390D02*
X78097095Y-155101009D01*
X78097095Y-155101009D02*
X78192333Y-155148628D01*
X78192333Y-155148628D02*
X78573285Y-155148628D01*
X77049476Y-155624819D02*
X77620904Y-155624819D01*
X77335190Y-155624819D02*
X77335190Y-154624819D01*
X77335190Y-154624819D02*
X77430428Y-154767676D01*
X77430428Y-154767676D02*
X77525666Y-154862914D01*
X77525666Y-154862914D02*
X77620904Y-154910533D01*
X76144714Y-154624819D02*
X76620904Y-154624819D01*
X76620904Y-154624819D02*
X76668523Y-155101009D01*
X76668523Y-155101009D02*
X76620904Y-155053390D01*
X76620904Y-155053390D02*
X76525666Y-155005771D01*
X76525666Y-155005771D02*
X76287571Y-155005771D01*
X76287571Y-155005771D02*
X76192333Y-155053390D01*
X76192333Y-155053390D02*
X76144714Y-155101009D01*
X76144714Y-155101009D02*
X76097095Y-155196247D01*
X76097095Y-155196247D02*
X76097095Y-155434342D01*
X76097095Y-155434342D02*
X76144714Y-155529580D01*
X76144714Y-155529580D02*
X76192333Y-155577200D01*
X76192333Y-155577200D02*
X76287571Y-155624819D01*
X76287571Y-155624819D02*
X76525666Y-155624819D01*
X76525666Y-155624819D02*
X76620904Y-155577200D01*
X76620904Y-155577200D02*
X76668523Y-155529580D01*
X92962319Y-82783333D02*
X92486128Y-82450000D01*
X92962319Y-82211905D02*
X91962319Y-82211905D01*
X91962319Y-82211905D02*
X91962319Y-82592857D01*
X91962319Y-82592857D02*
X92009938Y-82688095D01*
X92009938Y-82688095D02*
X92057557Y-82735714D01*
X92057557Y-82735714D02*
X92152795Y-82783333D01*
X92152795Y-82783333D02*
X92295652Y-82783333D01*
X92295652Y-82783333D02*
X92390890Y-82735714D01*
X92390890Y-82735714D02*
X92438509Y-82688095D01*
X92438509Y-82688095D02*
X92486128Y-82592857D01*
X92486128Y-82592857D02*
X92486128Y-82211905D01*
X91962319Y-83116667D02*
X91962319Y-83735714D01*
X91962319Y-83735714D02*
X92343271Y-83402381D01*
X92343271Y-83402381D02*
X92343271Y-83545238D01*
X92343271Y-83545238D02*
X92390890Y-83640476D01*
X92390890Y-83640476D02*
X92438509Y-83688095D01*
X92438509Y-83688095D02*
X92533747Y-83735714D01*
X92533747Y-83735714D02*
X92771842Y-83735714D01*
X92771842Y-83735714D02*
X92867080Y-83688095D01*
X92867080Y-83688095D02*
X92914700Y-83640476D01*
X92914700Y-83640476D02*
X92962319Y-83545238D01*
X92962319Y-83545238D02*
X92962319Y-83259524D01*
X92962319Y-83259524D02*
X92914700Y-83164286D01*
X92914700Y-83164286D02*
X92867080Y-83116667D01*
X135861904Y-124074819D02*
X135861904Y-124884342D01*
X135861904Y-124884342D02*
X135814285Y-124979580D01*
X135814285Y-124979580D02*
X135766666Y-125027200D01*
X135766666Y-125027200D02*
X135671428Y-125074819D01*
X135671428Y-125074819D02*
X135480952Y-125074819D01*
X135480952Y-125074819D02*
X135385714Y-125027200D01*
X135385714Y-125027200D02*
X135338095Y-124979580D01*
X135338095Y-124979580D02*
X135290476Y-124884342D01*
X135290476Y-124884342D02*
X135290476Y-124074819D01*
X134861904Y-124170057D02*
X134814285Y-124122438D01*
X134814285Y-124122438D02*
X134719047Y-124074819D01*
X134719047Y-124074819D02*
X134480952Y-124074819D01*
X134480952Y-124074819D02*
X134385714Y-124122438D01*
X134385714Y-124122438D02*
X134338095Y-124170057D01*
X134338095Y-124170057D02*
X134290476Y-124265295D01*
X134290476Y-124265295D02*
X134290476Y-124360533D01*
X134290476Y-124360533D02*
X134338095Y-124503390D01*
X134338095Y-124503390D02*
X134909523Y-125074819D01*
X134909523Y-125074819D02*
X134290476Y-125074819D01*
X80757580Y-150525333D02*
X80805200Y-150477714D01*
X80805200Y-150477714D02*
X80852819Y-150334857D01*
X80852819Y-150334857D02*
X80852819Y-150239619D01*
X80852819Y-150239619D02*
X80805200Y-150096762D01*
X80805200Y-150096762D02*
X80709961Y-150001524D01*
X80709961Y-150001524D02*
X80614723Y-149953905D01*
X80614723Y-149953905D02*
X80424247Y-149906286D01*
X80424247Y-149906286D02*
X80281390Y-149906286D01*
X80281390Y-149906286D02*
X80090914Y-149953905D01*
X80090914Y-149953905D02*
X79995676Y-150001524D01*
X79995676Y-150001524D02*
X79900438Y-150096762D01*
X79900438Y-150096762D02*
X79852819Y-150239619D01*
X79852819Y-150239619D02*
X79852819Y-150334857D01*
X79852819Y-150334857D02*
X79900438Y-150477714D01*
X79900438Y-150477714D02*
X79948057Y-150525333D01*
X79852819Y-150858667D02*
X79852819Y-151525333D01*
X79852819Y-151525333D02*
X80852819Y-151096762D01*
X117508928Y-89400057D02*
X117604166Y-89352438D01*
X117604166Y-89352438D02*
X117699404Y-89257200D01*
X117699404Y-89257200D02*
X117842261Y-89114342D01*
X117842261Y-89114342D02*
X117937499Y-89066723D01*
X117937499Y-89066723D02*
X118032737Y-89066723D01*
X117985118Y-89304819D02*
X118080356Y-89257200D01*
X118080356Y-89257200D02*
X118175594Y-89161961D01*
X118175594Y-89161961D02*
X118223213Y-88971485D01*
X118223213Y-88971485D02*
X118223213Y-88638152D01*
X118223213Y-88638152D02*
X118175594Y-88447676D01*
X118175594Y-88447676D02*
X118080356Y-88352438D01*
X118080356Y-88352438D02*
X117985118Y-88304819D01*
X117985118Y-88304819D02*
X117794642Y-88304819D01*
X117794642Y-88304819D02*
X117699404Y-88352438D01*
X117699404Y-88352438D02*
X117604166Y-88447676D01*
X117604166Y-88447676D02*
X117556547Y-88638152D01*
X117556547Y-88638152D02*
X117556547Y-88971485D01*
X117556547Y-88971485D02*
X117604166Y-89161961D01*
X117604166Y-89161961D02*
X117699404Y-89257200D01*
X117699404Y-89257200D02*
X117794642Y-89304819D01*
X117794642Y-89304819D02*
X117985118Y-89304819D01*
X116604166Y-89304819D02*
X117175594Y-89304819D01*
X116889880Y-89304819D02*
X116889880Y-88304819D01*
X116889880Y-88304819D02*
X116985118Y-88447676D01*
X116985118Y-88447676D02*
X117080356Y-88542914D01*
X117080356Y-88542914D02*
X117175594Y-88590533D01*
X115747023Y-88638152D02*
X115747023Y-89304819D01*
X115985118Y-88257200D02*
X116223213Y-88971485D01*
X116223213Y-88971485D02*
X115604166Y-88971485D01*
X-141064762Y-75604819D02*
X-140731429Y-75128628D01*
X-140493334Y-75604819D02*
X-140493334Y-74604819D01*
X-140493334Y-74604819D02*
X-140874286Y-74604819D01*
X-140874286Y-74604819D02*
X-140969524Y-74652438D01*
X-140969524Y-74652438D02*
X-141017143Y-74700057D01*
X-141017143Y-74700057D02*
X-141064762Y-74795295D01*
X-141064762Y-74795295D02*
X-141064762Y-74938152D01*
X-141064762Y-74938152D02*
X-141017143Y-75033390D01*
X-141017143Y-75033390D02*
X-140969524Y-75081009D01*
X-140969524Y-75081009D02*
X-140874286Y-75128628D01*
X-140874286Y-75128628D02*
X-140493334Y-75128628D01*
X-142017143Y-75604819D02*
X-141445715Y-75604819D01*
X-141731429Y-75604819D02*
X-141731429Y-74604819D01*
X-141731429Y-74604819D02*
X-141636191Y-74747676D01*
X-141636191Y-74747676D02*
X-141540953Y-74842914D01*
X-141540953Y-74842914D02*
X-141445715Y-74890533D01*
X-142874286Y-74938152D02*
X-142874286Y-75604819D01*
X-142636191Y-74557200D02*
X-142398096Y-75271485D01*
X-142398096Y-75271485D02*
X-143017143Y-75271485D01*
X-64134286Y-60684819D02*
X-64134286Y-61399104D01*
X-64134286Y-61399104D02*
X-64086667Y-61541961D01*
X-64086667Y-61541961D02*
X-63991429Y-61637200D01*
X-63991429Y-61637200D02*
X-63848572Y-61684819D01*
X-63848572Y-61684819D02*
X-63753334Y-61684819D01*
X-64562858Y-60780057D02*
X-64610477Y-60732438D01*
X-64610477Y-60732438D02*
X-64705715Y-60684819D01*
X-64705715Y-60684819D02*
X-64943810Y-60684819D01*
X-64943810Y-60684819D02*
X-65039048Y-60732438D01*
X-65039048Y-60732438D02*
X-65086667Y-60780057D01*
X-65086667Y-60780057D02*
X-65134286Y-60875295D01*
X-65134286Y-60875295D02*
X-65134286Y-60970533D01*
X-65134286Y-60970533D02*
X-65086667Y-61113390D01*
X-65086667Y-61113390D02*
X-64515239Y-61684819D01*
X-64515239Y-61684819D02*
X-65134286Y-61684819D01*
X-28960953Y-130449580D02*
X-28913334Y-130497200D01*
X-28913334Y-130497200D02*
X-28770477Y-130544819D01*
X-28770477Y-130544819D02*
X-28675239Y-130544819D01*
X-28675239Y-130544819D02*
X-28532382Y-130497200D01*
X-28532382Y-130497200D02*
X-28437144Y-130401961D01*
X-28437144Y-130401961D02*
X-28389525Y-130306723D01*
X-28389525Y-130306723D02*
X-28341906Y-130116247D01*
X-28341906Y-130116247D02*
X-28341906Y-129973390D01*
X-28341906Y-129973390D02*
X-28389525Y-129782914D01*
X-28389525Y-129782914D02*
X-28437144Y-129687676D01*
X-28437144Y-129687676D02*
X-28532382Y-129592438D01*
X-28532382Y-129592438D02*
X-28675239Y-129544819D01*
X-28675239Y-129544819D02*
X-28770477Y-129544819D01*
X-28770477Y-129544819D02*
X-28913334Y-129592438D01*
X-28913334Y-129592438D02*
X-28960953Y-129640057D01*
X-29437144Y-130544819D02*
X-29627620Y-130544819D01*
X-29627620Y-130544819D02*
X-29722858Y-130497200D01*
X-29722858Y-130497200D02*
X-29770477Y-130449580D01*
X-29770477Y-130449580D02*
X-29865715Y-130306723D01*
X-29865715Y-130306723D02*
X-29913334Y-130116247D01*
X-29913334Y-130116247D02*
X-29913334Y-129735295D01*
X-29913334Y-129735295D02*
X-29865715Y-129640057D01*
X-29865715Y-129640057D02*
X-29818096Y-129592438D01*
X-29818096Y-129592438D02*
X-29722858Y-129544819D01*
X-29722858Y-129544819D02*
X-29532382Y-129544819D01*
X-29532382Y-129544819D02*
X-29437144Y-129592438D01*
X-29437144Y-129592438D02*
X-29389525Y-129640057D01*
X-29389525Y-129640057D02*
X-29341906Y-129735295D01*
X-29341906Y-129735295D02*
X-29341906Y-129973390D01*
X-29341906Y-129973390D02*
X-29389525Y-130068628D01*
X-29389525Y-130068628D02*
X-29437144Y-130116247D01*
X-29437144Y-130116247D02*
X-29532382Y-130163866D01*
X-29532382Y-130163866D02*
X-29722858Y-130163866D01*
X-29722858Y-130163866D02*
X-29818096Y-130116247D01*
X-29818096Y-130116247D02*
X-29865715Y-130068628D01*
X-29865715Y-130068628D02*
X-29913334Y-129973390D01*
X117032738Y-85900057D02*
X117127976Y-85852438D01*
X117127976Y-85852438D02*
X117223214Y-85757200D01*
X117223214Y-85757200D02*
X117366071Y-85614342D01*
X117366071Y-85614342D02*
X117461309Y-85566723D01*
X117461309Y-85566723D02*
X117556547Y-85566723D01*
X117508928Y-85804819D02*
X117604166Y-85757200D01*
X117604166Y-85757200D02*
X117699404Y-85661961D01*
X117699404Y-85661961D02*
X117747023Y-85471485D01*
X117747023Y-85471485D02*
X117747023Y-85138152D01*
X117747023Y-85138152D02*
X117699404Y-84947676D01*
X117699404Y-84947676D02*
X117604166Y-84852438D01*
X117604166Y-84852438D02*
X117508928Y-84804819D01*
X117508928Y-84804819D02*
X117318452Y-84804819D01*
X117318452Y-84804819D02*
X117223214Y-84852438D01*
X117223214Y-84852438D02*
X117127976Y-84947676D01*
X117127976Y-84947676D02*
X117080357Y-85138152D01*
X117080357Y-85138152D02*
X117080357Y-85471485D01*
X117080357Y-85471485D02*
X117127976Y-85661961D01*
X117127976Y-85661961D02*
X117223214Y-85757200D01*
X117223214Y-85757200D02*
X117318452Y-85804819D01*
X117318452Y-85804819D02*
X117508928Y-85804819D01*
X116223214Y-85138152D02*
X116223214Y-85804819D01*
X116461309Y-84757200D02*
X116699404Y-85471485D01*
X116699404Y-85471485D02*
X116080357Y-85471485D01*
X139861904Y-106029819D02*
X139861904Y-106839342D01*
X139861904Y-106839342D02*
X139814285Y-106934580D01*
X139814285Y-106934580D02*
X139766666Y-106982200D01*
X139766666Y-106982200D02*
X139671428Y-107029819D01*
X139671428Y-107029819D02*
X139480952Y-107029819D01*
X139480952Y-107029819D02*
X139385714Y-106982200D01*
X139385714Y-106982200D02*
X139338095Y-106934580D01*
X139338095Y-106934580D02*
X139290476Y-106839342D01*
X139290476Y-106839342D02*
X139290476Y-106029819D01*
X138385714Y-106029819D02*
X138576190Y-106029819D01*
X138576190Y-106029819D02*
X138671428Y-106077438D01*
X138671428Y-106077438D02*
X138719047Y-106125057D01*
X138719047Y-106125057D02*
X138814285Y-106267914D01*
X138814285Y-106267914D02*
X138861904Y-106458390D01*
X138861904Y-106458390D02*
X138861904Y-106839342D01*
X138861904Y-106839342D02*
X138814285Y-106934580D01*
X138814285Y-106934580D02*
X138766666Y-106982200D01*
X138766666Y-106982200D02*
X138671428Y-107029819D01*
X138671428Y-107029819D02*
X138480952Y-107029819D01*
X138480952Y-107029819D02*
X138385714Y-106982200D01*
X138385714Y-106982200D02*
X138338095Y-106934580D01*
X138338095Y-106934580D02*
X138290476Y-106839342D01*
X138290476Y-106839342D02*
X138290476Y-106601247D01*
X138290476Y-106601247D02*
X138338095Y-106506009D01*
X138338095Y-106506009D02*
X138385714Y-106458390D01*
X138385714Y-106458390D02*
X138480952Y-106410771D01*
X138480952Y-106410771D02*
X138671428Y-106410771D01*
X138671428Y-106410771D02*
X138766666Y-106458390D01*
X138766666Y-106458390D02*
X138814285Y-106506009D01*
X138814285Y-106506009D02*
X138861904Y-106601247D01*
X87508928Y-89400057D02*
X87604166Y-89352438D01*
X87604166Y-89352438D02*
X87699404Y-89257200D01*
X87699404Y-89257200D02*
X87842261Y-89114342D01*
X87842261Y-89114342D02*
X87937499Y-89066723D01*
X87937499Y-89066723D02*
X88032737Y-89066723D01*
X87985118Y-89304819D02*
X88080356Y-89257200D01*
X88080356Y-89257200D02*
X88175594Y-89161961D01*
X88175594Y-89161961D02*
X88223213Y-88971485D01*
X88223213Y-88971485D02*
X88223213Y-88638152D01*
X88223213Y-88638152D02*
X88175594Y-88447676D01*
X88175594Y-88447676D02*
X88080356Y-88352438D01*
X88080356Y-88352438D02*
X87985118Y-88304819D01*
X87985118Y-88304819D02*
X87794642Y-88304819D01*
X87794642Y-88304819D02*
X87699404Y-88352438D01*
X87699404Y-88352438D02*
X87604166Y-88447676D01*
X87604166Y-88447676D02*
X87556547Y-88638152D01*
X87556547Y-88638152D02*
X87556547Y-88971485D01*
X87556547Y-88971485D02*
X87604166Y-89161961D01*
X87604166Y-89161961D02*
X87699404Y-89257200D01*
X87699404Y-89257200D02*
X87794642Y-89304819D01*
X87794642Y-89304819D02*
X87985118Y-89304819D01*
X86604166Y-89304819D02*
X87175594Y-89304819D01*
X86889880Y-89304819D02*
X86889880Y-88304819D01*
X86889880Y-88304819D02*
X86985118Y-88447676D01*
X86985118Y-88447676D02*
X87080356Y-88542914D01*
X87080356Y-88542914D02*
X87175594Y-88590533D01*
X85651785Y-89304819D02*
X86223213Y-89304819D01*
X85937499Y-89304819D02*
X85937499Y-88304819D01*
X85937499Y-88304819D02*
X86032737Y-88447676D01*
X86032737Y-88447676D02*
X86127975Y-88542914D01*
X86127975Y-88542914D02*
X86223213Y-88590533D01*
X137032738Y-85900057D02*
X137127976Y-85852438D01*
X137127976Y-85852438D02*
X137223214Y-85757200D01*
X137223214Y-85757200D02*
X137366071Y-85614342D01*
X137366071Y-85614342D02*
X137461309Y-85566723D01*
X137461309Y-85566723D02*
X137556547Y-85566723D01*
X137508928Y-85804819D02*
X137604166Y-85757200D01*
X137604166Y-85757200D02*
X137699404Y-85661961D01*
X137699404Y-85661961D02*
X137747023Y-85471485D01*
X137747023Y-85471485D02*
X137747023Y-85138152D01*
X137747023Y-85138152D02*
X137699404Y-84947676D01*
X137699404Y-84947676D02*
X137604166Y-84852438D01*
X137604166Y-84852438D02*
X137508928Y-84804819D01*
X137508928Y-84804819D02*
X137318452Y-84804819D01*
X137318452Y-84804819D02*
X137223214Y-84852438D01*
X137223214Y-84852438D02*
X137127976Y-84947676D01*
X137127976Y-84947676D02*
X137080357Y-85138152D01*
X137080357Y-85138152D02*
X137080357Y-85471485D01*
X137080357Y-85471485D02*
X137127976Y-85661961D01*
X137127976Y-85661961D02*
X137223214Y-85757200D01*
X137223214Y-85757200D02*
X137318452Y-85804819D01*
X137318452Y-85804819D02*
X137508928Y-85804819D01*
X136223214Y-84804819D02*
X136413690Y-84804819D01*
X136413690Y-84804819D02*
X136508928Y-84852438D01*
X136508928Y-84852438D02*
X136556547Y-84900057D01*
X136556547Y-84900057D02*
X136651785Y-85042914D01*
X136651785Y-85042914D02*
X136699404Y-85233390D01*
X136699404Y-85233390D02*
X136699404Y-85614342D01*
X136699404Y-85614342D02*
X136651785Y-85709580D01*
X136651785Y-85709580D02*
X136604166Y-85757200D01*
X136604166Y-85757200D02*
X136508928Y-85804819D01*
X136508928Y-85804819D02*
X136318452Y-85804819D01*
X136318452Y-85804819D02*
X136223214Y-85757200D01*
X136223214Y-85757200D02*
X136175595Y-85709580D01*
X136175595Y-85709580D02*
X136127976Y-85614342D01*
X136127976Y-85614342D02*
X136127976Y-85376247D01*
X136127976Y-85376247D02*
X136175595Y-85281009D01*
X136175595Y-85281009D02*
X136223214Y-85233390D01*
X136223214Y-85233390D02*
X136318452Y-85185771D01*
X136318452Y-85185771D02*
X136508928Y-85185771D01*
X136508928Y-85185771D02*
X136604166Y-85233390D01*
X136604166Y-85233390D02*
X136651785Y-85281009D01*
X136651785Y-85281009D02*
X136699404Y-85376247D01*
X-59214762Y-77704819D02*
X-58881429Y-77228628D01*
X-58643334Y-77704819D02*
X-58643334Y-76704819D01*
X-58643334Y-76704819D02*
X-59024286Y-76704819D01*
X-59024286Y-76704819D02*
X-59119524Y-76752438D01*
X-59119524Y-76752438D02*
X-59167143Y-76800057D01*
X-59167143Y-76800057D02*
X-59214762Y-76895295D01*
X-59214762Y-76895295D02*
X-59214762Y-77038152D01*
X-59214762Y-77038152D02*
X-59167143Y-77133390D01*
X-59167143Y-77133390D02*
X-59119524Y-77181009D01*
X-59119524Y-77181009D02*
X-59024286Y-77228628D01*
X-59024286Y-77228628D02*
X-58643334Y-77228628D01*
X-59595715Y-76800057D02*
X-59643334Y-76752438D01*
X-59643334Y-76752438D02*
X-59738572Y-76704819D01*
X-59738572Y-76704819D02*
X-59976667Y-76704819D01*
X-59976667Y-76704819D02*
X-60071905Y-76752438D01*
X-60071905Y-76752438D02*
X-60119524Y-76800057D01*
X-60119524Y-76800057D02*
X-60167143Y-76895295D01*
X-60167143Y-76895295D02*
X-60167143Y-76990533D01*
X-60167143Y-76990533D02*
X-60119524Y-77133390D01*
X-60119524Y-77133390D02*
X-59548096Y-77704819D01*
X-59548096Y-77704819D02*
X-60167143Y-77704819D01*
X-60786191Y-76704819D02*
X-60881429Y-76704819D01*
X-60881429Y-76704819D02*
X-60976667Y-76752438D01*
X-60976667Y-76752438D02*
X-61024286Y-76800057D01*
X-61024286Y-76800057D02*
X-61071905Y-76895295D01*
X-61071905Y-76895295D02*
X-61119524Y-77085771D01*
X-61119524Y-77085771D02*
X-61119524Y-77323866D01*
X-61119524Y-77323866D02*
X-61071905Y-77514342D01*
X-61071905Y-77514342D02*
X-61024286Y-77609580D01*
X-61024286Y-77609580D02*
X-60976667Y-77657200D01*
X-60976667Y-77657200D02*
X-60881429Y-77704819D01*
X-60881429Y-77704819D02*
X-60786191Y-77704819D01*
X-60786191Y-77704819D02*
X-60690953Y-77657200D01*
X-60690953Y-77657200D02*
X-60643334Y-77609580D01*
X-60643334Y-77609580D02*
X-60595715Y-77514342D01*
X-60595715Y-77514342D02*
X-60548096Y-77323866D01*
X-60548096Y-77323866D02*
X-60548096Y-77085771D01*
X-60548096Y-77085771D02*
X-60595715Y-76895295D01*
X-60595715Y-76895295D02*
X-60643334Y-76800057D01*
X-60643334Y-76800057D02*
X-60690953Y-76752438D01*
X-60690953Y-76752438D02*
X-60786191Y-76704819D01*
X176508928Y-106900057D02*
X176604166Y-106852438D01*
X176604166Y-106852438D02*
X176699404Y-106757200D01*
X176699404Y-106757200D02*
X176842261Y-106614342D01*
X176842261Y-106614342D02*
X176937499Y-106566723D01*
X176937499Y-106566723D02*
X177032737Y-106566723D01*
X176985118Y-106804819D02*
X177080356Y-106757200D01*
X177080356Y-106757200D02*
X177175594Y-106661961D01*
X177175594Y-106661961D02*
X177223213Y-106471485D01*
X177223213Y-106471485D02*
X177223213Y-106138152D01*
X177223213Y-106138152D02*
X177175594Y-105947676D01*
X177175594Y-105947676D02*
X177080356Y-105852438D01*
X177080356Y-105852438D02*
X176985118Y-105804819D01*
X176985118Y-105804819D02*
X176794642Y-105804819D01*
X176794642Y-105804819D02*
X176699404Y-105852438D01*
X176699404Y-105852438D02*
X176604166Y-105947676D01*
X176604166Y-105947676D02*
X176556547Y-106138152D01*
X176556547Y-106138152D02*
X176556547Y-106471485D01*
X176556547Y-106471485D02*
X176604166Y-106661961D01*
X176604166Y-106661961D02*
X176699404Y-106757200D01*
X176699404Y-106757200D02*
X176794642Y-106804819D01*
X176794642Y-106804819D02*
X176985118Y-106804819D01*
X175604166Y-106804819D02*
X176175594Y-106804819D01*
X175889880Y-106804819D02*
X175889880Y-105804819D01*
X175889880Y-105804819D02*
X175985118Y-105947676D01*
X175985118Y-105947676D02*
X176080356Y-106042914D01*
X176080356Y-106042914D02*
X176175594Y-106090533D01*
X174985118Y-105804819D02*
X174889880Y-105804819D01*
X174889880Y-105804819D02*
X174794642Y-105852438D01*
X174794642Y-105852438D02*
X174747023Y-105900057D01*
X174747023Y-105900057D02*
X174699404Y-105995295D01*
X174699404Y-105995295D02*
X174651785Y-106185771D01*
X174651785Y-106185771D02*
X174651785Y-106423866D01*
X174651785Y-106423866D02*
X174699404Y-106614342D01*
X174699404Y-106614342D02*
X174747023Y-106709580D01*
X174747023Y-106709580D02*
X174794642Y-106757200D01*
X174794642Y-106757200D02*
X174889880Y-106804819D01*
X174889880Y-106804819D02*
X174985118Y-106804819D01*
X174985118Y-106804819D02*
X175080356Y-106757200D01*
X175080356Y-106757200D02*
X175127975Y-106709580D01*
X175127975Y-106709580D02*
X175175594Y-106614342D01*
X175175594Y-106614342D02*
X175223213Y-106423866D01*
X175223213Y-106423866D02*
X175223213Y-106185771D01*
X175223213Y-106185771D02*
X175175594Y-105995295D01*
X175175594Y-105995295D02*
X175127975Y-105900057D01*
X175127975Y-105900057D02*
X175080356Y-105852438D01*
X175080356Y-105852438D02*
X174985118Y-105804819D01*
X142962319Y-82783333D02*
X142486128Y-82450000D01*
X142962319Y-82211905D02*
X141962319Y-82211905D01*
X141962319Y-82211905D02*
X141962319Y-82592857D01*
X141962319Y-82592857D02*
X142009938Y-82688095D01*
X142009938Y-82688095D02*
X142057557Y-82735714D01*
X142057557Y-82735714D02*
X142152795Y-82783333D01*
X142152795Y-82783333D02*
X142295652Y-82783333D01*
X142295652Y-82783333D02*
X142390890Y-82735714D01*
X142390890Y-82735714D02*
X142438509Y-82688095D01*
X142438509Y-82688095D02*
X142486128Y-82592857D01*
X142486128Y-82592857D02*
X142486128Y-82211905D01*
X142390890Y-83354762D02*
X142343271Y-83259524D01*
X142343271Y-83259524D02*
X142295652Y-83211905D01*
X142295652Y-83211905D02*
X142200414Y-83164286D01*
X142200414Y-83164286D02*
X142152795Y-83164286D01*
X142152795Y-83164286D02*
X142057557Y-83211905D01*
X142057557Y-83211905D02*
X142009938Y-83259524D01*
X142009938Y-83259524D02*
X141962319Y-83354762D01*
X141962319Y-83354762D02*
X141962319Y-83545238D01*
X141962319Y-83545238D02*
X142009938Y-83640476D01*
X142009938Y-83640476D02*
X142057557Y-83688095D01*
X142057557Y-83688095D02*
X142152795Y-83735714D01*
X142152795Y-83735714D02*
X142200414Y-83735714D01*
X142200414Y-83735714D02*
X142295652Y-83688095D01*
X142295652Y-83688095D02*
X142343271Y-83640476D01*
X142343271Y-83640476D02*
X142390890Y-83545238D01*
X142390890Y-83545238D02*
X142390890Y-83354762D01*
X142390890Y-83354762D02*
X142438509Y-83259524D01*
X142438509Y-83259524D02*
X142486128Y-83211905D01*
X142486128Y-83211905D02*
X142581366Y-83164286D01*
X142581366Y-83164286D02*
X142771842Y-83164286D01*
X142771842Y-83164286D02*
X142867080Y-83211905D01*
X142867080Y-83211905D02*
X142914700Y-83259524D01*
X142914700Y-83259524D02*
X142962319Y-83354762D01*
X142962319Y-83354762D02*
X142962319Y-83545238D01*
X142962319Y-83545238D02*
X142914700Y-83640476D01*
X142914700Y-83640476D02*
X142867080Y-83688095D01*
X142867080Y-83688095D02*
X142771842Y-83735714D01*
X142771842Y-83735714D02*
X142581366Y-83735714D01*
X142581366Y-83735714D02*
X142486128Y-83688095D01*
X142486128Y-83688095D02*
X142438509Y-83640476D01*
X142438509Y-83640476D02*
X142390890Y-83545238D01*
X82962319Y-82783333D02*
X82486128Y-82450000D01*
X82962319Y-82211905D02*
X81962319Y-82211905D01*
X81962319Y-82211905D02*
X81962319Y-82592857D01*
X81962319Y-82592857D02*
X82009938Y-82688095D01*
X82009938Y-82688095D02*
X82057557Y-82735714D01*
X82057557Y-82735714D02*
X82152795Y-82783333D01*
X82152795Y-82783333D02*
X82295652Y-82783333D01*
X82295652Y-82783333D02*
X82390890Y-82735714D01*
X82390890Y-82735714D02*
X82438509Y-82688095D01*
X82438509Y-82688095D02*
X82486128Y-82592857D01*
X82486128Y-82592857D02*
X82486128Y-82211905D01*
X82057557Y-83164286D02*
X82009938Y-83211905D01*
X82009938Y-83211905D02*
X81962319Y-83307143D01*
X81962319Y-83307143D02*
X81962319Y-83545238D01*
X81962319Y-83545238D02*
X82009938Y-83640476D01*
X82009938Y-83640476D02*
X82057557Y-83688095D01*
X82057557Y-83688095D02*
X82152795Y-83735714D01*
X82152795Y-83735714D02*
X82248033Y-83735714D01*
X82248033Y-83735714D02*
X82390890Y-83688095D01*
X82390890Y-83688095D02*
X82962319Y-83116667D01*
X82962319Y-83116667D02*
X82962319Y-83735714D01*
X-100640953Y-117319580D02*
X-100593334Y-117367200D01*
X-100593334Y-117367200D02*
X-100450477Y-117414819D01*
X-100450477Y-117414819D02*
X-100355239Y-117414819D01*
X-100355239Y-117414819D02*
X-100212382Y-117367200D01*
X-100212382Y-117367200D02*
X-100117144Y-117271961D01*
X-100117144Y-117271961D02*
X-100069525Y-117176723D01*
X-100069525Y-117176723D02*
X-100021906Y-116986247D01*
X-100021906Y-116986247D02*
X-100021906Y-116843390D01*
X-100021906Y-116843390D02*
X-100069525Y-116652914D01*
X-100069525Y-116652914D02*
X-100117144Y-116557676D01*
X-100117144Y-116557676D02*
X-100212382Y-116462438D01*
X-100212382Y-116462438D02*
X-100355239Y-116414819D01*
X-100355239Y-116414819D02*
X-100450477Y-116414819D01*
X-100450477Y-116414819D02*
X-100593334Y-116462438D01*
X-100593334Y-116462438D02*
X-100640953Y-116510057D01*
X-101498096Y-116748152D02*
X-101498096Y-117414819D01*
X-101260001Y-116367200D02*
X-101021906Y-117081485D01*
X-101021906Y-117081485D02*
X-101640953Y-117081485D01*
X-116410953Y-99609580D02*
X-116363334Y-99657200D01*
X-116363334Y-99657200D02*
X-116220477Y-99704819D01*
X-116220477Y-99704819D02*
X-116125239Y-99704819D01*
X-116125239Y-99704819D02*
X-115982382Y-99657200D01*
X-115982382Y-99657200D02*
X-115887144Y-99561961D01*
X-115887144Y-99561961D02*
X-115839525Y-99466723D01*
X-115839525Y-99466723D02*
X-115791906Y-99276247D01*
X-115791906Y-99276247D02*
X-115791906Y-99133390D01*
X-115791906Y-99133390D02*
X-115839525Y-98942914D01*
X-115839525Y-98942914D02*
X-115887144Y-98847676D01*
X-115887144Y-98847676D02*
X-115982382Y-98752438D01*
X-115982382Y-98752438D02*
X-116125239Y-98704819D01*
X-116125239Y-98704819D02*
X-116220477Y-98704819D01*
X-116220477Y-98704819D02*
X-116363334Y-98752438D01*
X-116363334Y-98752438D02*
X-116410953Y-98800057D01*
X-117363334Y-99704819D02*
X-116791906Y-99704819D01*
X-117077620Y-99704819D02*
X-117077620Y-98704819D01*
X-117077620Y-98704819D02*
X-116982382Y-98847676D01*
X-116982382Y-98847676D02*
X-116887144Y-98942914D01*
X-116887144Y-98942914D02*
X-116791906Y-98990533D01*
X130358333Y-113864819D02*
X130358333Y-114579104D01*
X130358333Y-114579104D02*
X130405952Y-114721961D01*
X130405952Y-114721961D02*
X130501190Y-114817200D01*
X130501190Y-114817200D02*
X130644047Y-114864819D01*
X130644047Y-114864819D02*
X130739285Y-114864819D01*
X129453571Y-114198152D02*
X129453571Y-114864819D01*
X129691666Y-113817200D02*
X129929761Y-114531485D01*
X129929761Y-114531485D02*
X129310714Y-114531485D01*
X171962319Y-103307142D02*
X171486128Y-102973809D01*
X171962319Y-102735714D02*
X170962319Y-102735714D01*
X170962319Y-102735714D02*
X170962319Y-103116666D01*
X170962319Y-103116666D02*
X171009938Y-103211904D01*
X171009938Y-103211904D02*
X171057557Y-103259523D01*
X171057557Y-103259523D02*
X171152795Y-103307142D01*
X171152795Y-103307142D02*
X171295652Y-103307142D01*
X171295652Y-103307142D02*
X171390890Y-103259523D01*
X171390890Y-103259523D02*
X171438509Y-103211904D01*
X171438509Y-103211904D02*
X171486128Y-103116666D01*
X171486128Y-103116666D02*
X171486128Y-102735714D01*
X171962319Y-104259523D02*
X171962319Y-103688095D01*
X171962319Y-103973809D02*
X170962319Y-103973809D01*
X170962319Y-103973809D02*
X171105176Y-103878571D01*
X171105176Y-103878571D02*
X171200414Y-103783333D01*
X171200414Y-103783333D02*
X171248033Y-103688095D01*
X171962319Y-105211904D02*
X171962319Y-104640476D01*
X171962319Y-104926190D02*
X170962319Y-104926190D01*
X170962319Y-104926190D02*
X171105176Y-104830952D01*
X171105176Y-104830952D02*
X171200414Y-104735714D01*
X171200414Y-104735714D02*
X171248033Y-104640476D01*
X-108644762Y-105549580D02*
X-108597143Y-105597200D01*
X-108597143Y-105597200D02*
X-108454286Y-105644819D01*
X-108454286Y-105644819D02*
X-108359048Y-105644819D01*
X-108359048Y-105644819D02*
X-108216191Y-105597200D01*
X-108216191Y-105597200D02*
X-108120953Y-105501961D01*
X-108120953Y-105501961D02*
X-108073334Y-105406723D01*
X-108073334Y-105406723D02*
X-108025715Y-105216247D01*
X-108025715Y-105216247D02*
X-108025715Y-105073390D01*
X-108025715Y-105073390D02*
X-108073334Y-104882914D01*
X-108073334Y-104882914D02*
X-108120953Y-104787676D01*
X-108120953Y-104787676D02*
X-108216191Y-104692438D01*
X-108216191Y-104692438D02*
X-108359048Y-104644819D01*
X-108359048Y-104644819D02*
X-108454286Y-104644819D01*
X-108454286Y-104644819D02*
X-108597143Y-104692438D01*
X-108597143Y-104692438D02*
X-108644762Y-104740057D01*
X-109597143Y-105644819D02*
X-109025715Y-105644819D01*
X-109311429Y-105644819D02*
X-109311429Y-104644819D01*
X-109311429Y-104644819D02*
X-109216191Y-104787676D01*
X-109216191Y-104787676D02*
X-109120953Y-104882914D01*
X-109120953Y-104882914D02*
X-109025715Y-104930533D01*
X-110216191Y-104644819D02*
X-110311429Y-104644819D01*
X-110311429Y-104644819D02*
X-110406667Y-104692438D01*
X-110406667Y-104692438D02*
X-110454286Y-104740057D01*
X-110454286Y-104740057D02*
X-110501905Y-104835295D01*
X-110501905Y-104835295D02*
X-110549524Y-105025771D01*
X-110549524Y-105025771D02*
X-110549524Y-105263866D01*
X-110549524Y-105263866D02*
X-110501905Y-105454342D01*
X-110501905Y-105454342D02*
X-110454286Y-105549580D01*
X-110454286Y-105549580D02*
X-110406667Y-105597200D01*
X-110406667Y-105597200D02*
X-110311429Y-105644819D01*
X-110311429Y-105644819D02*
X-110216191Y-105644819D01*
X-110216191Y-105644819D02*
X-110120953Y-105597200D01*
X-110120953Y-105597200D02*
X-110073334Y-105549580D01*
X-110073334Y-105549580D02*
X-110025715Y-105454342D01*
X-110025715Y-105454342D02*
X-109978096Y-105263866D01*
X-109978096Y-105263866D02*
X-109978096Y-105025771D01*
X-109978096Y-105025771D02*
X-110025715Y-104835295D01*
X-110025715Y-104835295D02*
X-110073334Y-104740057D01*
X-110073334Y-104740057D02*
X-110120953Y-104692438D01*
X-110120953Y-104692438D02*
X-110216191Y-104644819D01*
X127032738Y-85900057D02*
X127127976Y-85852438D01*
X127127976Y-85852438D02*
X127223214Y-85757200D01*
X127223214Y-85757200D02*
X127366071Y-85614342D01*
X127366071Y-85614342D02*
X127461309Y-85566723D01*
X127461309Y-85566723D02*
X127556547Y-85566723D01*
X127508928Y-85804819D02*
X127604166Y-85757200D01*
X127604166Y-85757200D02*
X127699404Y-85661961D01*
X127699404Y-85661961D02*
X127747023Y-85471485D01*
X127747023Y-85471485D02*
X127747023Y-85138152D01*
X127747023Y-85138152D02*
X127699404Y-84947676D01*
X127699404Y-84947676D02*
X127604166Y-84852438D01*
X127604166Y-84852438D02*
X127508928Y-84804819D01*
X127508928Y-84804819D02*
X127318452Y-84804819D01*
X127318452Y-84804819D02*
X127223214Y-84852438D01*
X127223214Y-84852438D02*
X127127976Y-84947676D01*
X127127976Y-84947676D02*
X127080357Y-85138152D01*
X127080357Y-85138152D02*
X127080357Y-85471485D01*
X127080357Y-85471485D02*
X127127976Y-85661961D01*
X127127976Y-85661961D02*
X127223214Y-85757200D01*
X127223214Y-85757200D02*
X127318452Y-85804819D01*
X127318452Y-85804819D02*
X127508928Y-85804819D01*
X126175595Y-84804819D02*
X126651785Y-84804819D01*
X126651785Y-84804819D02*
X126699404Y-85281009D01*
X126699404Y-85281009D02*
X126651785Y-85233390D01*
X126651785Y-85233390D02*
X126556547Y-85185771D01*
X126556547Y-85185771D02*
X126318452Y-85185771D01*
X126318452Y-85185771D02*
X126223214Y-85233390D01*
X126223214Y-85233390D02*
X126175595Y-85281009D01*
X126175595Y-85281009D02*
X126127976Y-85376247D01*
X126127976Y-85376247D02*
X126127976Y-85614342D01*
X126127976Y-85614342D02*
X126175595Y-85709580D01*
X126175595Y-85709580D02*
X126223214Y-85757200D01*
X126223214Y-85757200D02*
X126318452Y-85804819D01*
X126318452Y-85804819D02*
X126556547Y-85804819D01*
X126556547Y-85804819D02*
X126651785Y-85757200D01*
X126651785Y-85757200D02*
X126699404Y-85709580D01*
X-91004762Y-127314819D02*
X-90671429Y-126838628D01*
X-90433334Y-127314819D02*
X-90433334Y-126314819D01*
X-90433334Y-126314819D02*
X-90814286Y-126314819D01*
X-90814286Y-126314819D02*
X-90909524Y-126362438D01*
X-90909524Y-126362438D02*
X-90957143Y-126410057D01*
X-90957143Y-126410057D02*
X-91004762Y-126505295D01*
X-91004762Y-126505295D02*
X-91004762Y-126648152D01*
X-91004762Y-126648152D02*
X-90957143Y-126743390D01*
X-90957143Y-126743390D02*
X-90909524Y-126791009D01*
X-90909524Y-126791009D02*
X-90814286Y-126838628D01*
X-90814286Y-126838628D02*
X-90433334Y-126838628D01*
X-91957143Y-127314819D02*
X-91385715Y-127314819D01*
X-91671429Y-127314819D02*
X-91671429Y-126314819D01*
X-91671429Y-126314819D02*
X-91576191Y-126457676D01*
X-91576191Y-126457676D02*
X-91480953Y-126552914D01*
X-91480953Y-126552914D02*
X-91385715Y-126600533D01*
X-92290477Y-126314819D02*
X-92957143Y-126314819D01*
X-92957143Y-126314819D02*
X-92528572Y-127314819D01*
X125380333Y-56748819D02*
X125380333Y-57463104D01*
X125380333Y-57463104D02*
X125427952Y-57605961D01*
X125427952Y-57605961D02*
X125523190Y-57701200D01*
X125523190Y-57701200D02*
X125666047Y-57748819D01*
X125666047Y-57748819D02*
X125761285Y-57748819D01*
X124380333Y-57748819D02*
X124951761Y-57748819D01*
X124666047Y-57748819D02*
X124666047Y-56748819D01*
X124666047Y-56748819D02*
X124761285Y-56891676D01*
X124761285Y-56891676D02*
X124856523Y-56986914D01*
X124856523Y-56986914D02*
X124951761Y-57034533D01*
D11*
%TO.C,C8*%
X-86866368Y-119310000D02*
X-88288872Y-119310000D01*
X-86866368Y-117490000D02*
X-88288872Y-117490000D01*
%TO.C,U1*%
X166610000Y-68590000D02*
X166260000Y-68590000D01*
X166610000Y-69040000D02*
X166610000Y-68590000D01*
X160390000Y-69040000D02*
X160390000Y-68590000D01*
X166610000Y-73360000D02*
X166610000Y-73810000D01*
X160390000Y-73360000D02*
X160390000Y-73810000D01*
X166610000Y-73810000D02*
X166260000Y-73810000D01*
X160390000Y-73810000D02*
X160740000Y-73810000D01*
%TO.C,C6*%
X140859420Y-118990000D02*
X141140580Y-118990000D01*
X140859420Y-120010000D02*
X141140580Y-120010000D01*
%TO.C,Q20*%
X175937500Y-105890000D02*
X175287500Y-105890000D01*
X175937500Y-105890000D02*
X176587500Y-105890000D01*
X175937500Y-109010000D02*
X174262500Y-109010000D01*
X175937500Y-109010000D02*
X176587500Y-109010000D01*
%TO.C,Q15*%
X126937500Y-84890000D02*
X126287500Y-84890000D01*
X126937500Y-84890000D02*
X127587500Y-84890000D01*
X126937500Y-88010000D02*
X125262500Y-88010000D01*
X126937500Y-88010000D02*
X127587500Y-88010000D01*
%TO.C,Q18*%
X156937500Y-84890000D02*
X156287500Y-84890000D01*
X156937500Y-84890000D02*
X157587500Y-84890000D01*
X156937500Y-88010000D02*
X155262500Y-88010000D01*
X156937500Y-88010000D02*
X157587500Y-88010000D01*
%TO.C,C11*%
X74734000Y-151403252D02*
X74734000Y-149980748D01*
X76554000Y-151403252D02*
X76554000Y-149980748D01*
%TO.C,R9*%
X154460000Y-82712742D02*
X154460000Y-83187258D01*
X153415000Y-82712742D02*
X153415000Y-83187258D01*
%TO.C,R18*%
X-122290362Y-96752500D02*
X-122764878Y-96752500D01*
X-122290362Y-95707500D02*
X-122764878Y-95707500D01*
%TO.C,C14*%
X-105507040Y-114090000D02*
X-105788200Y-114090000D01*
X-105507040Y-113070000D02*
X-105788200Y-113070000D01*
%TO.C,Q8*%
X156937500Y-81390000D02*
X156287500Y-81390000D01*
X156937500Y-81390000D02*
X157587500Y-81390000D01*
X156937500Y-84510000D02*
X155262500Y-84510000D01*
X156937500Y-84510000D02*
X157587500Y-84510000D01*
%TO.C,R7*%
X134460000Y-82712742D02*
X134460000Y-83187258D01*
X133415000Y-82712742D02*
X133415000Y-83187258D01*
%TO.C,Q1*%
X86937500Y-81390000D02*
X86287500Y-81390000D01*
X86937500Y-81390000D02*
X87587500Y-81390000D01*
X86937500Y-84510000D02*
X85262500Y-84510000D01*
X86937500Y-84510000D02*
X87587500Y-84510000D01*
%TO.C,R19*%
X-134960362Y-81552500D02*
X-135434878Y-81552500D01*
X-134960362Y-80507500D02*
X-135434878Y-80507500D01*
%TO.C,R1*%
X-96560362Y-119752500D02*
X-97034878Y-119752500D01*
X-96560362Y-118707500D02*
X-97034878Y-118707500D01*
%TO.C,J3*%
X158210000Y-105515000D02*
X158210000Y-117485000D01*
X157760000Y-105515000D02*
X158210000Y-105515000D01*
X154240000Y-105515000D02*
X153790000Y-105515000D01*
X153790000Y-105515000D02*
X153790000Y-106465000D01*
X153790000Y-106465000D02*
X152300000Y-106465000D01*
X158210000Y-117485000D02*
X157760000Y-117485000D01*
X154240000Y-117485000D02*
X153790000Y-117485000D01*
X153790000Y-117485000D02*
X153790000Y-116535000D01*
%TO.C,Q3*%
X106937500Y-81390000D02*
X106287500Y-81390000D01*
X106937500Y-81390000D02*
X107587500Y-81390000D01*
X106937500Y-84510000D02*
X105262500Y-84510000D01*
X106937500Y-84510000D02*
X107587500Y-84510000D01*
%TO.C,R5*%
X114460000Y-82712742D02*
X114460000Y-83187258D01*
X113415000Y-82712742D02*
X113415000Y-83187258D01*
%TO.C,R12*%
X-91410362Y-126302500D02*
X-91884878Y-126302500D01*
X-91410362Y-125257500D02*
X-91884878Y-125257500D01*
%TO.C,C13*%
X-67466368Y-132410000D02*
X-68888872Y-132410000D01*
X-67466368Y-130590000D02*
X-68888872Y-130590000D01*
%TO.C,C5*%
X128140580Y-120510000D02*
X127859420Y-120510000D01*
X128140580Y-119490000D02*
X127859420Y-119490000D01*
%TO.C,Q16*%
X136937500Y-84890000D02*
X136287500Y-84890000D01*
X136937500Y-84890000D02*
X137587500Y-84890000D01*
X136937500Y-88010000D02*
X135262500Y-88010000D01*
X136937500Y-88010000D02*
X137587500Y-88010000D01*
%TO.C,Q13*%
X106937500Y-84890000D02*
X106287500Y-84890000D01*
X106937500Y-84890000D02*
X107587500Y-84890000D01*
X106937500Y-88010000D02*
X105262500Y-88010000D01*
X106937500Y-88010000D02*
X107587500Y-88010000D01*
%TO.C,Q2*%
X96937500Y-81390000D02*
X96287500Y-81390000D01*
X96937500Y-81390000D02*
X97587500Y-81390000D01*
X96937500Y-84510000D02*
X95262500Y-84510000D01*
X96937500Y-84510000D02*
X97587500Y-84510000D01*
%TO.C,R6*%
X124460000Y-82712742D02*
X124460000Y-83187258D01*
X123415000Y-82712742D02*
X123415000Y-83187258D01*
%TO.C,C12*%
X-112856368Y-93110000D02*
X-114278872Y-93110000D01*
X-112856368Y-91290000D02*
X-114278872Y-91290000D01*
%TO.C,R13*%
X-127940362Y-91452500D02*
X-128414878Y-91452500D01*
X-127940362Y-90407500D02*
X-128414878Y-90407500D01*
%TO.C,C2*%
X-95216368Y-112760000D02*
X-96638872Y-112760000D01*
X-95216368Y-110940000D02*
X-96638872Y-110940000D01*
%TO.C,Q9*%
X174125000Y-119610000D02*
X174775000Y-119610000D01*
X174125000Y-119610000D02*
X173475000Y-119610000D01*
X174125000Y-116490000D02*
X175800000Y-116490000D01*
X174125000Y-116490000D02*
X173475000Y-116490000D01*
%TO.C,R10*%
X176602500Y-118287258D02*
X176602500Y-117812742D01*
X177647500Y-118287258D02*
X177647500Y-117812742D01*
%TO.C,U4*%
X131637500Y-152510000D02*
X132437500Y-152510000D01*
X131637500Y-152510000D02*
X130837500Y-152510000D01*
X131637500Y-149390000D02*
X133437500Y-149390000D01*
X131637500Y-149390000D02*
X130837500Y-149390000D01*
%TO.C,Q17*%
X146937500Y-84890000D02*
X146287500Y-84890000D01*
X146937500Y-84890000D02*
X147587500Y-84890000D01*
X146937500Y-88010000D02*
X145262500Y-88010000D01*
X146937500Y-88010000D02*
X147587500Y-88010000D01*
%TO.C,Q19*%
X174125000Y-116110000D02*
X174775000Y-116110000D01*
X174125000Y-116110000D02*
X173475000Y-116110000D01*
X174125000Y-112990000D02*
X175800000Y-112990000D01*
X174125000Y-112990000D02*
X173475000Y-112990000D01*
%TO.C,U5*%
X-87327620Y-123860000D02*
X-86527620Y-123860000D01*
X-87327620Y-123860000D02*
X-88127620Y-123860000D01*
X-87327620Y-120740000D02*
X-85527620Y-120740000D01*
X-87327620Y-120740000D02*
X-88127620Y-120740000D01*
%TO.C,U3*%
X78946000Y-149640000D02*
X78146000Y-149640000D01*
X78946000Y-149640000D02*
X80746000Y-149640000D01*
X78946000Y-152760000D02*
X78146000Y-152760000D01*
X78946000Y-152760000D02*
X79746000Y-152760000D01*
%TO.C,R16*%
X80486742Y-153217500D02*
X80961258Y-153217500D01*
X80486742Y-154262500D02*
X80961258Y-154262500D01*
%TO.C,C3*%
X125885252Y-59146000D02*
X124462748Y-59146000D01*
X125885252Y-57326000D02*
X124462748Y-57326000D01*
%TO.C,Q7*%
X146937500Y-81390000D02*
X146287500Y-81390000D01*
X146937500Y-81390000D02*
X147587500Y-81390000D01*
X146937500Y-84510000D02*
X145262500Y-84510000D01*
X146937500Y-84510000D02*
X147587500Y-84510000D01*
%TO.C,Q12*%
X96937500Y-84890000D02*
X96287500Y-84890000D01*
X96937500Y-84890000D02*
X97587500Y-84890000D01*
X96937500Y-88010000D02*
X95262500Y-88010000D01*
X96937500Y-88010000D02*
X97587500Y-88010000D01*
%TO.C,R4*%
X104460000Y-82712742D02*
X104460000Y-83187258D01*
X103415000Y-82712742D02*
X103415000Y-83187258D01*
%TO.C,R15*%
X77121742Y-154262500D02*
X77596258Y-154262500D01*
X77121742Y-153217500D02*
X77596258Y-153217500D01*
%TO.C,R3*%
X94460000Y-82712742D02*
X94460000Y-83187258D01*
X93415000Y-82712742D02*
X93415000Y-83187258D01*
%TO.C,U2*%
X131490000Y-116190000D02*
X131490000Y-116665000D01*
X131965000Y-116190000D02*
X131490000Y-116190000D01*
X131965000Y-123410000D02*
X131490000Y-123410000D01*
X138235000Y-116190000D02*
X138710000Y-116190000D01*
X138235000Y-123410000D02*
X138710000Y-123410000D01*
X138710000Y-116190000D02*
X138710000Y-116665000D01*
X138710000Y-123410000D02*
X138710000Y-122935000D01*
%TO.C,C7*%
X83158000Y-149980748D02*
X83158000Y-151403252D01*
X81338000Y-149980748D02*
X81338000Y-151403252D01*
%TO.C,Q14*%
X116937500Y-84890000D02*
X116287500Y-84890000D01*
X116937500Y-84890000D02*
X117587500Y-84890000D01*
X116937500Y-88010000D02*
X115262500Y-88010000D01*
X116937500Y-88010000D02*
X117587500Y-88010000D01*
%TO.C,R14*%
X-141470362Y-77102500D02*
X-141944878Y-77102500D01*
X-141470362Y-76057500D02*
X-141944878Y-76057500D01*
%TO.C,J2*%
X-58482620Y-68340000D02*
X-70452620Y-68340000D01*
X-58482620Y-67890000D02*
X-58482620Y-68340000D01*
X-58482620Y-64370000D02*
X-58482620Y-63920000D01*
X-58482620Y-63920000D02*
X-59432620Y-63920000D01*
X-59432620Y-63920000D02*
X-59432620Y-62430000D01*
X-70452620Y-68340000D02*
X-70452620Y-67890000D01*
X-70452620Y-64370000D02*
X-70452620Y-63920000D01*
X-70452620Y-63920000D02*
X-69502620Y-63920000D01*
%TO.C,C9*%
X-28416368Y-132850000D02*
X-29838872Y-132850000D01*
X-28416368Y-131030000D02*
X-29838872Y-131030000D01*
%TO.C,Q4*%
X116937500Y-81390000D02*
X116287500Y-81390000D01*
X116937500Y-81390000D02*
X117587500Y-81390000D01*
X116937500Y-84510000D02*
X115262500Y-84510000D01*
X116937500Y-84510000D02*
X117587500Y-84510000D01*
%TO.C,U6*%
X141825000Y-112860000D02*
X141825000Y-112600000D01*
X141825000Y-107670000D02*
X143500000Y-107670000D01*
X141825000Y-107410000D02*
X141825000Y-107670000D01*
X139100000Y-112860000D02*
X141825000Y-112860000D01*
X139100000Y-112860000D02*
X136375000Y-112860000D01*
X139100000Y-107410000D02*
X141825000Y-107410000D01*
X139100000Y-107410000D02*
X136375000Y-107410000D01*
X136375000Y-112860000D02*
X136375000Y-112600000D01*
X136375000Y-107410000D02*
X136375000Y-107670000D01*
%TO.C,Q11*%
X86937500Y-84890000D02*
X86287500Y-84890000D01*
X86937500Y-84890000D02*
X87587500Y-84890000D01*
X86937500Y-88010000D02*
X85262500Y-88010000D01*
X86937500Y-88010000D02*
X87587500Y-88010000D01*
%TO.C,Q6*%
X136937500Y-81390000D02*
X136287500Y-81390000D01*
X136937500Y-81390000D02*
X137587500Y-81390000D01*
X136937500Y-84510000D02*
X135262500Y-84510000D01*
X136937500Y-84510000D02*
X137587500Y-84510000D01*
%TO.C,R20*%
X-59620362Y-79202500D02*
X-60094878Y-79202500D01*
X-59620362Y-78157500D02*
X-60094878Y-78157500D01*
%TO.C,Q10*%
X175937500Y-102390000D02*
X175287500Y-102390000D01*
X175937500Y-102390000D02*
X176587500Y-102390000D01*
X175937500Y-105510000D02*
X174262500Y-105510000D01*
X175937500Y-105510000D02*
X176587500Y-105510000D01*
%TO.C,R8*%
X144460000Y-82712742D02*
X144460000Y-83187258D01*
X143415000Y-82712742D02*
X143415000Y-83187258D01*
%TO.C,R2*%
X84460000Y-82712742D02*
X84460000Y-83187258D01*
X83415000Y-82712742D02*
X83415000Y-83187258D01*
%TO.C,C4*%
X-100667040Y-118900000D02*
X-100948200Y-118900000D01*
X-100667040Y-117880000D02*
X-100948200Y-117880000D01*
%TO.C,C1*%
X-116437040Y-101190000D02*
X-116718200Y-101190000D01*
X-116437040Y-100170000D02*
X-116718200Y-100170000D01*
%TO.C,J4*%
X125985000Y-112840000D02*
X127425000Y-112840000D01*
X127425000Y-100590000D02*
X132625000Y-100590000D01*
X127425000Y-101160000D02*
X127425000Y-100590000D01*
X127425000Y-103700000D02*
X127425000Y-102680000D01*
X127425000Y-106240000D02*
X127425000Y-105220000D01*
X127425000Y-108780000D02*
X127425000Y-107760000D01*
X127425000Y-111320000D02*
X127425000Y-110300000D01*
X127425000Y-113410000D02*
X127425000Y-112840000D01*
X127425000Y-113410000D02*
X132625000Y-113410000D01*
X132625000Y-101160000D02*
X132625000Y-100590000D01*
X132625000Y-103700000D02*
X132625000Y-102680000D01*
X132625000Y-106240000D02*
X132625000Y-105220000D01*
X132625000Y-108780000D02*
X132625000Y-107760000D01*
X132625000Y-111320000D02*
X132625000Y-110300000D01*
X132625000Y-113410000D02*
X132625000Y-112840000D01*
%TO.C,R11*%
X173460000Y-103712742D02*
X173460000Y-104187258D01*
X172415000Y-103712742D02*
X172415000Y-104187258D01*
%TO.C,C10*%
X-109147040Y-107130000D02*
X-109428200Y-107130000D01*
X-109147040Y-106110000D02*
X-109428200Y-106110000D01*
%TO.C,Q5*%
X126937500Y-81390000D02*
X126287500Y-81390000D01*
X126937500Y-81390000D02*
X127587500Y-81390000D01*
X126937500Y-84510000D02*
X125262500Y-84510000D01*
X126937500Y-84510000D02*
X127587500Y-84510000D01*
%TO.C,R17*%
X-91410362Y-128812500D02*
X-91884878Y-128812500D01*
X-91410362Y-127767500D02*
X-91884878Y-127767500D01*
%TO.C,J1*%
X122812000Y-50184000D02*
X127282000Y-50184000D01*
X122812000Y-50634000D02*
X122812000Y-50184000D01*
X122812000Y-54154000D02*
X122812000Y-54604000D01*
X122812000Y-54604000D02*
X123762000Y-54604000D01*
X123762000Y-54604000D02*
X123762000Y-56094000D01*
X127282000Y-50184000D02*
X127282000Y-50634000D01*
X127282000Y-54154000D02*
X127282000Y-54604000D01*
X127282000Y-54604000D02*
X126332000Y-54604000D01*
%TD*%
M02*
