%TF.GenerationSoftware,KiCad,Pcbnew,7.0.7+dfsg-1*%
%TF.CreationDate,2024-03-22T17:08:38+01:00*%
%TF.ProjectId,led_display,6c65645f-6469-4737-906c-61792e6b6963,rev?*%
%TF.SameCoordinates,Original*%
%TF.FileFunction,Copper,L2,Bot*%
%TF.FilePolarity,Positive*%
%FSLAX46Y46*%
G04 Gerber Fmt 4.6, Leading zero omitted, Abs format (unit mm)*
G04 Created by KiCad (PCBNEW 7.0.7+dfsg-1) date 2024-03-22 17:08:38*
%MOMM*%
%LPD*%
G01*
G04 APERTURE LIST*
G04 Aperture macros list*
%AMRoundRect*
0 Rectangle with rounded corners*
0 $1 Rounding radius*
0 $2 $3 $4 $5 $6 $7 $8 $9 X,Y pos of 4 corners*
0 Add a 4 corners polygon primitive as box body*
4,1,4,$2,$3,$4,$5,$6,$7,$8,$9,$2,$3,0*
0 Add four circle primitives for the rounded corners*
1,1,$1+$1,$2,$3*
1,1,$1+$1,$4,$5*
1,1,$1+$1,$6,$7*
1,1,$1+$1,$8,$9*
0 Add four rect primitives between the rounded corners*
20,1,$1+$1,$2,$3,$4,$5,0*
20,1,$1+$1,$4,$5,$6,$7,0*
20,1,$1+$1,$6,$7,$8,$9,0*
20,1,$1+$1,$8,$9,$2,$3,0*%
G04 Aperture macros list end*
%TA.AperFunction,SMDPad,CuDef*%
%ADD10RoundRect,0.250000X0.325000X0.650000X-0.325000X0.650000X-0.325000X-0.650000X0.325000X-0.650000X0*%
%TD*%
%TA.AperFunction,SMDPad,CuDef*%
%ADD11RoundRect,0.050000X-0.050000X0.362500X-0.050000X-0.362500X0.050000X-0.362500X0.050000X0.362500X0*%
%TD*%
%TA.AperFunction,SMDPad,CuDef*%
%ADD12RoundRect,0.050000X-0.362500X0.050000X-0.362500X-0.050000X0.362500X-0.050000X0.362500X0.050000X0*%
%TD*%
%TA.AperFunction,SMDPad,CuDef*%
%ADD13R,3.800000X2.800000*%
%TD*%
%TA.AperFunction,SMDPad,CuDef*%
%ADD14RoundRect,0.225000X-0.225000X-0.250000X0.225000X-0.250000X0.225000X0.250000X-0.225000X0.250000X0*%
%TD*%
%TA.AperFunction,SMDPad,CuDef*%
%ADD15RoundRect,0.150000X-0.587500X-0.150000X0.587500X-0.150000X0.587500X0.150000X-0.587500X0.150000X0*%
%TD*%
%TA.AperFunction,SMDPad,CuDef*%
%ADD16RoundRect,0.250000X0.650000X-0.325000X0.650000X0.325000X-0.650000X0.325000X-0.650000X-0.325000X0*%
%TD*%
%TA.AperFunction,SMDPad,CuDef*%
%ADD17RoundRect,0.200000X-0.275000X0.200000X-0.275000X-0.200000X0.275000X-0.200000X0.275000X0.200000X0*%
%TD*%
%TA.AperFunction,SMDPad,CuDef*%
%ADD18RoundRect,0.200000X0.200000X0.275000X-0.200000X0.275000X-0.200000X-0.275000X0.200000X-0.275000X0*%
%TD*%
%TA.AperFunction,SMDPad,CuDef*%
%ADD19RoundRect,0.225000X0.225000X0.250000X-0.225000X0.250000X-0.225000X-0.250000X0.225000X-0.250000X0*%
%TD*%
%TA.AperFunction,SMDPad,CuDef*%
%ADD20RoundRect,0.200000X-0.600000X0.200000X-0.600000X-0.200000X0.600000X-0.200000X0.600000X0.200000X0*%
%TD*%
%TA.AperFunction,SMDPad,CuDef*%
%ADD21RoundRect,0.250001X-1.249999X0.799999X-1.249999X-0.799999X1.249999X-0.799999X1.249999X0.799999X0*%
%TD*%
%TA.AperFunction,SMDPad,CuDef*%
%ADD22RoundRect,0.150000X0.587500X0.150000X-0.587500X0.150000X-0.587500X-0.150000X0.587500X-0.150000X0*%
%TD*%
%TA.AperFunction,SMDPad,CuDef*%
%ADD23RoundRect,0.200000X0.275000X-0.200000X0.275000X0.200000X-0.275000X0.200000X-0.275000X-0.200000X0*%
%TD*%
%TA.AperFunction,SMDPad,CuDef*%
%ADD24RoundRect,0.150000X0.512500X0.150000X-0.512500X0.150000X-0.512500X-0.150000X0.512500X-0.150000X0*%
%TD*%
%TA.AperFunction,SMDPad,CuDef*%
%ADD25RoundRect,0.200000X-0.200000X-0.275000X0.200000X-0.275000X0.200000X0.275000X-0.200000X0.275000X0*%
%TD*%
%TA.AperFunction,SMDPad,CuDef*%
%ADD26RoundRect,0.062500X-0.375000X-0.062500X0.375000X-0.062500X0.375000X0.062500X-0.375000X0.062500X0*%
%TD*%
%TA.AperFunction,SMDPad,CuDef*%
%ADD27RoundRect,0.062500X-0.062500X-0.375000X0.062500X-0.375000X0.062500X0.375000X-0.062500X0.375000X0*%
%TD*%
%TA.AperFunction,SMDPad,CuDef*%
%ADD28R,5.600000X5.600000*%
%TD*%
%TA.AperFunction,SMDPad,CuDef*%
%ADD29RoundRect,0.250000X-0.650000X0.325000X-0.650000X-0.325000X0.650000X-0.325000X0.650000X0.325000X0*%
%TD*%
%TA.AperFunction,SMDPad,CuDef*%
%ADD30RoundRect,0.200000X0.200000X0.600000X-0.200000X0.600000X-0.200000X-0.600000X0.200000X-0.600000X0*%
%TD*%
%TA.AperFunction,SMDPad,CuDef*%
%ADD31RoundRect,0.250001X0.799999X1.249999X-0.799999X1.249999X-0.799999X-1.249999X0.799999X-1.249999X0*%
%TD*%
%TA.AperFunction,SMDPad,CuDef*%
%ADD32RoundRect,0.150000X0.650000X0.150000X-0.650000X0.150000X-0.650000X-0.150000X0.650000X-0.150000X0*%
%TD*%
%TA.AperFunction,SMDPad,CuDef*%
%ADD33R,3.150000X1.000000*%
%TD*%
%TA.AperFunction,SMDPad,CuDef*%
%ADD34RoundRect,0.200000X-0.200000X-0.600000X0.200000X-0.600000X0.200000X0.600000X-0.200000X0.600000X0*%
%TD*%
%TA.AperFunction,SMDPad,CuDef*%
%ADD35RoundRect,0.250001X-0.799999X-1.249999X0.799999X-1.249999X0.799999X1.249999X-0.799999X1.249999X0*%
%TD*%
%TA.AperFunction,ViaPad*%
%ADD36C,0.500000*%
%TD*%
%TA.AperFunction,ViaPad*%
%ADD37C,0.800000*%
%TD*%
%TA.AperFunction,Conductor*%
%ADD38C,0.400000*%
%TD*%
%TA.AperFunction,Conductor*%
%ADD39C,0.250000*%
%TD*%
%TA.AperFunction,Conductor*%
%ADD40C,0.762000*%
%TD*%
%TA.AperFunction,Conductor*%
%ADD41C,0.200000*%
%TD*%
G04 APERTURE END LIST*
D10*
%TO.P,C8,1*%
%TO.N,+5V*%
X-86102620Y-118400000D03*
%TO.P,C8,2*%
%TO.N,GND*%
X-89052620Y-118400000D03*
%TD*%
D11*
%TO.P,U1,1,OUT0*%
%TO.N,Net-(D1-RK)*%
X161100000Y-68737500D03*
%TO.P,U1,2,OUT1*%
%TO.N,Net-(D1-GK)*%
X161500000Y-68737500D03*
%TO.P,U1,3,OUT2*%
%TO.N,Net-(D1-BK)*%
X161900000Y-68737500D03*
%TO.P,U1,4,OUT3*%
%TO.N,Net-(D11-RK)*%
X162300000Y-68737500D03*
%TO.P,U1,5,OUT4*%
%TO.N,Net-(D11-GK)*%
X162700000Y-68737500D03*
%TO.P,U1,6,OUT5*%
%TO.N,Net-(D11-BK)*%
X163100000Y-68737500D03*
%TO.P,U1,7,OUT6*%
%TO.N,Net-(D21-RK)*%
X163500000Y-68737500D03*
%TO.P,U1,8,OUT7*%
%TO.N,Net-(D21-GK)*%
X163900000Y-68737500D03*
%TO.P,U1,9,OUT8*%
%TO.N,Net-(D21-BK)*%
X164300000Y-68737500D03*
%TO.P,U1,10,OUT9*%
%TO.N,Net-(D31-RK)*%
X164700000Y-68737500D03*
%TO.P,U1,11,OUT10*%
%TO.N,Net-(D31-GK)*%
X165100000Y-68737500D03*
%TO.P,U1,12,OUT11*%
%TO.N,Net-(D31-BK)*%
X165500000Y-68737500D03*
%TO.P,U1,13,OUT12*%
%TO.N,Net-(D41-RK)*%
X165900000Y-68737500D03*
D12*
%TO.P,U1,14,OUT13*%
%TO.N,Net-(D41-GK)*%
X166462500Y-69400000D03*
%TO.P,U1,15,OUT14*%
%TO.N,Net-(D41-BK)*%
X166462500Y-69800000D03*
%TO.P,U1,16,OUT15*%
%TO.N,Net-(D51-RK)*%
X166462500Y-70200000D03*
%TO.P,U1,17,OUT16*%
%TO.N,Net-(D51-GK)*%
X166462500Y-70600000D03*
%TO.P,U1,18,OUT17*%
%TO.N,Net-(D51-BK)*%
X166462500Y-71000000D03*
%TO.P,U1,19,OUT18*%
%TO.N,Net-(D61-RK)*%
X166462500Y-71400000D03*
%TO.P,U1,20,OUT19*%
%TO.N,Net-(D61-GK)*%
X166462500Y-71800000D03*
%TO.P,U1,21,OUT20*%
%TO.N,Net-(D61-BK)*%
X166462500Y-72200000D03*
%TO.P,U1,22,OUT21*%
%TO.N,Net-(D71-RK)*%
X166462500Y-72600000D03*
%TO.P,U1,23,OUT22*%
%TO.N,Net-(D71-GK)*%
X166462500Y-73000000D03*
D11*
%TO.P,U1,24,OUT23*%
%TO.N,Net-(D71-BK)*%
X165900000Y-73662500D03*
%TO.P,U1,25,OUT24*%
%TO.N,Net-(D81-RK)*%
X165500000Y-73662500D03*
%TO.P,U1,26,OUT25*%
%TO.N,Net-(D81-GK)*%
X165100000Y-73662500D03*
%TO.P,U1,27,OUT26*%
%TO.N,Net-(D81-BK)*%
X164700000Y-73662500D03*
%TO.P,U1,28,OUT27*%
%TO.N,Net-(D100-RK)*%
X164300000Y-73662500D03*
%TO.P,U1,29,OUT28*%
%TO.N,Net-(D100-GK)*%
X163900000Y-73662500D03*
%TO.P,U1,30,OUT29*%
%TO.N,Net-(D100-BK)*%
X163500000Y-73662500D03*
%TO.P,U1,31,OUT30*%
%TO.N,unconnected-(U1-OUT30-Pad31)*%
X163100000Y-73662500D03*
%TO.P,U1,32,OUT31*%
%TO.N,unconnected-(U1-OUT31-Pad32)*%
X162700000Y-73662500D03*
%TO.P,U1,33,OUT32*%
%TO.N,unconnected-(U1-OUT32-Pad33)*%
X162300000Y-73662500D03*
%TO.P,U1,34,OUT33*%
%TO.N,unconnected-(U1-OUT33-Pad34)*%
X161900000Y-73662500D03*
%TO.P,U1,35,OUT34*%
%TO.N,unconnected-(U1-OUT34-Pad35)*%
X161500000Y-73662500D03*
%TO.P,U1,36,OUT35*%
%TO.N,unconnected-(U1-OUT35-Pad36)*%
X161100000Y-73662500D03*
D12*
%TO.P,U1,37,GND*%
%TO.N,GND*%
X160537500Y-73000000D03*
%TO.P,U1,38,ADDR0*%
X160537500Y-72600000D03*
%TO.P,U1,39,ADDR1*%
X160537500Y-72200000D03*
%TO.P,U1,40,VCC*%
%TO.N,+5V*%
X160537500Y-71800000D03*
%TO.P,U1,41,SDA*%
%TO.N,/DRIVER_SDA*%
X160537500Y-71400000D03*
%TO.P,U1,42,SCL*%
%TO.N,/DRIVER_SCL*%
X160537500Y-71000000D03*
%TO.P,U1,43,EN*%
%TO.N,/DRIVER_EN*%
X160537500Y-70600000D03*
%TO.P,U1,44,IREF*%
%TO.N,Net-(U1-IREF)*%
X160537500Y-70200000D03*
%TO.P,U1,45,VCAP*%
%TO.N,Net-(U1-VCAP)*%
X160537500Y-69800000D03*
%TO.P,U1,46,GND*%
%TO.N,GND*%
X160537500Y-69400000D03*
D13*
%TO.P,U1,47,GND*%
X163500000Y-71200000D03*
%TD*%
D14*
%TO.P,C6,1*%
%TO.N,+1V2*%
X140225000Y-119500000D03*
%TO.P,C6,2*%
%TO.N,GND*%
X141775000Y-119500000D03*
%TD*%
D15*
%TO.P,Q20,1,G*%
%TO.N,EN_ROW9*%
X175000000Y-108400000D03*
%TO.P,Q20,2,S*%
%TO.N,GND*%
X175000000Y-106500000D03*
%TO.P,Q20,3,D*%
%TO.N,Net-(Q10-G)*%
X176875000Y-107450000D03*
%TD*%
%TO.P,Q15,1,G*%
%TO.N,EN_ROW4*%
X126000000Y-87400000D03*
%TO.P,Q15,2,S*%
%TO.N,GND*%
X126000000Y-85500000D03*
%TO.P,Q15,3,D*%
%TO.N,Net-(Q15-D)*%
X127875000Y-86450000D03*
%TD*%
%TO.P,Q18,1,G*%
%TO.N,EN_ROW7*%
X156000000Y-87400000D03*
%TO.P,Q18,2,S*%
%TO.N,GND*%
X156000000Y-85500000D03*
%TO.P,Q18,3,D*%
%TO.N,Net-(Q18-D)*%
X157875000Y-86450000D03*
%TD*%
D16*
%TO.P,C11,1*%
%TO.N,+3.3V*%
X75644000Y-152167000D03*
%TO.P,C11,2*%
%TO.N,GND*%
X75644000Y-149217000D03*
%TD*%
D17*
%TO.P,R9,1*%
%TO.N,+5V*%
X153937500Y-82125000D03*
%TO.P,R9,2*%
%TO.N,Net-(Q18-D)*%
X153937500Y-83775000D03*
%TD*%
D18*
%TO.P,R18,1*%
%TO.N,Net-(U4-ADJ)*%
X-121702620Y-96230000D03*
%TO.P,R18,2*%
%TO.N,GND*%
X-123352620Y-96230000D03*
%TD*%
D19*
%TO.P,C14,1*%
%TO.N,+3.3V*%
X-104872620Y-113580000D03*
%TO.P,C14,2*%
%TO.N,GND*%
X-106422620Y-113580000D03*
%TD*%
D15*
%TO.P,Q8,1,G*%
%TO.N,Net-(Q18-D)*%
X156000000Y-83900000D03*
%TO.P,Q8,2,S*%
%TO.N,+5V*%
X156000000Y-82000000D03*
%TO.P,Q8,3,D*%
%TO.N,Net-(D18-BA)*%
X157875000Y-82950000D03*
%TD*%
D17*
%TO.P,R7,1*%
%TO.N,+5V*%
X133937500Y-82125000D03*
%TO.P,R7,2*%
%TO.N,Net-(Q16-D)*%
X133937500Y-83775000D03*
%TD*%
D15*
%TO.P,Q1,1,G*%
%TO.N,Net-(Q1-G)*%
X86000000Y-83900000D03*
%TO.P,Q1,2,S*%
%TO.N,+5V*%
X86000000Y-82000000D03*
%TO.P,Q1,3,D*%
%TO.N,Net-(D1-BA)*%
X87875000Y-82950000D03*
%TD*%
D18*
%TO.P,R19,1*%
%TO.N,+1V2*%
X-134372620Y-81030000D03*
%TO.P,R19,2*%
%TO.N,Net-(U5-ADJ)*%
X-136022620Y-81030000D03*
%TD*%
%TO.P,R1,1*%
%TO.N,Net-(U1-IREF)*%
X-95972620Y-119230000D03*
%TO.P,R1,2*%
%TO.N,GND*%
X-97622620Y-119230000D03*
%TD*%
D20*
%TO.P,J3,1,Pin_1*%
%TO.N,unconnected-(J3-Pin_1-Pad1)*%
X153100000Y-107125000D03*
%TO.P,J3,2,Pin_2*%
%TO.N,unconnected-(J3-Pin_2-Pad2)*%
X153100000Y-108375000D03*
%TO.P,J3,3,Pin_3*%
%TO.N,unconnected-(J3-Pin_3-Pad3)*%
X153100000Y-109625000D03*
%TO.P,J3,4,Pin_4*%
%TO.N,unconnected-(J3-Pin_4-Pad4)*%
X153100000Y-110875000D03*
%TO.P,J3,5,Pin_5*%
%TO.N,unconnected-(J3-Pin_5-Pad5)*%
X153100000Y-112125000D03*
%TO.P,J3,6,Pin_6*%
%TO.N,unconnected-(J3-Pin_6-Pad6)*%
X153100000Y-113375000D03*
%TO.P,J3,7,Pin_7*%
%TO.N,unconnected-(J3-Pin_7-Pad7)*%
X153100000Y-114625000D03*
%TO.P,J3,8,Pin_8*%
%TO.N,unconnected-(J3-Pin_8-Pad8)*%
X153100000Y-115875000D03*
D21*
%TO.P,J3,MP*%
%TO.N,N/C*%
X156000000Y-104575000D03*
X156000000Y-118425000D03*
%TD*%
D15*
%TO.P,Q3,1,G*%
%TO.N,Net-(Q13-D)*%
X106000000Y-83900000D03*
%TO.P,Q3,2,S*%
%TO.N,+5V*%
X106000000Y-82000000D03*
%TO.P,Q3,3,D*%
%TO.N,Net-(D13-BA)*%
X107875000Y-82950000D03*
%TD*%
D17*
%TO.P,R5,1*%
%TO.N,+5V*%
X113937500Y-82125000D03*
%TO.P,R5,2*%
%TO.N,Net-(Q14-D)*%
X113937500Y-83775000D03*
%TD*%
D18*
%TO.P,R12,1*%
%TO.N,+3.3V*%
X-90822620Y-125780000D03*
%TO.P,R12,2*%
%TO.N,/DRIVER_SDA*%
X-92472620Y-125780000D03*
%TD*%
D10*
%TO.P,C13,1*%
%TO.N,+1V2*%
X-66702620Y-131500000D03*
%TO.P,C13,2*%
%TO.N,GND*%
X-69652620Y-131500000D03*
%TD*%
D19*
%TO.P,C5,1*%
%TO.N,+1V2*%
X128775000Y-120000000D03*
%TO.P,C5,2*%
%TO.N,GND*%
X127225000Y-120000000D03*
%TD*%
D15*
%TO.P,Q16,1,G*%
%TO.N,EN_ROW5*%
X136000000Y-87400000D03*
%TO.P,Q16,2,S*%
%TO.N,GND*%
X136000000Y-85500000D03*
%TO.P,Q16,3,D*%
%TO.N,Net-(Q16-D)*%
X137875000Y-86450000D03*
%TD*%
%TO.P,Q13,1,G*%
%TO.N,EN_ROW2*%
X106000000Y-87400000D03*
%TO.P,Q13,2,S*%
%TO.N,GND*%
X106000000Y-85500000D03*
%TO.P,Q13,3,D*%
%TO.N,Net-(Q13-D)*%
X107875000Y-86450000D03*
%TD*%
%TO.P,Q2,1,G*%
%TO.N,Net-(Q12-D)*%
X96000000Y-83900000D03*
%TO.P,Q2,2,S*%
%TO.N,+5V*%
X96000000Y-82000000D03*
%TO.P,Q2,3,D*%
%TO.N,Net-(D12-BA)*%
X97875000Y-82950000D03*
%TD*%
D17*
%TO.P,R6,1*%
%TO.N,+5V*%
X123937500Y-82125000D03*
%TO.P,R6,2*%
%TO.N,Net-(Q15-D)*%
X123937500Y-83775000D03*
%TD*%
D10*
%TO.P,C12,1*%
%TO.N,+2V5*%
X-112092620Y-92200000D03*
%TO.P,C12,2*%
%TO.N,GND*%
X-115042620Y-92200000D03*
%TD*%
D18*
%TO.P,R13,1*%
%TO.N,+3.3V*%
X-127352620Y-90930000D03*
%TO.P,R13,2*%
%TO.N,/DRIVER_SCL*%
X-129002620Y-90930000D03*
%TD*%
D10*
%TO.P,C2,1*%
%TO.N,Net-(U1-VCAP)*%
X-94452620Y-111850000D03*
%TO.P,C2,2*%
%TO.N,GND*%
X-97402620Y-111850000D03*
%TD*%
D22*
%TO.P,Q9,1,G*%
%TO.N,Net-(Q19-D)*%
X175062500Y-117100000D03*
%TO.P,Q9,2,S*%
%TO.N,+5V*%
X175062500Y-119000000D03*
%TO.P,Q9,3,D*%
%TO.N,Net-(D19-BA)*%
X173187500Y-118050000D03*
%TD*%
D23*
%TO.P,R10,1*%
%TO.N,+5V*%
X177125000Y-118875000D03*
%TO.P,R10,2*%
%TO.N,Net-(Q19-D)*%
X177125000Y-117225000D03*
%TD*%
D24*
%TO.P,U4,1,VIN*%
%TO.N,+5V*%
X132775000Y-150000000D03*
%TO.P,U4,2,GND*%
%TO.N,GND*%
X132775000Y-150950000D03*
%TO.P,U4,3,EN*%
%TO.N,+5V*%
X132775000Y-151900000D03*
%TO.P,U4,4,ADJ*%
%TO.N,Net-(U4-ADJ)*%
X130500000Y-151900000D03*
%TO.P,U4,5,VOUT*%
%TO.N,+2V5*%
X130500000Y-150000000D03*
%TD*%
D15*
%TO.P,Q17,1,G*%
%TO.N,EN_ROW6*%
X146000000Y-87400000D03*
%TO.P,Q17,2,S*%
%TO.N,GND*%
X146000000Y-85500000D03*
%TO.P,Q17,3,D*%
%TO.N,Net-(Q17-D)*%
X147875000Y-86450000D03*
%TD*%
D22*
%TO.P,Q19,1,G*%
%TO.N,EN_ROW8*%
X175062500Y-113600000D03*
%TO.P,Q19,2,S*%
%TO.N,GND*%
X175062500Y-115500000D03*
%TO.P,Q19,3,D*%
%TO.N,Net-(Q19-D)*%
X173187500Y-114550000D03*
%TD*%
D24*
%TO.P,U5,1,VIN*%
%TO.N,+5V*%
X-86190120Y-121350000D03*
%TO.P,U5,2,GND*%
%TO.N,GND*%
X-86190120Y-122300000D03*
%TO.P,U5,3,EN*%
%TO.N,+5V*%
X-86190120Y-123250000D03*
%TO.P,U5,4,ADJ*%
%TO.N,Net-(U5-ADJ)*%
X-88465120Y-123250000D03*
%TO.P,U5,5,VOUT*%
%TO.N,+1V2*%
X-88465120Y-121350000D03*
%TD*%
%TO.P,U3,5,VOUT*%
%TO.N,+3.3V*%
X77808500Y-150250000D03*
%TO.P,U3,4,ADJ*%
%TO.N,Net-(U3-ADJ)*%
X77808500Y-152150000D03*
%TO.P,U3,3,EN*%
%TO.N,+5V*%
X80083500Y-152150000D03*
%TO.P,U3,2,GND*%
%TO.N,GND*%
X80083500Y-151200000D03*
%TO.P,U3,1,VIN*%
%TO.N,+5V*%
X80083500Y-150250000D03*
%TD*%
D25*
%TO.P,R16,1*%
%TO.N,Net-(U3-ADJ)*%
X79899000Y-153740000D03*
%TO.P,R16,2*%
%TO.N,GND*%
X81549000Y-153740000D03*
%TD*%
D10*
%TO.P,C3,1*%
%TO.N,+5V*%
X126649000Y-58236000D03*
%TO.P,C3,2*%
%TO.N,GND*%
X123699000Y-58236000D03*
%TD*%
D15*
%TO.P,Q7,1,G*%
%TO.N,Net-(Q17-D)*%
X146000000Y-83900000D03*
%TO.P,Q7,2,S*%
%TO.N,+5V*%
X146000000Y-82000000D03*
%TO.P,Q7,3,D*%
%TO.N,Net-(D17-BA)*%
X147875000Y-82950000D03*
%TD*%
%TO.P,Q12,1,G*%
%TO.N,EN_ROW1*%
X96000000Y-87400000D03*
%TO.P,Q12,2,S*%
%TO.N,GND*%
X96000000Y-85500000D03*
%TO.P,Q12,3,D*%
%TO.N,Net-(Q12-D)*%
X97875000Y-86450000D03*
%TD*%
D17*
%TO.P,R4,1*%
%TO.N,+5V*%
X103937500Y-82125000D03*
%TO.P,R4,2*%
%TO.N,Net-(Q13-D)*%
X103937500Y-83775000D03*
%TD*%
D25*
%TO.P,R15,2*%
%TO.N,Net-(U3-ADJ)*%
X78184000Y-153740000D03*
%TO.P,R15,1*%
%TO.N,+3.3V*%
X76534000Y-153740000D03*
%TD*%
D17*
%TO.P,R3,1*%
%TO.N,+5V*%
X93937500Y-82125000D03*
%TO.P,R3,2*%
%TO.N,Net-(Q12-D)*%
X93937500Y-83775000D03*
%TD*%
D26*
%TO.P,U2,1,VCCIO_2*%
%TO.N,+3.3V*%
X131662500Y-122550000D03*
%TO.P,U2,2,IOB_6a*%
%TO.N,unconnected-(U2C-IOB_6a-Pad2)*%
X131662500Y-122050000D03*
%TO.P,U2,3,IOB_9b*%
%TO.N,unconnected-(U2C-IOB_9b-Pad3)*%
X131662500Y-121550000D03*
%TO.P,U2,4,IOB_8a*%
%TO.N,unconnected-(U2C-IOB_8a-Pad4)*%
X131662500Y-121050000D03*
%TO.P,U2,5,VCC*%
%TO.N,+1V2*%
X131662500Y-120550000D03*
%TO.P,U2,6,IOB_13b*%
%TO.N,unconnected-(U2B-IOB_13b-Pad6)*%
X131662500Y-120050000D03*
%TO.P,U2,7,CDONE*%
%TO.N,/FPGA_DONE*%
X131662500Y-119550000D03*
%TO.P,U2,8,~{CRESET}*%
%TO.N,/~{FPGA_RESET}*%
X131662500Y-119050000D03*
%TO.P,U2,9,IOB_16a*%
%TO.N,unconnected-(U2B-IOB_16a-Pad9)*%
X131662500Y-118550000D03*
%TO.P,U2,10,IOB_18a*%
%TO.N,unconnected-(U2B-IOB_18a-Pad10)*%
X131662500Y-118050000D03*
%TO.P,U2,11,IOB_20a*%
%TO.N,unconnected-(U2B-IOB_20a-Pad11)*%
X131662500Y-117550000D03*
%TO.P,U2,12,IOB_22b*%
%TO.N,unconnected-(U2B-IOB_22b-Pad12)*%
X131662500Y-117050000D03*
D27*
%TO.P,U2,13,IOB_24a*%
%TO.N,unconnected-(U2B-IOB_24a-Pad13)*%
X132350000Y-116362500D03*
%TO.P,U2,14,IOB_32a_SPI_SO*%
%TO.N,/FLASH_MOSI*%
X132850000Y-116362500D03*
%TO.P,U2,15,IOB_34a_SPI_SCK*%
%TO.N,/FLASH_CLK*%
X133350000Y-116362500D03*
%TO.P,U2,16,IOB_35b_SPI_SS*%
%TO.N,/~{FLASH_CS}*%
X133850000Y-116362500D03*
%TO.P,U2,17,IOB_33b_SPI_SI*%
%TO.N,/FLASH_MISO*%
X134350000Y-116362500D03*
%TO.P,U2,18,IOB_31b*%
%TO.N,unconnected-(U2B-IOB_31b-Pad18)*%
X134850000Y-116362500D03*
%TO.P,U2,19,IOB_29b*%
%TO.N,unconnected-(U2B-IOB_29b-Pad19)*%
X135350000Y-116362500D03*
%TO.P,U2,20,IOB_25b_G3*%
%TO.N,unconnected-(U2B-IOB_25b_G3-Pad20)*%
X135850000Y-116362500D03*
%TO.P,U2,21,IOB_23b*%
%TO.N,unconnected-(U2B-IOB_23b-Pad21)*%
X136350000Y-116362500D03*
%TO.P,U2,22,SPI_VCCIO1*%
%TO.N,+3.3V*%
X136850000Y-116362500D03*
%TO.P,U2,23,IOT_37a*%
%TO.N,unconnected-(U2A-IOT_37a-Pad23)*%
X137350000Y-116362500D03*
%TO.P,U2,24,VPP_2V5*%
%TO.N,+2V5*%
X137850000Y-116362500D03*
D26*
%TO.P,U2,25,IOT_36b*%
%TO.N,unconnected-(U2A-IOT_36b-Pad25)*%
X138537500Y-117050000D03*
%TO.P,U2,26,IOT_39a*%
%TO.N,unconnected-(U2A-IOT_39a-Pad26)*%
X138537500Y-117550000D03*
%TO.P,U2,27,IOT_38b*%
%TO.N,unconnected-(U2A-IOT_38b-Pad27)*%
X138537500Y-118050000D03*
%TO.P,U2,28,IOT_41a*%
%TO.N,unconnected-(U2A-IOT_41a-Pad28)*%
X138537500Y-118550000D03*
%TO.P,U2,29,VCCPLL*%
%TO.N,+1V2*%
X138537500Y-119050000D03*
%TO.P,U2,30,VCC*%
X138537500Y-119550000D03*
%TO.P,U2,31,IOT_42b*%
%TO.N,unconnected-(U2A-IOT_42b-Pad31)*%
X138537500Y-120050000D03*
%TO.P,U2,32,IOT_43a*%
%TO.N,unconnected-(U2A-IOT_43a-Pad32)*%
X138537500Y-120550000D03*
%TO.P,U2,33,VCCIO_0*%
%TO.N,+3.3V*%
X138537500Y-121050000D03*
%TO.P,U2,34,IOT_44b*%
%TO.N,unconnected-(U2A-IOT_44b-Pad34)*%
X138537500Y-121550000D03*
%TO.P,U2,35,IOT_46b_G0*%
%TO.N,unconnected-(U2A-IOT_46b_G0-Pad35)*%
X138537500Y-122050000D03*
%TO.P,U2,36,IOT_48b*%
%TO.N,unconnected-(U2A-IOT_48b-Pad36)*%
X138537500Y-122550000D03*
D27*
%TO.P,U2,37,IOT_45a_G1*%
%TO.N,unconnected-(U2A-IOT_45a_G1-Pad37)*%
X137850000Y-123237500D03*
%TO.P,U2,38,IOT_50b*%
%TO.N,unconnected-(U2A-IOT_50b-Pad38)*%
X137350000Y-123237500D03*
%TO.P,U2,39,RGB0*%
%TO.N,unconnected-(U2A-RGB0-Pad39)*%
X136850000Y-123237500D03*
%TO.P,U2,40,RGB1*%
%TO.N,unconnected-(U2A-RGB1-Pad40)*%
X136350000Y-123237500D03*
%TO.P,U2,41,RGB2*%
%TO.N,unconnected-(U2A-RGB2-Pad41)*%
X135850000Y-123237500D03*
%TO.P,U2,42,IOT_51a*%
%TO.N,unconnected-(U2A-IOT_51a-Pad42)*%
X135350000Y-123237500D03*
%TO.P,U2,43,IOT_49a*%
%TO.N,unconnected-(U2A-IOT_49a-Pad43)*%
X134850000Y-123237500D03*
%TO.P,U2,44,IOB_3b_G6*%
%TO.N,/DRIVER_SDA*%
X134350000Y-123237500D03*
%TO.P,U2,45,IOB_5b*%
%TO.N,unconnected-(U2C-IOB_5b-Pad45)*%
X133850000Y-123237500D03*
%TO.P,U2,46,IOB_0a*%
%TO.N,unconnected-(U2C-IOB_0a-Pad46)*%
X133350000Y-123237500D03*
%TO.P,U2,47,IOB_2a*%
%TO.N,/DRIVER_SCL*%
X132850000Y-123237500D03*
%TO.P,U2,48,IOB_4a*%
%TO.N,/DRIVER_EN*%
X132350000Y-123237500D03*
D28*
%TO.P,U2,49,GND*%
%TO.N,GND*%
X135100000Y-119800000D03*
%TD*%
D29*
%TO.P,C7,1*%
%TO.N,+5V*%
X82248000Y-149217000D03*
%TO.P,C7,2*%
%TO.N,GND*%
X82248000Y-152167000D03*
%TD*%
D15*
%TO.P,Q14,1,G*%
%TO.N,EN_ROW3*%
X116000000Y-87400000D03*
%TO.P,Q14,2,S*%
%TO.N,GND*%
X116000000Y-85500000D03*
%TO.P,Q14,3,D*%
%TO.N,Net-(Q14-D)*%
X117875000Y-86450000D03*
%TD*%
D18*
%TO.P,R14,1*%
%TO.N,/DRIVER_EN*%
X-140882620Y-76580000D03*
%TO.P,R14,2*%
%TO.N,GND*%
X-142532620Y-76580000D03*
%TD*%
D30*
%TO.P,J2,1,Pin_1*%
%TO.N,unconnected-(J2-Pin_1-Pad1)*%
X-60092620Y-63230000D03*
%TO.P,J2,2,Pin_2*%
%TO.N,unconnected-(J2-Pin_2-Pad2)*%
X-61342620Y-63230000D03*
%TO.P,J2,3,Pin_3*%
%TO.N,unconnected-(J2-Pin_3-Pad3)*%
X-62592620Y-63230000D03*
%TO.P,J2,4,Pin_4*%
%TO.N,unconnected-(J2-Pin_4-Pad4)*%
X-63842620Y-63230000D03*
%TO.P,J2,5,Pin_5*%
%TO.N,unconnected-(J2-Pin_5-Pad5)*%
X-65092620Y-63230000D03*
%TO.P,J2,6,Pin_6*%
%TO.N,unconnected-(J2-Pin_6-Pad6)*%
X-66342620Y-63230000D03*
%TO.P,J2,7,Pin_7*%
%TO.N,unconnected-(J2-Pin_7-Pad7)*%
X-67592620Y-63230000D03*
%TO.P,J2,8,Pin_8*%
%TO.N,unconnected-(J2-Pin_8-Pad8)*%
X-68842620Y-63230000D03*
D31*
%TO.P,J2,MP*%
%TO.N,N/C*%
X-57542620Y-66130000D03*
X-71392620Y-66130000D03*
%TD*%
D10*
%TO.P,C9,1*%
%TO.N,+5V*%
X-27652620Y-131940000D03*
%TO.P,C9,2*%
%TO.N,GND*%
X-30602620Y-131940000D03*
%TD*%
D15*
%TO.P,Q4,1,G*%
%TO.N,Net-(Q14-D)*%
X116000000Y-83900000D03*
%TO.P,Q4,2,S*%
%TO.N,+5V*%
X116000000Y-82000000D03*
%TO.P,Q4,3,D*%
%TO.N,Net-(D14-BA)*%
X117875000Y-82950000D03*
%TD*%
D32*
%TO.P,U6,1,~{CS}*%
%TO.N,/~{FLASH_CS}*%
X142700000Y-108230000D03*
%TO.P,U6,2,DO(IO1)*%
%TO.N,/FLASH_MISO*%
X142700000Y-109500000D03*
%TO.P,U6,3,IO2*%
%TO.N,+3.3V*%
X142700000Y-110770000D03*
%TO.P,U6,4,GND*%
%TO.N,GND*%
X142700000Y-112040000D03*
%TO.P,U6,5,DI(IO0)*%
%TO.N,/FLASH_MOSI*%
X135500000Y-112040000D03*
%TO.P,U6,6,CLK*%
%TO.N,/FLASH_CLK*%
X135500000Y-110770000D03*
%TO.P,U6,7,IO3*%
%TO.N,+3.3V*%
X135500000Y-109500000D03*
%TO.P,U6,8,VCC*%
X135500000Y-108230000D03*
%TD*%
D15*
%TO.P,Q11,1,G*%
%TO.N,EN_ROW0*%
X86000000Y-87400000D03*
%TO.P,Q11,2,S*%
%TO.N,GND*%
X86000000Y-85500000D03*
%TO.P,Q11,3,D*%
%TO.N,Net-(Q1-G)*%
X87875000Y-86450000D03*
%TD*%
%TO.P,Q6,1,G*%
%TO.N,Net-(Q16-D)*%
X136000000Y-83900000D03*
%TO.P,Q6,2,S*%
%TO.N,+5V*%
X136000000Y-82000000D03*
%TO.P,Q6,3,D*%
%TO.N,Net-(D16-BA)*%
X137875000Y-82950000D03*
%TD*%
D18*
%TO.P,R20,1*%
%TO.N,Net-(U5-ADJ)*%
X-59032620Y-78680000D03*
%TO.P,R20,2*%
%TO.N,GND*%
X-60682620Y-78680000D03*
%TD*%
D15*
%TO.P,Q10,1,G*%
%TO.N,Net-(Q10-G)*%
X175000000Y-104900000D03*
%TO.P,Q10,2,S*%
%TO.N,+5V*%
X175000000Y-103000000D03*
%TO.P,Q10,3,D*%
%TO.N,Net-(D10-BA)*%
X176875000Y-103950000D03*
%TD*%
D17*
%TO.P,R8,1*%
%TO.N,+5V*%
X143937500Y-82125000D03*
%TO.P,R8,2*%
%TO.N,Net-(Q17-D)*%
X143937500Y-83775000D03*
%TD*%
%TO.P,R2,1*%
%TO.N,+5V*%
X83937500Y-82125000D03*
%TO.P,R2,2*%
%TO.N,Net-(Q1-G)*%
X83937500Y-83775000D03*
%TD*%
D19*
%TO.P,C4,1*%
%TO.N,+2V5*%
X-100032620Y-118390000D03*
%TO.P,C4,2*%
%TO.N,GND*%
X-101582620Y-118390000D03*
%TD*%
%TO.P,C1,1*%
%TO.N,+5V*%
X-115802620Y-100680000D03*
%TO.P,C1,2*%
%TO.N,GND*%
X-117352620Y-100680000D03*
%TD*%
D33*
%TO.P,J4,1,Pin_1*%
%TO.N,+3.3V*%
X127500000Y-112080000D03*
%TO.P,J4,2,Pin_2*%
%TO.N,/FLASH_MOSI*%
X132550000Y-112080000D03*
%TO.P,J4,3,Pin_3*%
%TO.N,/~{FPGA_RESET}*%
X127500000Y-109540000D03*
%TO.P,J4,4,Pin_4*%
%TO.N,/FLASH_CLK*%
X132550000Y-109540000D03*
%TO.P,J4,5,Pin_5*%
%TO.N,/FPGA_DONE*%
X127500000Y-107000000D03*
%TO.P,J4,6,Pin_6*%
%TO.N,unconnected-(J4-Pin_6-Pad6)*%
X132550000Y-107000000D03*
%TO.P,J4,7,Pin_7*%
%TO.N,GND*%
X127500000Y-104460000D03*
%TO.P,J4,8,Pin_8*%
%TO.N,/~{FLASH_CS}*%
X132550000Y-104460000D03*
%TO.P,J4,9,Pin_9*%
%TO.N,GND*%
X127500000Y-101920000D03*
%TO.P,J4,10,Pin_10*%
%TO.N,/FLASH_MISO*%
X132550000Y-101920000D03*
%TD*%
D17*
%TO.P,R11,1*%
%TO.N,+5V*%
X172937500Y-103125000D03*
%TO.P,R11,2*%
%TO.N,Net-(Q10-G)*%
X172937500Y-104775000D03*
%TD*%
D19*
%TO.P,C10,1*%
%TO.N,+3.3V*%
X-108512620Y-106620000D03*
%TO.P,C10,2*%
%TO.N,GND*%
X-110062620Y-106620000D03*
%TD*%
D15*
%TO.P,Q5,1,G*%
%TO.N,Net-(Q15-D)*%
X126000000Y-83900000D03*
%TO.P,Q5,2,S*%
%TO.N,+5V*%
X126000000Y-82000000D03*
%TO.P,Q5,3,D*%
%TO.N,Net-(D15-BA)*%
X127875000Y-82950000D03*
%TD*%
D18*
%TO.P,R17,1*%
%TO.N,+2V5*%
X-90822620Y-128290000D03*
%TO.P,R17,2*%
%TO.N,Net-(U4-ADJ)*%
X-92472620Y-128290000D03*
%TD*%
D34*
%TO.P,J1,1,Pin_1*%
%TO.N,GND*%
X124422000Y-55294000D03*
%TO.P,J1,2,Pin_2*%
%TO.N,+5V*%
X125672000Y-55294000D03*
D35*
%TO.P,J1,MP*%
%TO.N,N/C*%
X121872000Y-52394000D03*
X128222000Y-52394000D03*
%TD*%
D36*
%TO.N,GND*%
X77168000Y-149217000D03*
%TO.N,Net-(D1-RK)*%
X161000000Y-26500000D03*
%TO.N,Net-(D1-GK)*%
X165000000Y-33500000D03*
%TO.N,Net-(D1-BK)*%
X164500000Y-35000000D03*
D37*
%TO.N,Net-(D1-BA)*%
X90000000Y-78000000D03*
X90000000Y-58000000D03*
X90000000Y-38000000D03*
X90000000Y-68000000D03*
X90000000Y-108000000D03*
X90000000Y-88000000D03*
X90000000Y-98000000D03*
X90000000Y-118000000D03*
X90000000Y-48000000D03*
X90000000Y-28500000D03*
%TO.N,Net-(D12-BA)*%
X100000000Y-68000000D03*
X100000000Y-118000000D03*
X100000000Y-48000000D03*
X100000000Y-108000000D03*
X100000000Y-78000000D03*
X100000000Y-88000000D03*
X100000000Y-28500000D03*
X100000000Y-98000000D03*
X100000000Y-38000000D03*
X100000000Y-58000000D03*
%TO.N,Net-(D13-BA)*%
X110000000Y-88000000D03*
X110000000Y-28500000D03*
X110000000Y-98000000D03*
X110000000Y-38000000D03*
X110000000Y-78000000D03*
X110000000Y-68000000D03*
X110000000Y-108000000D03*
X110000000Y-58000000D03*
X110000000Y-48000000D03*
X110000000Y-118000000D03*
%TO.N,Net-(D14-BA)*%
X120000000Y-28500000D03*
X120000000Y-78000000D03*
X120000000Y-88000000D03*
X120000000Y-108000000D03*
X120000000Y-58000000D03*
X120000000Y-68000000D03*
X120000000Y-118000000D03*
X120000000Y-38000000D03*
X120000000Y-48000000D03*
X120000000Y-98000000D03*
%TO.N,Net-(D15-BA)*%
X130000000Y-88000000D03*
X130000000Y-28500000D03*
X130000000Y-48000000D03*
X130000000Y-58000000D03*
X130000000Y-108000000D03*
X130000000Y-38000000D03*
X130000000Y-98000000D03*
X130000000Y-116000000D03*
X130000000Y-78000000D03*
X130000000Y-68000000D03*
%TO.N,Net-(D16-BA)*%
X140000000Y-78000000D03*
X140000000Y-28500000D03*
X140000000Y-58000000D03*
X139000000Y-108000000D03*
X140000000Y-48000000D03*
X140000000Y-68000000D03*
X140000000Y-88000000D03*
X140000000Y-38000000D03*
X141500000Y-117000000D03*
X140000000Y-98000000D03*
%TO.N,Net-(D17-BA)*%
X150000000Y-68000000D03*
X150000000Y-78000000D03*
X150000000Y-48000000D03*
X150000000Y-38000000D03*
X150000000Y-108000000D03*
X150000000Y-28500000D03*
X150000000Y-88000000D03*
X150000000Y-118000000D03*
X150000000Y-58000000D03*
X150000000Y-98000000D03*
%TO.N,Net-(D18-BA)*%
X160000000Y-58000000D03*
X160000000Y-38000000D03*
X160000000Y-48000000D03*
X160000000Y-88000000D03*
X160000000Y-98000000D03*
X160000000Y-68000000D03*
X160000000Y-28500000D03*
X160000000Y-78000000D03*
X160000000Y-118000000D03*
X160000000Y-108000000D03*
%TO.N,Net-(D19-BA)*%
X171000000Y-98000000D03*
X171000000Y-108000000D03*
X171000000Y-78000000D03*
X170000000Y-28500000D03*
X170000000Y-38000000D03*
X171000000Y-118000000D03*
X171000000Y-88000000D03*
X170000000Y-68000000D03*
X170000000Y-48000000D03*
X170000000Y-58000000D03*
%TO.N,Net-(D10-BA)*%
X177400000Y-103000000D03*
D36*
%TO.N,Net-(D11-RK)*%
X164000000Y-36500000D03*
%TO.N,Net-(D11-GK)*%
X165000000Y-43500000D03*
%TO.N,Net-(D11-BK)*%
X164500000Y-45000000D03*
%TO.N,Net-(D21-RK)*%
X164500000Y-46500000D03*
%TO.N,Net-(D21-GK)*%
X165000000Y-53500000D03*
%TO.N,Net-(D21-BK)*%
X165500000Y-55000000D03*
%TO.N,Net-(D31-RK)*%
X166000000Y-56500000D03*
%TO.N,Net-(D31-GK)*%
X166500000Y-63500000D03*
%TO.N,Net-(D31-BK)*%
X167000000Y-65000000D03*
%TO.N,Net-(D41-RK)*%
X167500000Y-66500000D03*
%TO.N,Net-(D41-GK)*%
X171000000Y-69000000D03*
%TO.N,Net-(D41-BK)*%
X172600000Y-73000000D03*
%TO.N,Net-(D51-RK)*%
X172600000Y-76500000D03*
%TO.N,Net-(D51-GK)*%
X171000000Y-83500000D03*
%TO.N,Net-(D51-BK)*%
X170000000Y-85000000D03*
%TO.N,Net-(D61-RK)*%
X169500000Y-86500000D03*
%TO.N,Net-(D61-GK)*%
X169000000Y-93500000D03*
%TO.N,Net-(D61-BK)*%
X168500000Y-95000000D03*
%TO.N,Net-(D71-RK)*%
X168000000Y-96500000D03*
%TO.N,Net-(D71-GK)*%
X167500000Y-103500000D03*
%TO.N,Net-(D71-BK)*%
X167000000Y-105000000D03*
%TO.N,Net-(D81-RK)*%
X166500000Y-106500000D03*
%TO.N,Net-(D81-GK)*%
X166000000Y-113500000D03*
%TO.N,Net-(D81-BK)*%
X165500000Y-115000000D03*
%TO.N,Net-(D100-RK)*%
X165000000Y-116500000D03*
%TO.N,Net-(D100-GK)*%
X164500000Y-120000000D03*
D37*
%TO.N,Net-(D100-BK)*%
X162600000Y-122500000D03*
%TD*%
D38*
%TO.N,GND*%
X77168000Y-149217000D02*
X75644000Y-149217000D01*
D39*
%TO.N,+5V*%
X80083500Y-152150000D02*
X79134000Y-152150000D01*
X78946000Y-151962000D02*
X78946000Y-150438000D01*
X78946000Y-150438000D02*
X79134000Y-150250000D01*
X79134000Y-152150000D02*
X78946000Y-151962000D01*
X79134000Y-150250000D02*
X80083500Y-150250000D01*
%TO.N,Net-(U3-ADJ)*%
X78184000Y-153740000D02*
X78184000Y-152525500D01*
X78184000Y-152525500D02*
X77808500Y-152150000D01*
X79899000Y-153740000D02*
X78184000Y-153740000D01*
D40*
%TO.N,Net-(D15-BA)*%
X130000000Y-48000000D02*
X132540000Y-50540000D01*
X132540000Y-55460000D02*
X130000000Y-58000000D01*
X132540000Y-50540000D02*
X132540000Y-55460000D01*
%TO.N,Net-(D14-BA)*%
X120000000Y-48000000D02*
X117300000Y-50700000D01*
X117300000Y-50700000D02*
X117300000Y-55300000D01*
X117300000Y-55300000D02*
X120000000Y-58000000D01*
D39*
%TO.N,+5V*%
X175062500Y-119000000D02*
X177000000Y-119000000D01*
X106000000Y-82000000D02*
X104062500Y-82000000D01*
X144062500Y-82000000D02*
X143937500Y-82125000D01*
X126000000Y-82000000D02*
X124062500Y-82000000D01*
X173062500Y-103000000D02*
X172937500Y-103125000D01*
X177000000Y-119000000D02*
X177125000Y-118875000D01*
X83937500Y-82125000D02*
X83812500Y-82000000D01*
X95062500Y-82000000D02*
X94062500Y-82000000D01*
X136000000Y-82000000D02*
X134062500Y-82000000D01*
X123937500Y-82125000D02*
X123812500Y-82000000D01*
X104062500Y-82000000D02*
X103937500Y-82125000D01*
X96000000Y-82000000D02*
X95062500Y-82000000D01*
X134062500Y-82000000D02*
X133937500Y-82125000D01*
X93937500Y-82125000D02*
X93812500Y-82000000D01*
X116000000Y-82000000D02*
X114062500Y-82000000D01*
X114062500Y-82000000D02*
X113937500Y-82125000D01*
X124062500Y-82000000D02*
X123937500Y-82125000D01*
X175000000Y-103000000D02*
X173062500Y-103000000D01*
X103937500Y-82125000D02*
X103812500Y-82000000D01*
X133937500Y-82125000D02*
X133812500Y-82000000D01*
X156000000Y-82000000D02*
X154062500Y-82000000D01*
X154062500Y-82000000D02*
X153937500Y-82125000D01*
X146000000Y-82000000D02*
X144062500Y-82000000D01*
X84062500Y-82000000D02*
X83937500Y-82125000D01*
X85062500Y-82000000D02*
X84062500Y-82000000D01*
X94062500Y-82000000D02*
X93937500Y-82125000D01*
X113937500Y-82125000D02*
X113812500Y-82000000D01*
X86000000Y-82000000D02*
X85062500Y-82000000D01*
D41*
%TO.N,Net-(D1-RK)*%
X161100000Y-67665685D02*
X161100000Y-68737500D01*
X161000000Y-26500000D02*
X161000000Y-67565685D01*
X161000000Y-67565685D02*
X161100000Y-67665685D01*
%TO.N,Net-(D1-GK)*%
X161500000Y-37000000D02*
X161500000Y-68737500D01*
X165000000Y-33500000D02*
X161500000Y-37000000D01*
%TO.N,Net-(D1-BK)*%
X162000000Y-66000000D02*
X161900000Y-66100000D01*
X161900000Y-66100000D02*
X161900000Y-68737500D01*
X164500000Y-35000000D02*
X162000000Y-37500000D01*
X162000000Y-37500000D02*
X162000000Y-66000000D01*
D40*
%TO.N,Net-(D1-BA)*%
X90000000Y-38000000D02*
X90000000Y-48000000D01*
X90000000Y-98000000D02*
X90000000Y-108000000D01*
X90000000Y-48000000D02*
X90000000Y-58000000D01*
X90000000Y-28500000D02*
X90000000Y-38000000D01*
X90000000Y-78000000D02*
X90000000Y-88000000D01*
X90000000Y-88000000D02*
X90000000Y-98000000D01*
X90000000Y-58000000D02*
X90000000Y-68000000D01*
X90000000Y-108000000D02*
X90000000Y-118000000D01*
X90000000Y-68000000D02*
X90000000Y-78000000D01*
%TO.N,Net-(D12-BA)*%
X100000000Y-38000000D02*
X100000000Y-48000000D01*
X100000000Y-78000000D02*
X100000000Y-88000000D01*
X100000000Y-28500000D02*
X100000000Y-38000000D01*
X100000000Y-88000000D02*
X100000000Y-98000000D01*
X100000000Y-108000000D02*
X100000000Y-118000000D01*
X100000000Y-48000000D02*
X100000000Y-58000000D01*
X100000000Y-58000000D02*
X100000000Y-68000000D01*
X100000000Y-68000000D02*
X100000000Y-78000000D01*
X100000000Y-98000000D02*
X100000000Y-108000000D01*
%TO.N,Net-(D13-BA)*%
X110000000Y-88000000D02*
X110000000Y-98000000D01*
X110000000Y-48000000D02*
X110000000Y-58000000D01*
X110000000Y-68000000D02*
X110000000Y-78000000D01*
X110000000Y-78000000D02*
X110000000Y-88000000D01*
X110000000Y-38000000D02*
X110000000Y-48000000D01*
X110000000Y-58000000D02*
X110000000Y-68000000D01*
X110000000Y-28500000D02*
X110000000Y-38000000D01*
X110000000Y-98000000D02*
X110000000Y-108000000D01*
X110000000Y-108000000D02*
X110000000Y-118000000D01*
%TO.N,Net-(D14-BA)*%
X120000000Y-68000000D02*
X120000000Y-78000000D01*
X120000000Y-88000000D02*
X120000000Y-98000000D01*
X120000000Y-38000000D02*
X120000000Y-48000000D01*
X120000000Y-28500000D02*
X120000000Y-38000000D01*
X120000000Y-108000000D02*
X120000000Y-118000000D01*
X120000000Y-58000000D02*
X120000000Y-68000000D01*
X120000000Y-78000000D02*
X120000000Y-88000000D01*
X120000000Y-98000000D02*
X120000000Y-108000000D01*
%TO.N,Net-(D15-BA)*%
X130000000Y-38000000D02*
X130000000Y-48000000D01*
X130000000Y-108000000D02*
X130000000Y-116000000D01*
X130000000Y-58000000D02*
X130000000Y-68000000D01*
X130000000Y-68000000D02*
X130000000Y-78000000D01*
X130000000Y-88000000D02*
X130000000Y-98000000D01*
X130000000Y-98000000D02*
X130000000Y-108000000D01*
X130000000Y-78000000D02*
X130000000Y-88000000D01*
X130000000Y-28500000D02*
X130000000Y-38000000D01*
%TO.N,Net-(D16-BA)*%
X146000000Y-115000000D02*
X146000000Y-106000000D01*
X140000000Y-98000000D02*
X140000000Y-103500000D01*
X141500000Y-117000000D02*
X144000000Y-117000000D01*
X143500000Y-103500000D02*
X140000000Y-103500000D01*
X140000000Y-38000000D02*
X140000000Y-48000000D01*
X144000000Y-117000000D02*
X146000000Y-115000000D01*
X140000000Y-58000000D02*
X140000000Y-68000000D01*
X140000000Y-68000000D02*
X140000000Y-78000000D01*
X140000000Y-48000000D02*
X140000000Y-58000000D01*
X140000000Y-103500000D02*
X139000000Y-104500000D01*
X139000000Y-104500000D02*
X139000000Y-108000000D01*
X146000000Y-106000000D02*
X143500000Y-103500000D01*
X140000000Y-28500000D02*
X140000000Y-38000000D01*
X140000000Y-78000000D02*
X140000000Y-88000000D01*
X140000000Y-88000000D02*
X140000000Y-98000000D01*
%TO.N,Net-(D17-BA)*%
X150000000Y-98000000D02*
X150000000Y-108000000D01*
X150000000Y-28500000D02*
X150000000Y-30500000D01*
X150000000Y-108000000D02*
X150000000Y-118000000D01*
X150000000Y-68000000D02*
X150000000Y-78000000D01*
X150000000Y-58000000D02*
X150000000Y-68000000D01*
X150000000Y-30500000D02*
X150000000Y-38000000D01*
X150000000Y-48000000D02*
X150000000Y-58000000D01*
X150000000Y-78000000D02*
X150000000Y-88000000D01*
X150000000Y-38000000D02*
X150000000Y-48000000D01*
X150000000Y-88000000D02*
X150000000Y-98000000D01*
%TO.N,Net-(D18-BA)*%
X160000000Y-48000000D02*
X160000000Y-58000000D01*
X160000000Y-105000000D02*
X160000000Y-108000000D01*
X157000000Y-75000000D02*
X160000000Y-78000000D01*
X157000000Y-71000000D02*
X157000000Y-75000000D01*
X160000000Y-98000000D02*
X160000000Y-105000000D01*
X160000000Y-78000000D02*
X160000000Y-88000000D01*
X160000000Y-88000000D02*
X160000000Y-98000000D01*
X160000000Y-30500000D02*
X160000000Y-38000000D01*
X160000000Y-68000000D02*
X157000000Y-71000000D01*
X160000000Y-28500000D02*
X160000000Y-30500000D01*
X160000000Y-108000000D02*
X160000000Y-118000000D01*
X160000000Y-38000000D02*
X160000000Y-48000000D01*
X160000000Y-58000000D02*
X160000000Y-68000000D01*
%TO.N,Net-(D19-BA)*%
X172000000Y-68000000D02*
X170000000Y-68000000D01*
X171000000Y-108000000D02*
X171000000Y-98000000D01*
X174000000Y-77000000D02*
X174000000Y-70000000D01*
X173000000Y-78000000D02*
X174000000Y-77000000D01*
X171000000Y-78000000D02*
X173000000Y-78000000D01*
X172000000Y-87000000D02*
X172000000Y-79000000D01*
X170000000Y-31000000D02*
X170000000Y-38000000D01*
X170000000Y-28500000D02*
X170000000Y-31000000D01*
X170000000Y-38000000D02*
X170000000Y-48000000D01*
X171000000Y-118000000D02*
X171000000Y-108000000D01*
X171000000Y-98000000D02*
X171000000Y-88000000D01*
X174000000Y-70000000D02*
X172000000Y-68000000D01*
X170000000Y-58000000D02*
X170000000Y-68000000D01*
X170000000Y-48000000D02*
X170000000Y-58000000D01*
X172000000Y-79000000D02*
X171000000Y-78000000D01*
X171000000Y-88000000D02*
X172000000Y-87000000D01*
%TO.N,Net-(D10-BA)*%
X176875000Y-103525000D02*
X177400000Y-103000000D01*
X176875000Y-103950000D02*
X176875000Y-103525000D01*
D41*
%TO.N,Net-(D11-RK)*%
X162300000Y-66265686D02*
X162300000Y-68737500D01*
X162500000Y-38000000D02*
X162500000Y-66065686D01*
X162500000Y-66065686D02*
X162300000Y-66265686D01*
X164000000Y-36500000D02*
X162500000Y-38000000D01*
%TO.N,Net-(D11-GK)*%
X162700000Y-66431371D02*
X162700000Y-68737500D01*
X163000000Y-45500000D02*
X163000000Y-66131371D01*
X165000000Y-43500000D02*
X163000000Y-45500000D01*
X163000000Y-66131371D02*
X162700000Y-66431371D01*
%TO.N,Net-(D11-BK)*%
X163500000Y-46000000D02*
X163500000Y-66197057D01*
X163500000Y-66197057D02*
X163100000Y-66597057D01*
X164500000Y-45000000D02*
X163500000Y-46000000D01*
X163100000Y-66597057D02*
X163100000Y-68737500D01*
%TO.N,Net-(D21-RK)*%
X164000000Y-66262743D02*
X164000000Y-47000000D01*
X164000000Y-47000000D02*
X164500000Y-46500000D01*
X163500000Y-68737500D02*
X163500000Y-66762743D01*
X163500000Y-66762743D02*
X164000000Y-66262743D01*
%TO.N,Net-(D21-GK)*%
X163900000Y-66928429D02*
X164500000Y-66328429D01*
X164500000Y-66328429D02*
X164500000Y-54000000D01*
X164500000Y-54000000D02*
X165000000Y-53500000D01*
X163900000Y-68737500D02*
X163900000Y-66928429D01*
%TO.N,Net-(D21-BK)*%
X164300000Y-67094115D02*
X165000000Y-66394115D01*
X165000000Y-66394115D02*
X165000000Y-55500000D01*
X165000000Y-55500000D02*
X165500000Y-55000000D01*
X164300000Y-68737500D02*
X164300000Y-67094115D01*
%TO.N,Net-(D31-RK)*%
X164700000Y-68737500D02*
X164700000Y-67259801D01*
X165500000Y-66459801D02*
X165500000Y-57000000D01*
X165500000Y-57000000D02*
X166000000Y-56500000D01*
X164700000Y-67259801D02*
X165500000Y-66459801D01*
%TO.N,Net-(D31-GK)*%
X165100000Y-68737500D02*
X165100000Y-67425487D01*
X166000000Y-66525487D02*
X166000000Y-64000000D01*
X165100000Y-67425487D02*
X166000000Y-66525487D01*
X166000000Y-64000000D02*
X166500000Y-63500000D01*
%TO.N,Net-(D31-BK)*%
X167000000Y-65000000D02*
X166500000Y-65500000D01*
X165500000Y-67591173D02*
X166500000Y-66591173D01*
X165500000Y-68737500D02*
X165500000Y-67591173D01*
X166500000Y-66591173D02*
X166500000Y-65500000D01*
%TO.N,Net-(D41-RK)*%
X165900000Y-68737500D02*
X165900000Y-68100000D01*
X165900000Y-68100000D02*
X167500000Y-66500000D01*
%TO.N,Net-(D41-GK)*%
X170600000Y-69400000D02*
X166462500Y-69400000D01*
X171000000Y-69000000D02*
X170600000Y-69400000D01*
%TO.N,Net-(D41-BK)*%
X166462500Y-69800000D02*
X171300000Y-69800000D01*
X171300000Y-69800000D02*
X172600000Y-71100000D01*
X172600000Y-71100000D02*
X172600000Y-73000000D01*
%TO.N,Net-(D51-RK)*%
X170700000Y-70200000D02*
X172000000Y-71500000D01*
X172000000Y-73500000D02*
X172600000Y-74100000D01*
X166462500Y-70200000D02*
X170700000Y-70200000D01*
X172000000Y-71500000D02*
X172000000Y-73500000D01*
X172600000Y-74100000D02*
X172600000Y-76500000D01*
%TO.N,Net-(D51-GK)*%
X171000000Y-83500000D02*
X170000000Y-82500000D01*
X171500000Y-75500000D02*
X171500000Y-72000000D01*
X170100000Y-70600000D02*
X166462500Y-70600000D01*
X171500000Y-72000000D02*
X170100000Y-70600000D01*
X170000000Y-82500000D02*
X170000000Y-77000000D01*
X170000000Y-77000000D02*
X171500000Y-75500000D01*
%TO.N,Net-(D51-BK)*%
X171000000Y-75000000D02*
X171000000Y-72500000D01*
X169500000Y-84500000D02*
X169500000Y-76500000D01*
X170000000Y-85000000D02*
X169500000Y-84500000D01*
X169500000Y-71000000D02*
X166462500Y-71000000D01*
X171000000Y-72500000D02*
X169500000Y-71000000D01*
X169500000Y-76500000D02*
X171000000Y-75000000D01*
%TO.N,Net-(D61-RK)*%
X169000000Y-76000000D02*
X170500000Y-74500000D01*
X169500000Y-86500000D02*
X169000000Y-86000000D01*
X168900000Y-71400000D02*
X166462500Y-71400000D01*
X170500000Y-73000000D02*
X168900000Y-71400000D01*
X170500000Y-74500000D02*
X170500000Y-73000000D01*
X169000000Y-86000000D02*
X169000000Y-76000000D01*
%TO.N,Net-(D61-GK)*%
X169000000Y-93500000D02*
X168500000Y-93000000D01*
X168300000Y-71800000D02*
X166462500Y-71800000D01*
X168500000Y-72000000D02*
X168300000Y-71800000D01*
X168500000Y-93000000D02*
X168500000Y-72000000D01*
%TO.N,Net-(D61-BK)*%
X168500000Y-95000000D02*
X168000000Y-94500000D01*
X168000000Y-72500000D02*
X167700000Y-72200000D01*
X167700000Y-72200000D02*
X166462500Y-72200000D01*
X168000000Y-94500000D02*
X168000000Y-72500000D01*
%TO.N,Net-(D71-RK)*%
X168000000Y-96500000D02*
X167500000Y-96000000D01*
X167100000Y-72600000D02*
X166462500Y-72600000D01*
X167500000Y-73000000D02*
X167100000Y-72600000D01*
X167500000Y-96000000D02*
X167500000Y-73000000D01*
%TO.N,Net-(D71-GK)*%
X167000000Y-75000000D02*
X166500000Y-74500000D01*
X167500000Y-103500000D02*
X167000000Y-103000000D01*
X166500000Y-73037500D02*
X166462500Y-73000000D01*
X166500000Y-74500000D02*
X166500000Y-73037500D01*
X167000000Y-103000000D02*
X167000000Y-75000000D01*
%TO.N,Net-(D71-BK)*%
X166500000Y-104500000D02*
X167000000Y-105000000D01*
X165900000Y-74900000D02*
X166500000Y-75500000D01*
X165900000Y-73662500D02*
X165900000Y-74900000D01*
X166500000Y-75500000D02*
X166500000Y-104500000D01*
%TO.N,Net-(D81-RK)*%
X166000000Y-76000000D02*
X166000000Y-106000000D01*
X166000000Y-106000000D02*
X166500000Y-106500000D01*
X165500000Y-75500000D02*
X166000000Y-76000000D01*
X165500000Y-73662500D02*
X165500000Y-75500000D01*
%TO.N,Net-(D81-GK)*%
X165100000Y-76100000D02*
X165500000Y-76500000D01*
X165100000Y-73662500D02*
X165100000Y-76100000D01*
X165500000Y-113000000D02*
X166000000Y-113500000D01*
X165500000Y-76500000D02*
X165500000Y-113000000D01*
%TO.N,Net-(D81-BK)*%
X165000000Y-77000000D02*
X165000000Y-114500000D01*
X165000000Y-114500000D02*
X165500000Y-115000000D01*
X164700000Y-76700000D02*
X165000000Y-77000000D01*
X164700000Y-73662500D02*
X164700000Y-76700000D01*
%TO.N,Net-(D100-RK)*%
X164500000Y-116000000D02*
X165000000Y-116500000D01*
X164300000Y-77300000D02*
X164500000Y-77500000D01*
X164300000Y-73662500D02*
X164300000Y-77300000D01*
X164500000Y-77500000D02*
X164500000Y-116000000D01*
%TO.N,Net-(D100-GK)*%
X163900000Y-73662500D02*
X163900000Y-77900000D01*
X164000000Y-119500000D02*
X164500000Y-120000000D01*
X163900000Y-77900000D02*
X164000000Y-78000000D01*
X164000000Y-78000000D02*
X164000000Y-119500000D01*
%TO.N,Net-(D100-BK)*%
X163500000Y-122000000D02*
X163500000Y-73662500D01*
X163000000Y-122500000D02*
X163500000Y-122000000D01*
X162600000Y-122500000D02*
X163000000Y-122500000D01*
%TO.N,/FLASH_MOSI*%
X132850000Y-116362500D02*
X132850000Y-112380000D01*
X132550000Y-112080000D02*
X135460000Y-112080000D01*
X132850000Y-112380000D02*
X132550000Y-112080000D01*
X135460000Y-112080000D02*
X135500000Y-112040000D01*
%TO.N,/~{FPGA_RESET}*%
X125040000Y-109540000D02*
X127500000Y-109540000D01*
X130550000Y-119050000D02*
X124500000Y-113000000D01*
X125000000Y-109500000D02*
X125040000Y-109540000D01*
X124500000Y-113000000D02*
X124500000Y-110000000D01*
X124500000Y-110000000D02*
X125000000Y-109500000D01*
X131662500Y-119050000D02*
X130550000Y-119050000D01*
%TO.N,/FLASH_CLK*%
X134500000Y-113000000D02*
X136500000Y-113000000D01*
X133540000Y-109540000D02*
X132550000Y-109540000D01*
X137000000Y-111000000D02*
X136770000Y-110770000D01*
X135500000Y-110770000D02*
X134770000Y-110770000D01*
X133350000Y-114150000D02*
X134500000Y-113000000D01*
X137000000Y-112500000D02*
X137000000Y-111000000D01*
X133350000Y-116362500D02*
X133350000Y-114150000D01*
X136500000Y-113000000D02*
X137000000Y-112500000D01*
X136770000Y-110770000D02*
X135500000Y-110770000D01*
X134770000Y-110770000D02*
X133540000Y-109540000D01*
%TO.N,/FPGA_DONE*%
X130050000Y-119550000D02*
X123500000Y-113000000D01*
X123500000Y-113000000D02*
X123500000Y-108000000D01*
X123500000Y-108000000D02*
X124500000Y-107000000D01*
X131662500Y-119550000D02*
X130050000Y-119550000D01*
X124500000Y-107000000D02*
X127500000Y-107000000D01*
%TO.N,/~{FLASH_CS}*%
X137000000Y-110000000D02*
X137000000Y-106955000D01*
X138000000Y-111000000D02*
X137000000Y-110000000D01*
X135000000Y-113500000D02*
X138500000Y-113500000D01*
X138500000Y-113500000D02*
X139000000Y-113000000D01*
X139000000Y-111000000D02*
X138000000Y-111000000D01*
X139500000Y-111000000D02*
X142270000Y-108230000D01*
X134505000Y-104460000D02*
X132550000Y-104460000D01*
X139000000Y-113000000D02*
X139000000Y-111000000D01*
X137000000Y-106955000D02*
X134505000Y-104460000D01*
X133850000Y-116362500D02*
X133850000Y-114650000D01*
X139000000Y-111000000D02*
X139500000Y-111000000D01*
X142270000Y-108230000D02*
X142700000Y-108230000D01*
X133850000Y-114650000D02*
X135000000Y-113500000D01*
%TO.N,/FLASH_MISO*%
X142700000Y-109500000D02*
X142866396Y-109500000D01*
X141500000Y-107500000D02*
X141000000Y-108000000D01*
X140000000Y-112000000D02*
X142500000Y-109500000D01*
X135500000Y-114500000D02*
X139500000Y-114500000D01*
X141000000Y-108500000D02*
X139500000Y-110000000D01*
X139500000Y-114500000D02*
X140000000Y-114000000D01*
X142500000Y-109500000D02*
X142700000Y-109500000D01*
X134350000Y-116362500D02*
X134350000Y-115650000D01*
X143800000Y-107893604D02*
X143406396Y-107500000D01*
X138000000Y-110000000D02*
X137500000Y-109500000D01*
X137500000Y-106870000D02*
X132550000Y-101920000D01*
X139500000Y-110000000D02*
X138000000Y-110000000D01*
X143800000Y-108566396D02*
X143800000Y-107893604D01*
X141000000Y-108000000D02*
X141000000Y-108500000D01*
X142866396Y-109500000D02*
X143800000Y-108566396D01*
X137500000Y-109500000D02*
X137500000Y-106870000D01*
X143406396Y-107500000D02*
X141500000Y-107500000D01*
X134350000Y-115650000D02*
X135500000Y-114500000D01*
X140000000Y-114000000D02*
X140000000Y-112000000D01*
D39*
%TO.N,Net-(Q1-G)*%
X85875000Y-83775000D02*
X86000000Y-83900000D01*
X87325000Y-83900000D02*
X86000000Y-83900000D01*
X83937500Y-83775000D02*
X85875000Y-83775000D01*
X87875000Y-84450000D02*
X87325000Y-83900000D01*
X87875000Y-86450000D02*
X87875000Y-84450000D01*
%TO.N,Net-(Q12-D)*%
X96000000Y-83900000D02*
X94062500Y-83900000D01*
X97875000Y-84450000D02*
X97325000Y-83900000D01*
X97325000Y-83900000D02*
X96000000Y-83900000D01*
X94062500Y-83900000D02*
X93937500Y-83775000D01*
X97875000Y-86450000D02*
X97875000Y-84450000D01*
%TO.N,Net-(Q13-D)*%
X107875000Y-84387500D02*
X107387500Y-83900000D01*
X107387500Y-83900000D02*
X106000000Y-83900000D01*
X107875000Y-86450000D02*
X107875000Y-84387500D01*
X106000000Y-83900000D02*
X104062500Y-83900000D01*
X104062500Y-83900000D02*
X103937500Y-83775000D01*
%TO.N,Net-(Q14-D)*%
X117387500Y-83900000D02*
X116000000Y-83900000D01*
X114062500Y-83900000D02*
X113937500Y-83775000D01*
X116000000Y-83900000D02*
X114062500Y-83900000D01*
X117875000Y-86450000D02*
X117875000Y-84387500D01*
X117875000Y-84387500D02*
X117387500Y-83900000D01*
%TO.N,Net-(Q15-D)*%
X127387500Y-83900000D02*
X126000000Y-83900000D01*
X127875000Y-84387500D02*
X127387500Y-83900000D01*
X127875000Y-86450000D02*
X127875000Y-84387500D01*
X124062500Y-83900000D02*
X123937500Y-83775000D01*
X126000000Y-83900000D02*
X124062500Y-83900000D01*
%TO.N,Net-(Q16-D)*%
X134062500Y-83900000D02*
X133937500Y-83775000D01*
X137387500Y-83900000D02*
X136000000Y-83900000D01*
X136000000Y-83900000D02*
X134062500Y-83900000D01*
X137875000Y-86450000D02*
X137875000Y-84387500D01*
X137875000Y-84387500D02*
X137387500Y-83900000D01*
%TO.N,Net-(Q17-D)*%
X144062500Y-83900000D02*
X143937500Y-83775000D01*
X146000000Y-83900000D02*
X144062500Y-83900000D01*
X147387500Y-83900000D02*
X146000000Y-83900000D01*
X147875000Y-84387500D02*
X147387500Y-83900000D01*
X147875000Y-86450000D02*
X147875000Y-84387500D01*
%TO.N,Net-(Q18-D)*%
X157387500Y-83900000D02*
X156000000Y-83900000D01*
X154062500Y-83900000D02*
X153937500Y-83775000D01*
X156000000Y-83900000D02*
X154062500Y-83900000D01*
X157875000Y-86450000D02*
X157875000Y-84387500D01*
X157875000Y-84387500D02*
X157387500Y-83900000D01*
%TO.N,Net-(Q19-D)*%
X177000000Y-117100000D02*
X177125000Y-117225000D01*
X173675000Y-117100000D02*
X175062500Y-117100000D01*
X175062500Y-117100000D02*
X177000000Y-117100000D01*
X173187500Y-114550000D02*
X173187500Y-116612500D01*
X173187500Y-116612500D02*
X173675000Y-117100000D01*
%TO.N,Net-(Q10-G)*%
X176387500Y-104900000D02*
X175000000Y-104900000D01*
X175000000Y-104900000D02*
X173062500Y-104900000D01*
X173062500Y-104900000D02*
X172937500Y-104775000D01*
X176875000Y-107450000D02*
X176875000Y-105387500D01*
X176875000Y-105387500D02*
X176387500Y-104900000D01*
D41*
%TO.N,/DRIVER_SDA*%
X163000000Y-120500000D02*
X161000000Y-122500000D01*
X160537500Y-71400000D02*
X160030025Y-71400000D01*
X161000000Y-122500000D02*
X142000000Y-122500000D01*
X159500000Y-73500000D02*
X163000000Y-77000000D01*
X159500000Y-71930025D02*
X159500000Y-73500000D01*
X163000000Y-77000000D02*
X163000000Y-120500000D01*
X160030025Y-71400000D02*
X159500000Y-71930025D01*
%TO.N,/DRIVER_SCL*%
X159500000Y-71000000D02*
X159000000Y-71500000D01*
X159000000Y-74000000D02*
X162500000Y-77500000D01*
X160500000Y-122000000D02*
X142000000Y-122000000D01*
X160537500Y-71000000D02*
X159500000Y-71000000D01*
X162500000Y-120000000D02*
X160500000Y-122000000D01*
X162500000Y-77500000D02*
X162500000Y-120000000D01*
X159000000Y-71500000D02*
X159000000Y-74000000D01*
%TO.N,/DRIVER_EN*%
X160000000Y-121500000D02*
X142000000Y-121500000D01*
X158500000Y-71000000D02*
X158500000Y-74500000D01*
X158500000Y-74500000D02*
X162000000Y-78000000D01*
X158900000Y-70600000D02*
X158500000Y-71000000D01*
X160537500Y-70600000D02*
X158900000Y-70600000D01*
X162000000Y-78000000D02*
X162000000Y-119500000D01*
X162000000Y-119500000D02*
X160000000Y-121500000D01*
%TO.N,EN_ROW0*%
X86000000Y-87400000D02*
X86000000Y-123000000D01*
X86500000Y-123500000D02*
X128000000Y-123500000D01*
X86000000Y-123000000D02*
X86500000Y-123500000D01*
%TO.N,EN_ROW1*%
X96500000Y-122500000D02*
X130500000Y-122500000D01*
X96000000Y-122000000D02*
X96500000Y-122500000D01*
X96000000Y-87400000D02*
X96000000Y-122000000D01*
%TO.N,EN_ROW2*%
X106500000Y-122000000D02*
X130500000Y-122000000D01*
X106000000Y-87400000D02*
X106000000Y-121500000D01*
X106000000Y-121500000D02*
X106500000Y-122000000D01*
%TO.N,EN_ROW3*%
X116000000Y-87400000D02*
X116000000Y-121000000D01*
X116500000Y-121500000D02*
X130500000Y-121500000D01*
X116000000Y-121000000D02*
X116500000Y-121500000D01*
%TO.N,EN_ROW4*%
X122500000Y-99000000D02*
X122500000Y-117000000D01*
X126000000Y-87400000D02*
X126000000Y-95500000D01*
X126000000Y-95500000D02*
X122500000Y-99000000D01*
X126500000Y-121000000D02*
X130500000Y-121000000D01*
X122500000Y-117000000D02*
X126500000Y-121000000D01*
%TO.N,EN_ROW5*%
X140000000Y-108000000D02*
X141000000Y-107000000D01*
X141000000Y-107000000D02*
X144000000Y-107000000D01*
X138000000Y-105500000D02*
X138000000Y-108500000D01*
X140000000Y-108500000D02*
X140000000Y-108000000D01*
X142500000Y-116000000D02*
X139500000Y-116000000D01*
X138500000Y-109000000D02*
X139500000Y-109000000D01*
X138000000Y-108500000D02*
X138500000Y-109000000D01*
X139500000Y-109000000D02*
X140000000Y-108500000D01*
X136000000Y-87400000D02*
X136000000Y-103500000D01*
X144500000Y-114000000D02*
X142500000Y-116000000D01*
X136000000Y-103500000D02*
X138000000Y-105500000D01*
X144000000Y-107000000D02*
X144500000Y-107500000D01*
X144500000Y-107500000D02*
X144500000Y-114000000D01*
%TO.N,EN_ROW6*%
X146000000Y-99500000D02*
X147000000Y-100500000D01*
X146000000Y-87400000D02*
X146000000Y-99500000D01*
X146500000Y-120500000D02*
X142000000Y-120500000D01*
X147000000Y-100500000D02*
X147000000Y-120000000D01*
X147000000Y-120000000D02*
X146500000Y-120500000D01*
%TO.N,EN_ROW7*%
X158500000Y-89900000D02*
X158500000Y-120500000D01*
X158500000Y-120500000D02*
X158000000Y-121000000D01*
X158000000Y-121000000D02*
X142000000Y-121000000D01*
X156000000Y-87400000D02*
X158500000Y-89900000D01*
%TO.N,EN_ROW8*%
X178500000Y-119500000D02*
X174500000Y-123500000D01*
X178500000Y-116000000D02*
X178500000Y-119500000D01*
X176100000Y-113600000D02*
X178500000Y-116000000D01*
X175062500Y-113600000D02*
X176100000Y-113600000D01*
X174500000Y-123500000D02*
X142000000Y-123500000D01*
%TO.N,EN_ROW9*%
X179000000Y-120000000D02*
X175000000Y-124000000D01*
X175000000Y-124000000D02*
X142000000Y-124000000D01*
X175000000Y-108400000D02*
X175000000Y-111000000D01*
X179000000Y-115000000D02*
X179000000Y-120000000D01*
X175000000Y-111000000D02*
X179000000Y-115000000D01*
%TD*%
M02*
